{
.appVersion = "1330";
customParameters = (
{
name = Axes;
value = (
{
Name = Weight;
Tag = wght;
}
);
}
);
date = "2019-11-07 17:03:37 +0000";
designer = "Jeremy Johnson";
disablesNiceNames = 1;
familyName = "Norse Arabic";
featurePrefixes = (
{
automatic = 1;
code = "languagesystem DFLT dflt;\012\012languagesystem arab dflt;\012";
name = Languagesystems;
}
);
features = (
{
automatic = 1;
code = "feature init;\012feature medi;\012feature fina;\012feature salt;\012feature ss01;\012feature ss02;\012";
name = aalt;
},
{
automatic = 1;

glyphs = (
{
glyphname = H;
lastChange = "2020-04-21 17:02:51 +0000";
layers = (
{
layerId = "4BB9E86A-2C6D-49F0-A7F5-5EF670F2F4E4";
paths = (
{
closed = 1;
nodes = (
"178 0 LINE",
"178 316 LINE",
"178 320 LINE",
"182 320 LINE",
"182 318 LINE",
"532 318 LINE",
"532 320 LINE",
"536 320 LINE",
"536 316 LINE",
"536 0 LINE",
"625 0 LINE",
"625 700 LINE",
"536 700 LINE",
"536 394 LINE",
"536 390 LINE",
"532 390 LINE",
"532 392 LINE",
"182 392 LINE",
"182 390 LINE",
"178 390 LINE",
"178 394 LINE",
"178 700 LINE",
"90 700 LINE",
"90 0 LINE"
);
}
);
width = 715;
},
{
layerId = "F3D5F3BC-0862-4A52-BCBD-22F0EED7FFB2";
paths = (
{
closed = 1;
nodes = (
"178 0 LINE",
"178 316 LINE",
"178 320 LINE",
"182 320 LINE",
"182 318 LINE",
"532 318 LINE",
"532 320 LINE",
"536 320 LINE",
"536 316 LINE",
"536 0 LINE",
"625 0 LINE",
"625 700 LINE",
"536 700 LINE",
"536 394 LINE",
"536 390 LINE",
"532 390 LINE",
"532 392 LINE",
"182 392 LINE",
"182 390 LINE",
"178 390 LINE",
"178 394 LINE",
"178 700 LINE",
"90 700 LINE",
"90 0 LINE"
);
}
);
width = 715;
}
);
rightMetricsKey = "=|";
unicode = 0048;
},
{
glyphname = a;
lastChange = "2020-05-07 16:07:39 +0000";
layers = (
{
anchors = (
{
name = bottom;
position = "{299, 0}";
},
{
name = ogonek;
position = "{544, 10}";
},
{
name = top;
position = "{299, 528}";
}
);
hints = (
{
horizontal = 1;
origin = "{0, 22}";
target = "{1, 12}";
type = Stem;
},
{
horizontal = 1;
origin = "{0, 16}";
target = "{1, 5}";
type = Stem;
},
{
origin = "{0, 19}";
target = "{1, 2}";
type = Stem;
},
{
origin = "{0, 6}";
target = "{0, 7}";
type = Stem;
}
);
layerId = "4BB9E86A-2C6D-49F0-A7F5-5EF670F2F4E4";
paths = (
{
closed = 1;
nodes = (
"367 -7 OFFCURVE",
"425 56 OFFCURVE",
"443 100 CURVE",
"443 102 LINE",
"447 102 LINE",
"447 98 LINE",
"447 0 LINE",
"527 0 LINE",
"527 525 LINE",
"447 525 LINE",
"447 429 LINE",
"447 425 LINE",
"443 425 LINE",
"443 427 LINE",
"430 467 OFFCURVE",
"367 534 OFFCURVE",
"267 534 CURVE SMOOTH",
"134 534 OFFCURVE",
"40 426 OFFCURVE",
"40 265 CURVE SMOOTH",
"40 99 OFFCURVE",
"138 -7 OFFCURVE",
"265 -7 CURVE SMOOTH"
);
},
{
closed = 1;
nodes = (
"197 69 OFFCURVE",
"127 144 OFFCURVE",
"127 265 CURVE SMOOTH",
"127 388 OFFCURVE",
"198 458 OFFCURVE",
"290 458 CURVE SMOOTH",
"382 458 OFFCURVE",
"447 377 OFFCURVE",
"447 277 CURVE SMOOTH",
"447 239 LINE SMOOTH",
"447 143 OFFCURVE",
"383 69 OFFCURVE",
"290 69 CURVE SMOOTH"
);
}
);
width = 617;
},
{
anchors = (
{
name = bottom;
position = "{299, 0}";
},
{
name = ogonek;
position = "{544, 10}";
},
{
name = top;
position = "{299, 528}";
}
);
hints = (
{
horizontal = 1;
origin = "{0, 22}";
target = "{1, 12}";
type = Stem;
},
{
horizontal = 1;
origin = "{0, 16}";
target = "{1, 5}";
type = Stem;
},
{
origin = "{0, 19}";
target = "{1, 2}";
type = Stem;
},
{
origin = "{0, 6}";
target = "{0, 7}";
type = Stem;
}
);
layerId = "F3D5F3BC-0862-4A52-BCBD-22F0EED7FFB2";
paths = (
{
closed = 1;
nodes = (
"367 -7 OFFCURVE",
"425 56 OFFCURVE",
"443 100 CURVE",
"443 102 LINE",
"447 102 LINE",
"447 98 LINE",
"447 0 LINE",
"527 0 LINE",
"527 525 LINE",
"447 525 LINE",
"447 429 LINE",
"447 425 LINE",
"443 425 LINE",
"443 427 LINE",
"430 467 OFFCURVE",
"367 534 OFFCURVE",
"267 534 CURVE SMOOTH",
"134 534 OFFCURVE",
"40 426 OFFCURVE",
"40 265 CURVE SMOOTH",
"40 99 OFFCURVE",
"138 -7 OFFCURVE",
"265 -7 CURVE SMOOTH"
);
},
{
closed = 1;
nodes = (
"197 69 OFFCURVE",
"127 144 OFFCURVE",
"127 265 CURVE SMOOTH",
"127 388 OFFCURVE",
"198 458 OFFCURVE",
"290 458 CURVE SMOOTH",
"382 458 OFFCURVE",
"447 377 OFFCURVE",
"447 277 CURVE SMOOTH",
"447 239 LINE SMOOTH",
"447 143 OFFCURVE",
"383 69 OFFCURVE",
"290 69 CURVE SMOOTH"
);
}
);
width = 617;
}
);
leftMetricsKey = "=40";
rightMetricsKey = "=90";
unicode = 0061;
},
{
color = 10;
glyphname = "hamza-ar";
lastChange = "2020-05-08 08:28:12 +0000";
layers = (
{
background = {
paths = (
{
closed = 1;
nodes = (
"188 64 OFFCURVE",
"98 124 OFFCURVE",
"98 206 CURVE SMOOTH",
"98 259 OFFCURVE",
"139 299 OFFCURVE",
"193 299 CURVE SMOOTH",
"220 299 OFFCURVE",
"246 289 OFFCURVE",
"269 270 CURVE",
"306 311 LINE",
"275 340 OFFCURVE",
"233 356 OFFCURVE",
"193 356 CURVE SMOOTH",
"113 356 OFFCURVE",
"45 292 OFFCURVE",
"45 216 CURVE SMOOTH",
"45 131 OFFCURVE",
"88 98 OFFCURVE",
"131 68 CURVE",
"134 68 LINE",
"134 64 LINE",
"30 64 LINE",
"30 2 LINE",
"357 2 LINE",
"357 64 LINE",
"308 64 LINE SMOOTH"
);
}
);
};
layerId = "4BB9E86A-2C6D-49F0-A7F5-5EF670F2F4E4";
paths = (
{
closed = 1;
nodes = (
"347 0 LINE",
"347 62 LINE",
"308 62 LINE SMOOTH",
"188 62 OFFCURVE",
"98 127 OFFCURVE",
"98 205 CURVE SMOOTH",
"98 259 OFFCURVE",
"142 295 OFFCURVE",
"193 295 CURVE SMOOTH",
"225 295 OFFCURVE",
"255 281 OFFCURVE",
"280 254 CURVE",
"257 248 LINE",
"323 324 LINE",
"317 298 LINE",
"286 334 OFFCURVE",
"238 353 OFFCURVE",
"193 353 CURVE SMOOTH",
"114 353 OFFCURVE",
"45 294 OFFCURVE",
"45 209 CURVE SMOOTH",
"45 151 OFFCURVE",
"77 98 OFFCURVE",
"126 66 CURVE",
"130 66 LINE",
"130 62 LINE",
"126 62 LINE",
"30 62 LINE",
"30 0 LINE"
);
}
);
width = 377;
},
{
background = {
paths = (
{
closed = 1;
nodes = (
"396 344 LINE",
"357 394 OFFCURVE",
"298 422 OFFCURVE",
"237 422 CURVE SMOOTH",
"138 422 OFFCURVE",
"55 342 OFFCURVE",
"55 248 CURVE SMOOTH",
"55 185 OFFCURVE",
"84 131 OFFCURVE",
"144 90 CURVE",
"133 90 LINE",
"133 130 LINE",
"151 130 LINE",
"40 130 LINE",
"40 0 LINE",
"435 0 LINE",
"435 130 LINE",
"352 130 LINE SMOOTH",
"251 130 OFFCURVE",
"176 177 OFFCURVE",
"176 238 CURVE SMOOTH",
"176 272 OFFCURVE",
"201 297 OFFCURVE",
"237 297 CURVE SMOOTH",
"265 297 OFFCURVE",
"288 283 OFFCURVE",
"314 252 CURVE"
);
}
);
};
layerId = "F3D5F3BC-0862-4A52-BCBD-22F0EED7FFB2";
paths = (
{
closed = 1;
nodes = (
"435 0 LINE",
"435 130 LINE",
"352 130 LINE SMOOTH",
"251 130 OFFCURVE",
"176 177 OFFCURVE",
"176 238 CURVE SMOOTH",
"176 272 OFFCURVE",
"201 297 OFFCURVE",
"237 297 CURVE SMOOTH",
"275 297 OFFCURVE",
"304 271 OFFCURVE",
"343 212 CURVE",
"276 228 LINE",
"429 394 LINE",
"415 315 LINE",
"378 383 OFFCURVE",
"309 422 OFFCURVE",
"237 422 CURVE SMOOTH",
"138 422 OFFCURVE",
"55 342 OFFCURVE",
"55 248 CURVE SMOOTH",
"55 205 OFFCURVE",
"67 167 OFFCURVE",
"95 134 CURVE",
"99 134 LINE",
"99 130 LINE",
"95 130 LINE",
"40 130 LINE",
"40 0 LINE"
);
}
);
width = 475;
}
);
unicode = 0621;
},
{
color = 10;
glyphname = "alef-ar";
lastChange = "2020-05-08 08:53:31 +0000";
layers = (
{
layerId = "4BB9E86A-2C6D-49F0-A7F5-5EF670F2F4E4";
paths = (
{
closed = 1;
nodes = (
"135 0 LINE",
"135 704 LINE",
"80 700 LINE",
"80 0 LINE"
);
}
);
width = 215;
},
{
layerId = "F3D5F3BC-0862-4A52-BCBD-22F0EED7FFB2";
paths = (
{
closed = 1;
nodes = (
"190 0 LINE",
"190 708 LINE",
"80 700 LINE",
"80 0 LINE"
);
}
);
width = 270;
}
);
leftMetricsKey = "=80";
note = "حطي قسمن";
rightMetricsKey = "=80";
unicode = 0627;
},
{
color = 10;
glyphname = "alef-ar.fina";
lastChange = "2020-05-08 08:53:39 +0000";
layers = (
{
background = {
paths = (
{
closed = 1;
nodes = (
"294 0 OFFCURVE",
"299 5 OFFCURVE",
"299 11 CURVE SMOOTH",
"299 75 LINE SMOOTH",
"299 80 OFFCURVE",
"294 86 OFFCURVE",
"289 86 CURVE SMOOTH",
"255 86 LINE SMOOTH",
"201 86 OFFCURVE",
"160 107 OFFCURVE",
"160 165 CURVE SMOOTH",
"160 713 LINE",
"80 702 LINE",
"80 141 LINE SMOOTH",
"80 81 OFFCURVE",
"115 0 OFFCURVE",
"253 0 CURVE SMOOTH",
"289 0 LINE SMOOTH"
);
}
);
};
layerId = "4BB9E86A-2C6D-49F0-A7F5-5EF670F2F4E4";
paths = (
{
closed = 1;
nodes = (
"281 0 OFFCURVE",
"286 5 OFFCURVE",
"286 10 CURVE SMOOTH",
"286 52 LINE SMOOTH",
"286 57 OFFCURVE",
"281 62 OFFCURVE",
"276 62 CURVE SMOOTH",
"242 62 LINE SMOOTH",
"178 62 OFFCURVE",
"135 88 OFFCURVE",
"135 146 CURVE SMOOTH",
"135 704 LINE",
"80 700 LINE",
"80 134 LINE SMOOTH",
"80 73 OFFCURVE",
"115 0 OFFCURVE",
"253 0 CURVE SMOOTH",
"276 0 LINE SMOOTH"
);
}
);
width = 271;
},
{
background = {
paths = (
{
closed = 1;
nodes = (
"190 1 LINE",
"190 713 LINE",
"80 703 LINE",
"80 -10 LINE"
);
}
);
};
layerId = "F3D5F3BC-0862-4A52-BCBD-22F0EED7FFB2";
paths = (
{
closed = 1;
nodes = (
"325 0 OFFCURVE",
"329 4 OFFCURVE",
"329 10 CURVE SMOOTH",
"329 120 LINE SMOOTH",
"329 126 OFFCURVE",
"325 130 OFFCURVE",
"319 130 CURVE SMOOTH",
"267 130 LINE SMOOTH",
"207 130 OFFCURVE",
"190 137 OFFCURVE",
"190 197 CURVE SMOOTH",
"190 708 LINE",
"80 700 LINE",
"80 141 LINE SMOOTH",
"80 81 OFFCURVE",
"115 0 OFFCURVE",
"253 0 CURVE SMOOTH",
"319 0 LINE SMOOTH"
);
}
);
width = 314;
}
);
leftMetricsKey = "=80";
note = "حطي قسمن";
rightMetricsKey = "=-15";
unicode = FE8E;
},
{
color = 10;
glyphname = "behDotless-ar";
lastChange = "2020-05-08 08:29:51 +0000";
layers = (
{
background = {
paths = (
{
closed = 1;
nodes = (
"536 343 LINE",
"556 364 LINE",
"569 315 OFFCURVE",
"583 249 OFFCURVE",
"583 185 CURVE SMOOTH",
"583 166 OFFCURVE",
"580 148 OFFCURVE",
"577 136 CURVE",
"543 87 OFFCURVE",
"454 78 OFFCURVE",
"318 78 CURVE SMOOTH",
"156 78 OFFCURVE",
"81 117 OFFCURVE",
"81 224 CURVE SMOOTH",
"81 260 OFFCURVE",
"91 305 OFFCURVE",
"109 358 CURVE",
"135 333 LINE",
"16 333 LINE",
"59 358 LINE",
"32 291 OFFCURVE",
"18 233 OFFCURVE",
"18 185 CURVE SMOOTH",
"18 61 OFFCURVE",
"107 -2 OFFCURVE",
"318 -2 CURVE SMOOTH",
"547 -2 OFFCURVE",
"650 36 OFFCURVE",
"650 203 CURVE SMOOTH",
"650 272 OFFCURVE",
"637 330 OFFCURVE",
"625 380 CURVE",
"675 363 LINE"
);
}
);
};
guideLines = (
{
position = "{74, 333}";
}
);
layerId = "4BB9E86A-2C6D-49F0-A7F5-5EF670F2F4E4";
paths = (
{
closed = 1;
nodes = (
"600 0 OFFCURVE",
"682 50 OFFCURVE",
"682 207 CURVE SMOOTH",
"682 288 OFFCURVE",
"668 342 OFFCURVE",
"650 415 CURVE",
"721 369 LINE",
"541 360 LINE",
"591 423 LINE",
"611 345 OFFCURVE",
"630 266 OFFCURVE",
"630 188 CURVE SMOOTH",
"630 166 OFFCURVE",
"625 144 OFFCURVE",
"622 131 CURVE",
"589 79 OFFCURVE",
"514 62 OFFCURVE",
"339 62 CURVE SMOOTH",
"129 62 OFFCURVE",
"83 112 OFFCURVE",
"83 230 CURVE SMOOTH",
"83 262 OFFCURVE",
"91 302 OFFCURVE",
"105 352 CURVE",
"122 334 LINE",
"16 334 LINE",
"73 368 LINE",
"45 298 OFFCURVE",
"30 237 OFFCURVE",
"30 188 CURVE SMOOTH",
"30 59 OFFCURVE",
"125 0 OFFCURVE",
"339 0 CURVE SMOOTH"
);
}
);
width = 712;
},
{
background = {
paths = (
{
closed = 1;
nodes = (
"626 0 OFFCURVE",
"736 41 OFFCURVE",
"736 219 CURVE SMOOTH",
"736 293 OFFCURVE",
"724 346 OFFCURVE",
"709 409 CURVE",
"763 391 LINE",
"614 387 LINE",
"632 409 LINE",
"650 339 OFFCURVE",
"665 269 OFFCURVE",
"665 200 CURVE SMOOTH",
"665 180 OFFCURVE",
"661 161 OFFCURVE",
"658 148 CURVE",
"622 95 OFFCURVE",
"527 86 OFFCURVE",
"381 86 CURVE SMOOTH",
"208 86 OFFCURVE",
"127 127 OFFCURVE",
"127 242 CURVE SMOOTH",
"127 280 OFFCURVE",
"138 328 OFFCURVE",
"157 385 CURVE",
"185 358 LINE",
"58 358 LINE",
"104 385 LINE",
"75 314 OFFCURVE",
"60 251 OFFCURVE",
"60 200 CURVE SMOOTH",
"60 67 OFFCURVE",
"155 0 OFFCURVE",
"381 0 CURVE SMOOTH"
);
}
);
};
guideLines = (
{
position = "{116, 333}";
}
);
layerId = "F3D5F3BC-0862-4A52-BCBD-22F0EED7FFB2";
paths = (
{
closed = 1;
nodes = (
"658 0 OFFCURVE",
"756 63 OFFCURVE",
"756 241 CURVE SMOOTH",
"756 329 OFFCURVE",
"741 389 OFFCURVE",
"722 464 CURVE",
"779 427 LINE",
"563 414 LINE",
"603 463 LINE",
"626 379 OFFCURVE",
"646 301 OFFCURVE",
"646 222 CURVE SMOOTH",
"646 209 OFFCURVE",
"644 195 OFFCURVE",
"640 178 CURVE",
"613 142 OFFCURVE",
"543 130 OFFCURVE",
"381 130 CURVE SMOOTH",
"211 130 OFFCURVE",
"148 167 OFFCURVE",
"148 264 CURVE SMOOTH",
"148 310 OFFCURVE",
"162 364 OFFCURVE",
"191 446 CURVE",
"225 390 LINE",
"31 390 LINE",
"95 435 LINE",
"59 358 OFFCURVE",
"40 282 OFFCURVE",
"40 222 CURVE SMOOTH",
"40 72 OFFCURVE",
"151 0 OFFCURVE",
"381 0 CURVE SMOOTH"
);
}
);
width = 796;
}
);
unicode = 066E;
},
{
color = 10;
glyphname = "behDotless-ar.fina";
lastChange = "2020-05-08 08:30:00 +0000";
layers = (
{
background = {
paths = (
{
closed = 1;
nodes = (
"590 0 OFFCURVE",
"672 50 OFFCURVE",
"672 207 CURVE SMOOTH",
"672 288 OFFCURVE",
"658 342 OFFCURVE",
"640 415 CURVE",
"711 367 LINE",
"536 362 LINE",
"586 423 LINE",
"606 345 OFFCURVE",
"625 266 OFFCURVE",
"625 188 CURVE SMOOTH",
"625 166 OFFCURVE",
"620 144 OFFCURVE",
"617 131 CURVE",
"584 79 OFFCURVE",
"509 62 OFFCURVE",
"329 62 CURVE SMOOTH",
"118 62 OFFCURVE",
"72 112 OFFCURVE",
"72 230 CURVE SMOOTH",
"72 262 OFFCURVE",
"80 302 OFFCURVE",
"94 352 CURVE",
"111 334 LINE",
"6 334 LINE",
"63 368 LINE",
"35 298 OFFCURVE",
"20 237 OFFCURVE",
"20 188 CURVE SMOOTH",
"20 59 OFFCURVE",
"115 0 OFFCURVE",
"329 0 CURVE SMOOTH"
);
},
{
closed = 1;
nodes = (
"801 0 LINE SMOOTH",
"807 0 OFFCURVE",
"811 4 OFFCURVE",
"811 10 CURVE SMOOTH",
"811 53 LINE SMOOTH",
"811 59 OFFCURVE",
"807 62 OFFCURVE",
"801 62 CURVE SMOOTH",
"782 62 LINE SMOOTH",
"735 62 OFFCURVE",
"698 86 OFFCURVE",
"675 131 CURVE",
"655 399 LINE",
"734 334 LINE",
"572 334 LINE",
"605 380 LINE",
"629 124 LINE",
"655 62 LINE",
"659 62 LINE",
"659 58 LINE",
"689 17 OFFCURVE",
"726 0 OFFCURVE",
"782 0 CURVE SMOOTH"
);
}
);
};
guideLines = (
{
position = "{78, 334}";
}
);
layerId = "4BB9E86A-2C6D-49F0-A7F5-5EF670F2F4E4";
paths = (
{
closed = 1;
nodes = (
"725 62 OFFCURVE",
"693 74 OFFCURVE",
"670 125 CURVE",
"650 356 LINE",
"672 336 LINE",
"574 332 LINE",
"595 356 LINE",
"615 124 LINE",
"552 78 OFFCURVE",
"503 62 OFFCURVE",
"338 62 CURVE SMOOTH",
"114 62 OFFCURVE",
"83 128 OFFCURVE",
"83 213 CURVE SMOOTH",
"83 259 OFFCURVE",
"93 310 OFFCURVE",
"103 346 CURVE",
"122 334 LINE",
"38 334 LINE",
"66 351 LINE",
"42 288 OFFCURVE",
"30 234 OFFCURVE",
"30 188 CURVE SMOOTH",
"30 59 OFFCURVE",
"126 0 OFFCURVE",
"341 0 CURVE SMOOTH",
"550 0 OFFCURVE",
"608 49 OFFCURVE",
"632 74 CURVE",
"632 78 LINE",
"636 78 LINE",
"636 74 LINE",
"659 31 OFFCURVE",
"704 0 OFFCURVE",
"769 0 CURVE SMOOTH",
"791 0 LINE SMOOTH",
"797 0 OFFCURVE",
"801 4 OFFCURVE",
"801 10 CURVE SMOOTH",
"801 53 LINE SMOOTH",
"801 59 OFFCURVE",
"797 62 OFFCURVE",
"791 62 CURVE SMOOTH",
"772 62 LINE SMOOTH"
);
}
);
width = 786;
},
{
background = {
paths = (
{
closed = 1;
nodes = (
"658 0 OFFCURVE",
"756 63 OFFCURVE",
"756 241 CURVE SMOOTH",
"756 329 OFFCURVE",
"741 389 OFFCURVE",
"722 464 CURVE",
"779 423 LINE",
"563 418 LINE",
"603 463 LINE",
"626 379 OFFCURVE",
"646 301 OFFCURVE",
"646 222 CURVE SMOOTH",
"646 209 OFFCURVE",
"644 195 OFFCURVE",
"640 178 CURVE",
"613 142 OFFCURVE",
"543 130 OFFCURVE",
"381 130 CURVE SMOOTH",
"211 130 OFFCURVE",
"148 167 OFFCURVE",
"148 264 CURVE SMOOTH",
"148 304 OFFCURVE",
"162 360 OFFCURVE",
"191 446 CURVE",
"225 390 LINE",
"31 390 LINE",
"95 435 LINE",
"59 358 OFFCURVE",
"40 282 OFFCURVE",
"40 222 CURVE SMOOTH",
"40 72 OFFCURVE",
"151 0 OFFCURVE",
"381 0 CURVE SMOOTH"
);
}
);
};
guideLines = (
{
position = "{120, 333}";
}
);
layerId = "F3D5F3BC-0862-4A52-BCBD-22F0EED7FFB2";
paths = (
{
closed = 1;
nodes = (
"786 130 OFFCURVE",
"764 144 OFFCURVE",
"747 174 CURVE",
"727 439 LINE",
"777 398 LINE",
"569 390 LINE",
"617 439 LINE",
"637 172 LINE",
"583 142 OFFCURVE",
"506 130 OFFCURVE",
"384 130 CURVE SMOOTH",
"214 130 OFFCURVE",
"148 168 OFFCURVE",
"148 264 CURVE SMOOTH",
"148 302 OFFCURVE",
"161 355 OFFCURVE",
"190 439 CURVE",
"223 390 LINE",
"29 390 LINE",
"93 428 LINE",
"58 351 OFFCURVE",
"40 280 OFFCURVE",
"40 222 CURVE SMOOTH",
"40 71 OFFCURVE",
"151 0 OFFCURVE",
"379 0 CURVE SMOOTH",
"562 0 OFFCURVE",
"643 36 OFFCURVE",
"679 59 CURVE",
"679 63 LINE",
"683 63 LINE",
"683 59 LINE",
"718 19 OFFCURVE",
"763 0 OFFCURVE",
"824 0 CURVE SMOOTH",
"872 0 LINE SMOOTH",
"878 0 OFFCURVE",
"882 4 OFFCURVE",
"882 10 CURVE SMOOTH",
"882 120 LINE SMOOTH",
"882 126 OFFCURVE",
"878 130 OFFCURVE",
"872 130 CURVE SMOOTH",
"819 130 LINE SMOOTH"
);
}
);
width = 867;
}
);
rightMetricsKey = "=-15";
},
{
glyphname = "beh-ar.fina";
lastChange = "2020-05-08 08:30:05 +0000";
layers = (
{
anchors = (
{
name = bottom;
position = "{348, -2}";
},
{
name = top;
position = "{348, 380}";
}
);
background = {
paths = (
{
closed = 1;
nodes = (
"542 317 LINE",
"565 374 LINE",
"578 325 OFFCURVE",
"595 249 OFFCURVE",
"595 185 CURVE SMOOTH",
"595 166 OFFCURVE",
"592 149 OFFCURVE",
"589 137 CURVE",
"554 95 OFFCURVE",
"405 78 OFFCURVE",
"330 78 CURVE SMOOTH",
"168 78 OFFCURVE",
"89 117 OFFCURVE",
"89 224 CURVE SMOOTH",
"89 260 OFFCURVE",
"99 305 OFFCURVE",
"117 358 CURVE",
"143 333 LINE",
"28 333 LINE",
"71 358 LINE",
"44 291 OFFCURVE",
"30 233 OFFCURVE",
"30 185 CURVE SMOOTH",
"30 61 OFFCURVE",
"119 -2 OFFCURVE",
"299 -2 CURVE SMOOTH",
"551 -2 OFFCURVE",
"660 56 OFFCURVE",
"660 227 CURVE SMOOTH",
"660 272 OFFCURVE",
"652 324 OFFCURVE",
"638 385 CURVE",
"678 374 LINE"
);
},
{
closed = 1;
nodes = (
"775 0 OFFCURVE",
"780 5 OFFCURVE",
"780 10 CURVE SMOOTH",
"780 70 LINE SMOOTH",
"780 75 OFFCURVE",
"775 80 OFFCURVE",
"770 80 CURVE SMOOTH",
"742 80 LINE SMOOTH",
"701 80 OFFCURVE",
"671 101 OFFCURVE",
"652 136 CURVE",
"634 316 LINE",
"564 306 LINE",
"586 132 LINE",
"601 84 LINE",
"605 84 LINE",
"605 80 LINE",
"639 13 OFFCURVE",
"692 0 OFFCURVE",
"742 0 CURVE SMOOTH",
"770 0 LINE SMOOTH"
);
}
);
};
components = (
{
name = "behDotless-ar.fina";
},
{
name = "dotbelow-ar";
transform = "{1, 0, 0, 1, 48, -60}";
}
);
layerId = "4BB9E86A-2C6D-49F0-A7F5-5EF670F2F4E4";
width = 786;
},
{
anchors = (
{
name = bottom;
position = "{384, -2}";
},
{
name = top;
position = "{384, 380}";
}
);
background = {
paths = (
{
closed = 1;
nodes = (
"542 317 LINE",
"565 374 LINE",
"578 325 OFFCURVE",
"595 249 OFFCURVE",
"595 185 CURVE SMOOTH",
"595 166 OFFCURVE",
"592 149 OFFCURVE",
"589 137 CURVE",
"554 95 OFFCURVE",
"405 78 OFFCURVE",
"330 78 CURVE SMOOTH",
"168 78 OFFCURVE",
"89 117 OFFCURVE",
"89 224 CURVE SMOOTH",
"89 260 OFFCURVE",
"99 305 OFFCURVE",
"117 358 CURVE",
"143 333 LINE",
"28 333 LINE",
"71 358 LINE",
"44 291 OFFCURVE",
"30 233 OFFCURVE",
"30 185 CURVE SMOOTH",
"30 61 OFFCURVE",
"119 -2 OFFCURVE",
"299 -2 CURVE SMOOTH",
"551 -2 OFFCURVE",
"660 56 OFFCURVE",
"660 227 CURVE SMOOTH",
"660 272 OFFCURVE",
"652 324 OFFCURVE",
"638 385 CURVE",
"678 374 LINE"
);
},
{
closed = 1;
nodes = (
"775 0 OFFCURVE",
"780 5 OFFCURVE",
"780 10 CURVE SMOOTH",
"780 70 LINE SMOOTH",
"780 75 OFFCURVE",
"775 80 OFFCURVE",
"770 80 CURVE SMOOTH",
"742 80 LINE SMOOTH",
"701 80 OFFCURVE",
"671 101 OFFCURVE",
"652 136 CURVE",
"634 316 LINE",
"564 306 LINE",
"586 132 LINE",
"601 84 LINE",
"605 84 LINE",
"605 80 LINE",
"639 13 OFFCURVE",
"692 0 OFFCURVE",
"742 0 CURVE SMOOTH",
"770 0 LINE SMOOTH"
);
}
);
};
components = (
{
name = "behDotless-ar.fina";
},
{
name = "dotbelow-ar";
transform = "{1, 0, 0, 1, 84, -60}";
}
);
layerId = "F3D5F3BC-0862-4A52-BCBD-22F0EED7FFB2";
width = 867;
}
);
note = "حطي قسمن";
unicode = FE90;
},
{
color = 10;
glyphname = "uniFBE9-ar.medi";
lastChange = "2020-04-26 11:02:31 +0000";
layers = (
{
background = {
paths = (
{
closed = 1;
nodes = (
"292 86 LINE SMOOTH",
"244 86 OFFCURVE",
"202 111 OFFCURVE",
"197 159 CURVE",
"177 415 LINE",
"218 345 LINE",
"68 345 LINE",
"105 372 LINE",
"124 135 LINE",
"91 97 OFFCURVE",
"56 86 OFFCURVE",
"-16 86 CURVE SMOOTH",
"-22 86 OFFCURVE",
"-27 80 OFFCURVE",
"-27 75 CURVE SMOOTH",
"-27 11 LINE SMOOTH",
"-27 5 OFFCURVE",
"-22 0 OFFCURVE",
"-16 0 CURVE SMOOTH",
"7 0 LINE SMOOTH",
"77 0 OFFCURVE",
"123 30 OFFCURVE",
"153 65 CURVE",
"153 70 LINE",
"157 70 LINE",
"157 65 LINE",
"193 14 OFFCURVE",
"237 0 OFFCURVE",
"284 0 CURVE SMOOTH",
"304 0 LINE SMOOTH",
"309 0 OFFCURVE",
"314 5 OFFCURVE",
"314 11 CURVE SMOOTH",
"314 75 LINE SMOOTH",
"314 80 OFFCURVE",
"309 86 OFFCURVE",
"304 86 CURVE SMOOTH"
);
}
);
};
layerId = "4BB9E86A-2C6D-49F0-A7F5-5EF670F2F4E4";
paths = (
{
closed = 1;
nodes = (
"135 119 LINE",
"100 76 OFFCURVE",
"73 62 OFFCURVE",
"-5 62 CURVE SMOOTH",
"-11 62 OFFCURVE",
"-15 58 OFFCURVE",
"-15 52 CURVE SMOOTH",
"-15 10 LINE SMOOTH",
"-15 4 OFFCURVE",
"-11 0 OFFCURVE",
"-5 0 CURVE SMOOTH",
"15 0 LINE SMOOTH",
"70 0 OFFCURVE",
"121 27 OFFCURVE",
"153 65 CURVE",
"153 69 LINE",
"157 69 LINE",
"157 65 LINE",
"184 26 OFFCURVE",
"226 0 OFFCURVE",
"276 0 CURVE SMOOTH",
"294 0 LINE SMOOTH",
"300 0 OFFCURVE",
"304 4 OFFCURVE",
"304 10 CURVE SMOOTH",
"304 52 LINE SMOOTH",
"304 58 OFFCURVE",
"300 62 OFFCURVE",
"294 62 CURVE SMOOTH",
"290 62 LINE SMOOTH",
"231 62 OFFCURVE",
"192 95 OFFCURVE",
"188 146 CURVE SMOOTH",
"174 322 LINE",
"119 318 LINE"
);
}
);
width = 289;
},
{
background = {
paths = (
{
closed = 1;
nodes = (
"360 80 LINE SMOOTH",
"315 80 OFFCURVE",
"276 104 OFFCURVE",
"271 149 CURVE",
"253 388 LINE",
"291 342 LINE",
"151 322 LINE",
"185 348 LINE",
"206 126 LINE",
"173 93 OFFCURVE",
"97 80 OFFCURVE",
"32 80 CURVE SMOOTH",
"27 80 OFFCURVE",
"22 75 OFFCURVE",
"22 70 CURVE SMOOTH",
"22 10 LINE SMOOTH",
"22 5 OFFCURVE",
"27 0 OFFCURVE",
"32 0 CURVE SMOOTH",
"54 0 LINE SMOOTH",
"149 0 OFFCURVE",
"202 28 OFFCURVE",
"230 61 CURVE",
"230 65 LINE",
"234 65 LINE",
"234 61 LINE",
"268 13 OFFCURVE",
"309 0 OFFCURVE",
"353 0 CURVE SMOOTH",
"371 0 LINE SMOOTH",
"376 0 OFFCURVE",
"381 5 OFFCURVE",
"381 10 CURVE SMOOTH",
"381 70 LINE SMOOTH",
"381 75 OFFCURVE",
"376 80 OFFCURVE",
"371 80 CURVE SMOOTH"
);
}
);
};
layerId = "F3D5F3BC-0862-4A52-BCBD-22F0EED7FFB2";
paths = (
{
closed = 1;
nodes = (
"139 165 LINE",
"113 138 OFFCURVE",
"58 130 OFFCURVE",
"-5 130 CURVE SMOOTH",
"-11 130 OFFCURVE",
"-15 125 OFFCURVE",
"-15 120 CURVE SMOOTH",
"-15 10 LINE SMOOTH",
"-15 4 OFFCURVE",
"-11 0 OFFCURVE",
"-5 0 CURVE SMOOTH",
"31 0 LINE SMOOTH",
"95 0 OFFCURVE",
"145 21 OFFCURVE",
"181 56 CURVE",
"181 60 LINE",
"185 60 LINE",
"185 56 LINE",
"215 17 OFFCURVE",
"263 0 OFFCURVE",
"318 0 CURVE SMOOTH",
"360 0 LINE SMOOTH",
"366 0 OFFCURVE",
"370 4 OFFCURVE",
"370 10 CURVE SMOOTH",
"370 120 LINE SMOOTH",
"370 126 OFFCURVE",
"366 130 OFFCURVE",
"360 130 CURVE SMOOTH",
"326 130 LINE SMOOTH",
"284 130 OFFCURVE",
"251 151 OFFCURVE",
"248 183 CURVE SMOOTH",
"231 384 LINE",
"121 376 LINE"
);
}
);
width = 355;
}
);
leftMetricsKey = "=-15";
rightMetricsKey = "=-15";
unicode = FBE9;
script = arabic;
category = Letter;
},
{
color = 10;
glyphname = "uniFBE8-ar.init";
lastChange = "2020-04-22 11:08:02 +0000";
layers = (
{
background = {
paths = (
{
closed = 1;
nodes = (
"-11 0 OFFCURVE",
"10 0 OFFCURVE",
"18 0 CURVE",
"198 15 OFFCURVE",
"212 117 OFFCURVE",
"212 159 CURVE SMOOTH",
"212 228 OFFCURVE",
"190 335 OFFCURVE",
"175 400 CURVE",
"228 345 LINE",
"76 345 LINE",
"98 388 LINE",
"120 307 OFFCURVE",
"144 212 OFFCURVE",
"144 135 CURVE",
"111 97 OFFCURVE",
"73 86 OFFCURVE",
"-2 86 CURVE SMOOTH",
"-7 86 OFFCURVE",
"-12 86 OFFCURVE",
"-16 86 CURVE SMOOTH",
"-22 86 OFFCURVE",
"-27 80 OFFCURVE",
"-27 75 CURVE SMOOTH",
"-27 11 LINE SMOOTH",
"-27 5 OFFCURVE",
"-22 0 OFFCURVE",
"-16 0 CURVE SMOOTH"
);
}
);
};
layerId = "4BB9E86A-2C6D-49F0-A7F5-5EF670F2F4E4";
paths = (
{
closed = 1;
nodes = (
"138 253 OFFCURVE",
"152 185 OFFCURVE",
"152 123 CURVE",
"115 77 OFFCURVE",
"86 62 OFFCURVE",
"-1 62 CURVE SMOOTH",
"-2 62 OFFCURVE",
"0 62 OFFCURVE",
"-5 62 CURVE SMOOTH",
"-11 62 OFFCURVE",
"-15 58 OFFCURVE",
"-15 52 CURVE SMOOTH",
"-15 10 LINE SMOOTH",
"-15 4 OFFCURVE",
"-11 0 OFFCURVE",
"-5 0 CURVE SMOOTH",
"1 0 OFFCURVE",
"9 0 OFFCURVE",
"14 0 CURVE SMOOTH",
"124 0 OFFCURVE",
"201 54 OFFCURVE",
"201 140 CURVE SMOOTH",
"201 189 OFFCURVE",
"189 262 OFFCURVE",
"177 322 CURVE",
"121 318 LINE"
);
}
);
width = 236;
},
{
background = {
paths = (
{
closed = 1;
nodes = (
"319 80 LINE SMOOTH",
"274 80 OFFCURVE",
"235 104 OFFCURVE",
"230 149 CURVE",
"212 388 LINE",
"250 322 LINE",
"110 322 LINE",
"144 348 LINE",
"162 126 LINE",
"131 91 OFFCURVE",
"99 80 OFFCURVE",
"31 80 CURVE SMOOTH",
"26 80 OFFCURVE",
"21 75 OFFCURVE",
"21 70 CURVE SMOOTH",
"21 10 LINE SMOOTH",
"21 5 OFFCURVE",
"26 0 OFFCURVE",
"31 0 CURVE SMOOTH",
"53 0 LINE SMOOTH",
"118 0 OFFCURVE",
"161 28 OFFCURVE",
"189 61 CURVE",
"189 65 LINE",
"193 65 LINE",
"193 61 LINE",
"227 13 OFFCURVE",
"268 0 OFFCURVE",
"312 0 CURVE SMOOTH",
"330 0 LINE SMOOTH",
"335 0 OFFCURVE",
"340 5 OFFCURVE",
"340 10 CURVE SMOOTH",
"340 70 LINE SMOOTH",
"340 75 OFFCURVE",
"335 80 OFFCURVE",
"330 80 CURVE SMOOTH"
);
}
);
};
layerId = "F3D5F3BC-0862-4A52-BCBD-22F0EED7FFB2";
paths = (
{
closed = 1;
nodes = (
"138 300 OFFCURVE",
"156 237 OFFCURVE",
"156 175 CURVE",
"130 148 OFFCURVE",
"96 130 OFFCURVE",
"28 130 CURVE SMOOTH",
"24 130 OFFCURVE",
"0 130 OFFCURVE",
"-5 130 CURVE SMOOTH",
"-11 130 OFFCURVE",
"-15 126 OFFCURVE",
"-15 120 CURVE SMOOTH",
"-15 10 LINE SMOOTH",
"-15 4 OFFCURVE",
"-11 0 OFFCURVE",
"-5 0 CURVE SMOOTH",
"1 0 OFFCURVE",
"40 0 OFFCURVE",
"48 0 CURVE SMOOTH",
"184 11 OFFCURVE",
"256 72 OFFCURVE",
"256 178 CURVE SMOOTH",
"256 227 OFFCURVE",
"246 299 OFFCURVE",
"228 383 CURVE",
"115 375 LINE"
);
}
);
width = 291;
}
);
leftMetricsKey = "=-15";
rightMetricsKey = "=35";
unicode = FBE8;
script = arabic;
category = Letter;
},
{
glyphname = "teh-ar.fina";
lastChange = "2020-05-08 08:30:16 +0000";
layers = (
{
anchors = (
{
name = bottom;
position = "{356, 0}";
},
{
name = top;
position = "{356, 380}";
}
);
background = {
paths = (
{
closed = 1;
nodes = (
"590 144 LINE",
"560 93 OFFCURVE",
"418 78 OFFCURVE",
"331 78 CURVE SMOOTH",
"188 78 OFFCURVE",
"90 131 OFFCURVE",
"90 229 CURVE SMOOTH",
"90 259 OFFCURVE",
"97 294 OFFCURVE",
"109 333 CURVE",
"62 333 LINE",
"44 282 OFFCURVE",
"30 238 OFFCURVE",
"30 197 CURVE SMOOTH",
"30 60 OFFCURVE",
"165 -2 OFFCURVE",
"337 -2 CURVE SMOOTH",
"422 -2 OFFCURVE",
"537 16 OFFCURVE",
"601 80 CURVE",
"601 84 LINE",
"605 84 LINE",
"610 90 LINE"
);
},
{
closed = 1;
nodes = (
"775 0 OFFCURVE",
"780 5 OFFCURVE",
"780 10 CURVE SMOOTH",
"780 70 LINE SMOOTH",
"780 75 OFFCURVE",
"775 80 OFFCURVE",
"770 80 CURVE SMOOTH",
"742 80 LINE SMOOTH",
"701 80 OFFCURVE",
"671 101 OFFCURVE",
"652 136 CURVE",
"634 316 LINE",
"564 306 LINE",
"586 132 LINE",
"601 84 LINE",
"605 84 LINE",
"605 80 LINE",
"639 13 OFFCURVE",
"692 0 OFFCURVE",
"742 0 CURVE SMOOTH",
"770 0 LINE SMOOTH"
);
}
);
};
components = (
{
name = "behDotless-ar.fina";
},
{
name = "twodotshorizontalabove-ar";
transform = "{1, 0, 0, 1, 56, 4}";
}
);
layerId = "4BB9E86A-2C6D-49F0-A7F5-5EF670F2F4E4";
width = 786;
},
{
anchors = (
{
name = bottom;
position = "{381, 0}";
},
{
name = top;
position = "{381, 380}";
}
);
background = {
paths = (
{
closed = 1;
nodes = (
"590 144 LINE",
"560 93 OFFCURVE",
"418 78 OFFCURVE",
"331 78 CURVE SMOOTH",
"188 78 OFFCURVE",
"90 131 OFFCURVE",
"90 229 CURVE SMOOTH",
"90 259 OFFCURVE",
"97 294 OFFCURVE",
"109 333 CURVE",
"62 333 LINE",
"44 282 OFFCURVE",
"30 238 OFFCURVE",
"30 197 CURVE SMOOTH",
"30 60 OFFCURVE",
"165 -2 OFFCURVE",
"337 -2 CURVE SMOOTH",
"422 -2 OFFCURVE",
"537 16 OFFCURVE",
"601 80 CURVE",
"601 84 LINE",
"605 84 LINE",
"610 90 LINE"
);
},
{
closed = 1;
nodes = (
"775 0 OFFCURVE",
"780 5 OFFCURVE",
"780 10 CURVE SMOOTH",
"780 70 LINE SMOOTH",
"780 75 OFFCURVE",
"775 80 OFFCURVE",
"770 80 CURVE SMOOTH",
"742 80 LINE SMOOTH",
"701 80 OFFCURVE",
"671 101 OFFCURVE",
"652 136 CURVE",
"634 316 LINE",
"564 306 LINE",
"586 132 LINE",
"601 84 LINE",
"605 84 LINE",
"605 80 LINE",
"639 13 OFFCURVE",
"692 0 OFFCURVE",
"742 0 CURVE SMOOTH",
"770 0 LINE SMOOTH"
);
}
);
};
components = (
{
name = "behDotless-ar.fina";
},
{
name = "twodotshorizontalabove-ar";
transform = "{1, 0, 0, 1, 81, 4}";
}
);
layerId = "F3D5F3BC-0862-4A52-BCBD-22F0EED7FFB2";
width = 867;
}
);
note = "حطي قسمن";
unicode = FE96;
},
{
glyphname = "theh-ar.fina";
lastChange = "2020-05-08 08:30:20 +0000";
layers = (
{
anchors = (
{
name = bottom;
position = "{358, 0}";
},
{
name = top;
position = "{358, 380}";
}
);
background = {
paths = (
{
closed = 1;
nodes = (
"590 144 LINE",
"560 93 OFFCURVE",
"418 78 OFFCURVE",
"331 78 CURVE SMOOTH",
"188 78 OFFCURVE",
"90 131 OFFCURVE",
"90 229 CURVE SMOOTH",
"90 259 OFFCURVE",
"97 294 OFFCURVE",
"109 333 CURVE",
"62 333 LINE",
"44 282 OFFCURVE",
"30 238 OFFCURVE",
"30 197 CURVE SMOOTH",
"30 60 OFFCURVE",
"165 -2 OFFCURVE",
"337 -2 CURVE SMOOTH",
"422 -2 OFFCURVE",
"537 16 OFFCURVE",
"601 80 CURVE",
"601 84 LINE",
"605 84 LINE",
"610 90 LINE"
);
},
{
closed = 1;
nodes = (
"760 0 OFFCURVE",
"765 5 OFFCURVE",
"765 10 CURVE SMOOTH",
"765 70 LINE SMOOTH",
"765 75 OFFCURVE",
"760 80 OFFCURVE",
"755 80 CURVE SMOOTH",
"742 80 LINE SMOOTH",
"701 80 OFFCURVE",
"671 101 OFFCURVE",
"652 136 CURVE",
"634 316 LINE",
"564 306 LINE",
"586 132 LINE",
"601 84 LINE",
"605 84 LINE",
"605 80 LINE",
"639 13 OFFCURVE",
"692 0 OFFCURVE",
"742 0 CURVE SMOOTH",
"755 0 LINE SMOOTH"
);
}
);
};
components = (
{
name = "behDotless-ar.fina";
},
{
name = "threedotsupabove-ar";
transform = "{-1, 0, 0, 1, 658, -195}";
}
);
layerId = "4BB9E86A-2C6D-49F0-A7F5-5EF670F2F4E4";
width = 786;
},
{
anchors = (
{
name = bottom;
position = "{387, 0}";
},
{
name = top;
position = "{387, 380}";
}
);
background = {
paths = (
{
closed = 1;
nodes = (
"590 144 LINE",
"560 93 OFFCURVE",
"418 78 OFFCURVE",
"331 78 CURVE SMOOTH",
"188 78 OFFCURVE",
"90 131 OFFCURVE",
"90 229 CURVE SMOOTH",
"90 259 OFFCURVE",
"97 294 OFFCURVE",
"109 333 CURVE",
"62 333 LINE",
"44 282 OFFCURVE",
"30 238 OFFCURVE",
"30 197 CURVE SMOOTH",
"30 60 OFFCURVE",
"165 -2 OFFCURVE",
"337 -2 CURVE SMOOTH",
"422 -2 OFFCURVE",
"537 16 OFFCURVE",
"601 80 CURVE",
"601 84 LINE",
"605 84 LINE",
"610 90 LINE"
);
},
{
closed = 1;
nodes = (
"760 0 OFFCURVE",
"765 5 OFFCURVE",
"765 10 CURVE SMOOTH",
"765 70 LINE SMOOTH",
"765 75 OFFCURVE",
"760 80 OFFCURVE",
"755 80 CURVE SMOOTH",
"742 80 LINE SMOOTH",
"701 80 OFFCURVE",
"671 101 OFFCURVE",
"652 136 CURVE",
"634 316 LINE",
"564 306 LINE",
"586 132 LINE",
"601 84 LINE",
"605 84 LINE",
"605 80 LINE",
"639 13 OFFCURVE",
"692 0 OFFCURVE",
"742 0 CURVE SMOOTH",
"755 0 LINE SMOOTH"
);
}
);
};
components = (
{
name = "behDotless-ar.fina";
},
{
name = "threedotsupabove-ar";
transform = "{-1, 0, 0, 1, 687, -195}";
}
);
layerId = "F3D5F3BC-0862-4A52-BCBD-22F0EED7FFB2";
width = 867;
}
);
note = "حطي قسمن";
unicode = FE9A;
},
{
glyphname = "jeem-ar.medi";
lastChange = "2020-05-06 09:34:51 +0000";
layers = (
{
anchors = (
{
name = bottom;
position = "{378, 0}";
},
{
name = top;
position = "{378, 380}";
}
);
background = {
paths = (
{
closed = 1;
nodes = (
"2 0 LINE SMOOTH",
"203 0 OFFCURVE",
"298 59 OFFCURVE",
"379 110 CURVE SMOOTH",
"398 122 OFFCURVE",
"416 131 OFFCURVE",
"436 139 CURVE",
"436 162 LINE",
"472 162 LINE",
"472 126 LINE",
"462 126 LINE",
"474 93 LINE SMOOTH",
"494 40 OFFCURVE",
"539 1 OFFCURVE",
"610 1 CURVE SMOOTH",
"634 1 LINE",
"634 81 LINE",
"610 81 LINE SMOOTH",
"571 81 OFFCURVE",
"556 103 OFFCURVE",
"546 128 CURVE SMOOTH",
"541 141 LINE",
"515 141 LINE",
"515 177 LINE",
"551 177 LINE",
"551 161 LINE",
"565 162 OFFCURVE",
"579 163 OFFCURVE",
"594 163 CURVE SMOOTH",
"600 163 OFFCURVE",
"606 163 OFFCURVE",
"613 162 CURVE",
"634 237 LINE",
"542 237 OFFCURVE",
"477 279 OFFCURVE",
"414 320 CURVE SMOOTH",
"351 361 OFFCURVE",
"289 381 OFFCURVE",
"202 381 CURVE SMOOTH",
"132 381 OFFCURVE",
"76 356 OFFCURVE",
"35 335 CURVE",
"69 271 LINE",
"103 288 OFFCURVE",
"142 305 OFFCURVE",
"202 305 CURVE SMOOTH",
"274 305 OFFCURVE",
"330 289 OFFCURVE",
"388 249 CURVE SMOOTH",
"397 243 LINE",
"433 243 LINE",
"433 207 LINE",
"397 207 LINE",
"381 200 OFFCURVE",
"365 192 OFFCURVE",
"350 182 CURVE SMOOTH",
"272 132 OFFCURVE",
"189 80 OFFCURVE",
"1 80 CURVE SMOOTH",
"-20 80 LINE",
"-20 0 LINE"
);
},
{
closed = 1;
nodes = (
"445 -102 LINE",
"379 -36 LINE",
"315 -102 LINE",
"379 -166 LINE"
);
}
);
};
components = (
{
name = "hah-ar.medi";
},
{
name = "dotbelow-ar";
transform = "{1, 0, 0, 1, 78, 0}";
}
);
layerId = "4BB9E86A-2C6D-49F0-A7F5-5EF670F2F4E4";
width = 648;
},
{
anchors = (
{
name = bottom;
position = "{378, 0}";
},
{
name = top;
position = "{378, 380}";
}
);
background = {
paths = (
{
closed = 1;
nodes = (
"2 0 LINE SMOOTH",
"203 0 OFFCURVE",
"298 59 OFFCURVE",
"379 110 CURVE SMOOTH",
"398 122 OFFCURVE",
"416 131 OFFCURVE",
"436 139 CURVE",
"436 162 LINE",
"472 162 LINE",
"472 126 LINE",
"462 126 LINE",
"474 93 LINE SMOOTH",
"494 40 OFFCURVE",
"539 1 OFFCURVE",
"610 1 CURVE SMOOTH",
"634 1 LINE",
"634 81 LINE",
"610 81 LINE SMOOTH",
"571 81 OFFCURVE",
"556 103 OFFCURVE",
"546 128 CURVE SMOOTH",
"541 141 LINE",
"515 141 LINE",
"515 177 LINE",
"551 177 LINE",
"551 161 LINE",
"565 162 OFFCURVE",
"579 163 OFFCURVE",
"594 163 CURVE SMOOTH",
"600 163 OFFCURVE",
"606 163 OFFCURVE",
"613 162 CURVE",
"634 237 LINE",
"542 237 OFFCURVE",
"477 279 OFFCURVE",
"414 320 CURVE SMOOTH",
"351 361 OFFCURVE",
"289 381 OFFCURVE",
"202 381 CURVE SMOOTH",
"132 381 OFFCURVE",
"76 356 OFFCURVE",
"35 335 CURVE",
"69 271 LINE",
"103 288 OFFCURVE",
"142 305 OFFCURVE",
"202 305 CURVE SMOOTH",
"274 305 OFFCURVE",
"330 289 OFFCURVE",
"388 249 CURVE SMOOTH",
"397 243 LINE",
"433 243 LINE",
"433 207 LINE",
"397 207 LINE",
"381 200 OFFCURVE",
"365 192 OFFCURVE",
"350 182 CURVE SMOOTH",
"272 132 OFFCURVE",
"189 80 OFFCURVE",
"1 80 CURVE SMOOTH",
"-20 80 LINE",
"-20 0 LINE"
);
},
{
closed = 1;
nodes = (
"445 -102 LINE",
"379 -36 LINE",
"315 -102 LINE",
"379 -166 LINE"
);
}
);
};
components = (
{
name = "hah-ar.medi";
},
{
name = "dotbelow-ar";
transform = "{1, 0, 0, 1, 78, 0}";
}
);
layerId = "F3D5F3BC-0862-4A52-BCBD-22F0EED7FFB2";
width = 711;
}
);
note = "حطي قسمن";
unicode = FEA0;
},
{
color = 10;
glyphname = "hah-ar";
lastChange = "2020-05-08 08:30:43 +0000";
layers = (
{
background = {
paths = (
{
closed = 1;
nodes = (
"554 -282 OFFCURVE",
"451 -295 OFFCURVE",
"390 -295 CURVE SMOOTH",
"202 -295 OFFCURVE",
"103 -221 OFFCURVE",
"103 -85 CURVE SMOOTH",
"103 38 OFFCURVE",
"244 135 OFFCURVE",
"451 176 CURVE SMOOTH",
"493 184 OFFCURVE",
"553 185 OFFCURVE",
"601 185 CURVE",
"601 240 LINE",
"446 231 LINE",
"187 179 OFFCURVE",
"46 58 OFFCURVE",
"46 -104 CURVE SMOOTH",
"46 -253 OFFCURVE",
"182 -357 OFFCURVE",
"373 -357 CURVE SMOOTH",
"457 -357 OFFCURVE",
"560 -342 OFFCURVE",
"615 -320 CURVE",
"605 -346 LINE",
"605 -241 LINE",
"618 -259 LINE"
);
},
{
closed = 1;
nodes = (
"600 195 LINE",
"600 240 LINE",
"532 240 OFFCURVE",
"446 285 OFFCURVE",
"389 318 CURVE SMOOTH",
"329 353 OFFCURVE",
"260 384 OFFCURVE",
"187 384 CURVE SMOOTH",
"91 384 OFFCURVE",
"33 331 OFFCURVE",
"28 231 CURVE",
"8 252 LINE",
"104 252 LINE",
"84 233 LINE",
"86 294 OFFCURVE",
"121 326 OFFCURVE",
"187 326 CURVE SMOOTH",
"234 326 OFFCURVE",
"298 310 OFFCURVE",
"363 274 CURVE SMOOTH",
"470 215 OFFCURVE",
"516 195 OFFCURVE",
"592 195 CURVE SMOOTH"
);
}
);
};
guideLines = (
{
angle = 90;
position = "{580, -261}";
}
);
layerId = "4BB9E86A-2C6D-49F0-A7F5-5EF670F2F4E4";
paths = (
{
closed = 1;
nodes = (
"457 -357 OFFCURVE",
"560 -342 OFFCURVE",
"615 -320 CURVE",
"605 -346 LINE",
"605 -241 LINE",
"618 -259 LINE",
"554 -282 OFFCURVE",
"451 -295 OFFCURVE",
"390 -295 CURVE SMOOTH",
"202 -295 OFFCURVE",
"103 -215 OFFCURVE",
"103 -96 CURVE SMOOTH",
"103 44 OFFCURVE",
"244 135 OFFCURVE",
"451 176 CURVE SMOOTH",
"493 184 OFFCURVE",
"553 185 OFFCURVE",
"601 185 CURVE",
"601 240 LINE",
"532 240 OFFCURVE",
"446 285 OFFCURVE",
"389 318 CURVE SMOOTH",
"329 353 OFFCURVE",
"260 384 OFFCURVE",
"187 384 CURVE SMOOTH",
"92 384 OFFCURVE",
"35 332 OFFCURVE",
"28 234 CURVE",
"8 252 LINE",
"108 252 LINE",
"84 235 LINE",
"87 295 OFFCURVE",
"122 326 OFFCURVE",
"187 326 CURVE SMOOTH",
"234 326 OFFCURVE",
"298 310 OFFCURVE",
"363 274 CURVE SMOOTH",
"393 257 OFFCURVE",
"418 245 OFFCURVE",
"440 234 CURVE",
"444 234 LINE",
"444 230 LINE",
"440 230 LINE",
"185 177 OFFCURVE",
"46 57 OFFCURVE",
"46 -100 CURVE SMOOTH",
"46 -253 OFFCURVE",
"182 -357 OFFCURVE",
"373 -357 CURVE SMOOTH"
);
}
);
width = 648;
},
{
background = {
paths = (
{
closed = 1;
nodes = (
"651 -212 OFFCURVE",
"524 -234 OFFCURVE",
"435 -234 CURVE SMOOTH",
"263 -234 OFFCURVE",
"173 -174 OFFCURVE",
"173 -58 CURVE SMOOTH",
"173 45 OFFCURVE",
"304 136 OFFCURVE",
"495 177 CURVE SMOOTH",
"569 193 OFFCURVE",
"584 193 OFFCURVE",
"678 193 CURVE",
"678 292 LINE",
"474 289 LINE",
"217 238 OFFCURVE",
"63 102 OFFCURVE",
"63 -77 CURVE SMOOTH",
"63 -246 OFFCURVE",
"211 -364 OFFCURVE",
"418 -364 CURVE SMOOTH",
"520 -364 OFFCURVE",
"658 -338 OFFCURVE",
"707 -310 CURVE",
"678 -373 LINE",
"678 -143 LINE",
"712 -188 LINE"
);
},
{
closed = 1;
nodes = (
"678 202 LINE",
"678 308 LINE",
"597 308 OFFCURVE",
"519 345 OFFCURVE",
"454 382 CURVE SMOOTH",
"394 416 OFFCURVE",
"323 452 OFFCURVE",
"241 452 CURVE SMOOTH",
"110 452 OFFCURVE",
"30 359 OFFCURVE",
"40 213 CURVE",
"-9 257 LINE",
"207 257 LINE",
"161 209 LINE",
"147 287 OFFCURVE",
"177 332 OFFCURVE",
"242 332 CURVE SMOOTH",
"279 332 OFFCURVE",
"339 317 OFFCURVE",
"401 284 CURVE SMOOTH",
"522 220 OFFCURVE",
"560 202 OFFCURVE",
"643 202 CURVE SMOOTH"
);
}
);
};
guideLines = (
{
angle = 90;
position = "{590, -261}";
}
);
layerId = "F3D5F3BC-0862-4A52-BCBD-22F0EED7FFB2";
paths = (
{
closed = 1;
nodes = (
"515 -364 OFFCURVE",
"644 -340 OFFCURVE",
"699 -315 CURVE",
"678 -372 LINE",
"678 -150 LINE",
"703 -191 LINE",
"639 -213 OFFCURVE",
"520 -234 OFFCURVE",
"435 -234 CURVE SMOOTH",
"263 -234 OFFCURVE",
"173 -166 OFFCURVE",
"173 -67 CURVE SMOOTH",
"173 53 OFFCURVE",
"304 136 OFFCURVE",
"495 177 CURVE SMOOTH",
"569 193 OFFCURVE",
"584 193 OFFCURVE",
"678 193 CURVE",
"678 308 LINE",
"597 308 OFFCURVE",
"519 345 OFFCURVE",
"454 382 CURVE SMOOTH",
"394 416 OFFCURVE",
"323 452 OFFCURVE",
"241 452 CURVE SMOOTH",
"112 452 OFFCURVE",
"31 360 OFFCURVE",
"40 218 CURVE",
"-9 257 LINE",
"207 257 LINE",
"160 215 LINE",
"148 289 OFFCURVE",
"179 332 OFFCURVE",
"242 332 CURVE SMOOTH",
"274 332 OFFCURVE",
"321 319 OFFCURVE",
"361 303 CURVE SMOOTH",
"380 295 OFFCURVE",
"398 287 OFFCURVE",
"412 278 CURVE",
"415 278 LINE",
"415 274 LINE",
"411 274 LINE",
"192 215 OFFCURVE",
"63 86 OFFCURVE",
"63 -76 CURVE SMOOTH",
"63 -247 OFFCURVE",
"211 -364 OFFCURVE",
"418 -364 CURVE SMOOTH"
);
}
);
width = 721;
}
);
rightMetricsKey = "=43";
unicode = 062D;
},
{
color = 10;
glyphname = "hah-ar.fina";
lastChange = "2020-05-08 08:30:51 +0000";
layers = (
{
background = {
paths = (
{
closed = 1;
nodes = (
"653 0 LINE SMOOTH",
"659 0 OFFCURVE",
"663 4 OFFCURVE",
"663 10 CURVE SMOOTH",
"663 52 LINE SMOOTH",
"663 58 OFFCURVE",
"659 62 OFFCURVE",
"653 62 CURVE SMOOTH",
"633 62 LINE SMOOTH",
"595 62 OFFCURVE",
"553 63 OFFCURVE",
"538 111 CURVE SMOOTH",
"511 197 LINE",
"459 182 LINE",
"490 92 LINE SMOOTH",
"511 30 OFFCURVE",
"557 0 OFFCURVE",
"623 0 CURVE SMOOTH"
);
},
{
closed = 1;
nodes = (
"600 195 LINE",
"600 240 LINE",
"532 240 OFFCURVE",
"446 285 OFFCURVE",
"389 318 CURVE SMOOTH",
"329 353 OFFCURVE",
"260 384 OFFCURVE",
"187 384 CURVE SMOOTH",
"91 384 OFFCURVE",
"33 331 OFFCURVE",
"28 231 CURVE",
"8 252 LINE",
"104 252 LINE",
"84 233 LINE",
"86 294 OFFCURVE",
"121 326 OFFCURVE",
"187 326 CURVE SMOOTH",
"234 326 OFFCURVE",
"298 310 OFFCURVE",
"363 274 CURVE SMOOTH",
"470 215 OFFCURVE",
"516 195 OFFCURVE",
"592 195 CURVE SMOOTH"
);
},
{
closed = 1;
nodes = (
"554 -282 OFFCURVE",
"451 -295 OFFCURVE",
"390 -295 CURVE SMOOTH",
"202 -295 OFFCURVE",
"103 -215 OFFCURVE",
"103 -96 CURVE SMOOTH",
"103 44 OFFCURVE",
"244 135 OFFCURVE",
"451 176 CURVE SMOOTH",
"493 184 OFFCURVE",
"553 185 OFFCURVE",
"601 185 CURVE",
"601 240 LINE",
"446 231 LINE",
"187 179 OFFCURVE",
"46 58 OFFCURVE",
"46 -100 CURVE SMOOTH",
"46 -253 OFFCURVE",
"182 -357 OFFCURVE",
"373 -357 CURVE SMOOTH",
"457 -357 OFFCURVE",
"560 -342 OFFCURVE",
"615 -320 CURVE",
"605 -346 LINE",
"605 -241 LINE",
"618 -259 LINE"
);
}
);
};
layerId = "4BB9E86A-2C6D-49F0-A7F5-5EF670F2F4E4";
paths = (
{
closed = 1;
nodes = (
"595 62 OFFCURVE",
"553 63 OFFCURVE",
"538 111 CURVE SMOOTH",
"516 179 LINE",
"514 179 LINE",
"514 183 LINE",
"518 183 LINE",
"546 185 OFFCURVE",
"575 185 OFFCURVE",
"601 185 CURVE",
"601 240 LINE",
"532 240 OFFCURVE",
"446 285 OFFCURVE",
"389 318 CURVE SMOOTH",
"329 353 OFFCURVE",
"260 384 OFFCURVE",
"187 384 CURVE SMOOTH",
"92 384 OFFCURVE",
"35 332 OFFCURVE",
"28 234 CURVE",
"8 252 LINE",
"108 252 LINE",
"84 235 LINE",
"87 295 OFFCURVE",
"122 326 OFFCURVE",
"187 326 CURVE SMOOTH",
"234 326 OFFCURVE",
"298 310 OFFCURVE",
"363 274 CURVE SMOOTH",
"393 257 OFFCURVE",
"418 245 OFFCURVE",
"440 234 CURVE",
"444 234 LINE",
"444 230 LINE",
"440 230 LINE",
"185 177 OFFCURVE",
"46 57 OFFCURVE",
"46 -100 CURVE SMOOTH",
"46 -253 OFFCURVE",
"182 -357 OFFCURVE",
"373 -357 CURVE SMOOTH",
"457 -357 OFFCURVE",
"560 -342 OFFCURVE",
"615 -320 CURVE",
"605 -346 LINE",
"605 -241 LINE",
"618 -259 LINE",
"554 -282 OFFCURVE",
"451 -295 OFFCURVE",
"390 -295 CURVE SMOOTH",
"202 -295 OFFCURVE",
"103 -215 OFFCURVE",
"103 -96 CURVE SMOOTH",
"103 37 OFFCURVE",
"228 132 OFFCURVE",
"460 178 CURVE",
"464 178 LINE",
"464 174 LINE",
"462 174 LINE",
"490 92 LINE SMOOTH",
"511 30 OFFCURVE",
"557 0 OFFCURVE",
"623 0 CURVE SMOOTH",
"653 0 LINE SMOOTH",
"659 0 OFFCURVE",
"663 4 OFFCURVE",
"663 10 CURVE SMOOTH",
"663 52 LINE SMOOTH",
"663 58 OFFCURVE",
"659 62 OFFCURVE",
"653 62 CURVE SMOOTH",
"633 62 LINE SMOOTH"
);
}
);
width = 648;
},
{
background = {
paths = (
{
closed = 1;
nodes = (
"726 0 LINE SMOOTH",
"732 0 OFFCURVE",
"736 4 OFFCURVE",
"736 10 CURVE SMOOTH",
"736 120 LINE SMOOTH",
"736 126 OFFCURVE",
"732 130 OFFCURVE",
"726 130 CURVE SMOOTH",
"666 130 LINE SMOOTH",
"619 130 OFFCURVE",
"605 136 OFFCURVE",
"599 156 CURVE SMOOTH",
"582 210 LINE",
"473 176 LINE",
"495 115 LINE SMOOTH",
"522 39 OFFCURVE",
"577 0 OFFCURVE",
"656 0 CURVE SMOOTH"
);
},
{
closed = 1;
nodes = (
"678 202 LINE",
"678 308 LINE",
"597 308 OFFCURVE",
"519 345 OFFCURVE",
"454 382 CURVE SMOOTH",
"394 416 OFFCURVE",
"323 452 OFFCURVE",
"241 452 CURVE SMOOTH",
"110 452 OFFCURVE",
"30 359 OFFCURVE",
"40 213 CURVE",
"-9 257 LINE",
"207 257 LINE",
"161 209 LINE",
"147 287 OFFCURVE",
"177 332 OFFCURVE",
"242 332 CURVE SMOOTH",
"279 332 OFFCURVE",
"339 317 OFFCURVE",
"401 284 CURVE SMOOTH",
"522 220 OFFCURVE",
"560 202 OFFCURVE",
"643 202 CURVE SMOOTH"
);
},
{
closed = 1;
nodes = (
"651 -212 OFFCURVE",
"524 -234 OFFCURVE",
"435 -234 CURVE SMOOTH",
"263 -234 OFFCURVE",
"173 -166 OFFCURVE",
"173 -67 CURVE SMOOTH",
"173 53 OFFCURVE",
"304 136 OFFCURVE",
"495 177 CURVE SMOOTH",
"569 193 OFFCURVE",
"584 193 OFFCURVE",
"678 193 CURVE",
"678 292 LINE",
"474 289 LINE",
"217 238 OFFCURVE",
"63 101 OFFCURVE",
"63 -76 CURVE SMOOTH",
"63 -247 OFFCURVE",
"211 -364 OFFCURVE",
"418 -364 CURVE SMOOTH",
"520 -364 OFFCURVE",
"658 -338 OFFCURVE",
"707 -310 CURVE",
"678 -373 LINE",
"678 -143 LINE",
"712 -188 LINE"
);
}
);
};
layerId = "F3D5F3BC-0862-4A52-BCBD-22F0EED7FFB2";
paths = (
{
closed = 1;
nodes = (
"619 130 OFFCURVE",
"605 136 OFFCURVE",
"599 156 CURVE SMOOTH",
"589 188 LINE",
"587 188 LINE",
"587 192 LINE",
"591 192 LINE",
"613 193 OFFCURVE",
"636 193 OFFCURVE",
"678 193 CURVE",
"678 308 LINE",
"597 308 OFFCURVE",
"519 345 OFFCURVE",
"454 382 CURVE SMOOTH",
"394 416 OFFCURVE",
"323 452 OFFCURVE",
"241 452 CURVE SMOOTH",
"112 452 OFFCURVE",
"31 360 OFFCURVE",
"40 218 CURVE",
"-9 257 LINE",
"207 257 LINE",
"160 215 LINE",
"148 289 OFFCURVE",
"179 332 OFFCURVE",
"242 332 CURVE SMOOTH",
"274 332 OFFCURVE",
"321 319 OFFCURVE",
"361 303 CURVE SMOOTH",
"380 295 OFFCURVE",
"398 287 OFFCURVE",
"412 278 CURVE",
"415 278 LINE",
"415 274 LINE",
"411 274 LINE",
"192 215 OFFCURVE",
"63 86 OFFCURVE",
"63 -76 CURVE SMOOTH",
"63 -247 OFFCURVE",
"211 -364 OFFCURVE",
"418 -364 CURVE SMOOTH",
"515 -364 OFFCURVE",
"644 -340 OFFCURVE",
"699 -315 CURVE",
"678 -372 LINE",
"678 -150 LINE",
"703 -191 LINE",
"639 -213 OFFCURVE",
"520 -234 OFFCURVE",
"435 -234 CURVE SMOOTH",
"263 -234 OFFCURVE",
"173 -166 OFFCURVE",
"173 -67 CURVE SMOOTH",
"173 49 OFFCURVE",
"295 130 OFFCURVE",
"474 172 CURVE",
"478 172 LINE",
"478 168 LINE",
"476 168 LINE",
"495 115 LINE SMOOTH",
"522 38 OFFCURVE",
"577 0 OFFCURVE",
"656 0 CURVE SMOOTH",
"726 0 LINE SMOOTH",
"732 0 OFFCURVE",
"736 4 OFFCURVE",
"736 10 CURVE SMOOTH",
"736 120 LINE SMOOTH",
"736 126 OFFCURVE",
"732 130 OFFCURVE",
"726 130 CURVE SMOOTH",
"666 130 LINE SMOOTH"
);
}
);
width = 721;
}
);
rightMetricsKey = "=-15";
unicode = FEA2;
},
{
color = 10;
glyphname = "hah-ar.medi";
lastChange = "2020-05-06 10:19:21 +0000";
layers = (
{
background = {
paths = (
{
closed = 1;
nodes = (
"0 0 LINE SMOOTH",
"196 0 OFFCURVE",
"288 61 OFFCURVE",
"373 117 CURVE SMOOTH",
"435 158 OFFCURVE",
"500 185 OFFCURVE",
"595 185 CURVE SMOOTH",
"601 185 LINE",
"601 240 LINE",
"595 240 LINE SMOOTH",
"489 240 OFFCURVE",
"421 221 OFFCURVE",
"339 164 CURVE SMOOTH",
"285 126 OFFCURVE",
"190 62 OFFCURVE",
"0 62 CURVE SMOOTH",
"-5 62 LINE SMOOTH",
"-11 62 OFFCURVE",
"-15 58 OFFCURVE",
"-15 52 CURVE SMOOTH",
"-15 10 LINE SMOOTH",
"-15 4 OFFCURVE",
"-11 0 OFFCURVE",
"-5 0 CURVE SMOOTH"
);
},
{
closed = 1;
nodes = (
"600 195 LINE",
"600 240 LINE",
"532 240 OFFCURVE",
"446 285 OFFCURVE",
"389 318 CURVE SMOOTH",
"329 353 OFFCURVE",
"260 384 OFFCURVE",
"187 384 CURVE SMOOTH",
"91 384 OFFCURVE",
"33 331 OFFCURVE",
"28 231 CURVE",
"8 252 LINE",
"104 252 LINE",
"84 233 LINE",
"86 294 OFFCURVE",
"121 326 OFFCURVE",
"187 326 CURVE SMOOTH",
"234 326 OFFCURVE",
"298 310 OFFCURVE",
"363 274 CURVE SMOOTH",
"470 215 OFFCURVE",
"516 195 OFFCURVE",
"592 195 CURVE SMOOTH"
);
},
{
closed = 1;
nodes = (
"653 0 LINE SMOOTH",
"659 0 OFFCURVE",
"663 4 OFFCURVE",
"663 10 CURVE SMOOTH",
"663 52 LINE SMOOTH",
"663 58 OFFCURVE",
"659 62 OFFCURVE",
"653 62 CURVE SMOOTH",
"633 62 LINE SMOOTH",
"595 62 OFFCURVE",
"553 63 OFFCURVE",
"538 111 CURVE SMOOTH",
"516 181 LINE",
"464 166 LINE",
"490 92 LINE SMOOTH",
"512 30 OFFCURVE",
"557 0 OFFCURVE",
"623 0 CURVE SMOOTH"
);
}
);
};
layerId = "4BB9E86A-2C6D-49F0-A7F5-5EF670F2F4E4";
paths = (
{
closed = 1;
nodes = (
"595 62 OFFCURVE",
"553 63 OFFCURVE",
"538 111 CURVE SMOOTH",
"518 174 LINE",
"516 174 LINE",
"516 178 LINE",
"520 178 LINE",
"543 182 OFFCURVE",
"569 184 OFFCURVE",
"595 184 CURVE SMOOTH",
"601 184 LINE",
"601 240 LINE",
"532 240 OFFCURVE",
"446 285 OFFCURVE",
"389 318 CURVE SMOOTH",
"329 353 OFFCURVE",
"260 384 OFFCURVE",
"187 384 CURVE SMOOTH",
"92 384 OFFCURVE",
"35 332 OFFCURVE",
"28 234 CURVE",
"8 252 LINE",
"108 252 LINE",
"84 235 LINE",
"87 295 OFFCURVE",
"122 326 OFFCURVE",
"187 326 CURVE SMOOTH",
"234 326 OFFCURVE",
"298 310 OFFCURVE",
"363 274 CURVE SMOOTH",
"400 253 OFFCURVE",
"430 239 OFFCURVE",
"456 227 CURVE",
"460 227 LINE",
"460 223 LINE",
"456 223 LINE",
"417 211 OFFCURVE",
"379 192 OFFCURVE",
"339 164 CURVE SMOOTH",
"285 126 OFFCURVE",
"190 62 OFFCURVE",
"0 62 CURVE SMOOTH",
"-5 62 LINE SMOOTH",
"-11 62 OFFCURVE",
"-15 58 OFFCURVE",
"-15 52 CURVE SMOOTH",
"-15 10 LINE SMOOTH",
"-15 4 OFFCURVE",
"-11 0 OFFCURVE",
"-5 0 CURVE SMOOTH",
"0 0 LINE SMOOTH",
"196 0 OFFCURVE",
"288 61 OFFCURVE",
"373 117 CURVE SMOOTH",
"402 136 OFFCURVE",
"431 152 OFFCURVE",
"464 164 CURVE",
"468 164 LINE",
"468 160 LINE",
"466 160 LINE",
"490 92 LINE SMOOTH",
"512 30 OFFCURVE",
"557 0 OFFCURVE",
"623 0 CURVE SMOOTH",
"653 0 LINE SMOOTH",
"659 0 OFFCURVE",
"663 4 OFFCURVE",
"663 10 CURVE SMOOTH",
"663 52 LINE SMOOTH",
"663 58 OFFCURVE",
"659 62 OFFCURVE",
"653 62 CURVE SMOOTH",
"633 62 LINE SMOOTH"
);
}
);
width = 648;
},
{
background = {
paths = (
{
closed = 1;
nodes = (
"7 0 LINE SMOOTH",
"238 0 OFFCURVE",
"345 73 OFFCURVE",
"432 133 CURVE SMOOTH",
"502 181 OFFCURVE",
"561 193 OFFCURVE",
"639 193 CURVE SMOOTH",
"673 193 LINE",
"673 308 LINE",
"639 308 LINE SMOOTH",
"527 308 OFFCURVE",
"451 296 OFFCURVE",
"367 237 CURVE SMOOTH",
"310 197 OFFCURVE",
"214 130 OFFCURVE",
"7 130 CURVE SMOOTH",
"-5 130 LINE SMOOTH",
"-11 130 OFFCURVE",
"-15 126 OFFCURVE",
"-15 120 CURVE SMOOTH",
"-15 10 LINE SMOOTH",
"-15 4 OFFCURVE",
"-11 0 OFFCURVE",
"-5 0 CURVE SMOOTH"
);
},
{
closed = 1;
nodes = (
"668 202 LINE",
"668 308 LINE",
"587 308 OFFCURVE",
"509 345 OFFCURVE",
"444 382 CURVE SMOOTH",
"384 416 OFFCURVE",
"313 452 OFFCURVE",
"231 452 CURVE SMOOTH",
"100 452 OFFCURVE",
"20 359 OFFCURVE",
"30 213 CURVE",
"-19 257 LINE",
"197 257 LINE",
"151 209 LINE",
"137 287 OFFCURVE",
"167 332 OFFCURVE",
"232 332 CURVE SMOOTH",
"269 332 OFFCURVE",
"329 317 OFFCURVE",
"391 284 CURVE SMOOTH",
"512 220 OFFCURVE",
"550 202 OFFCURVE",
"633 202 CURVE SMOOTH"
);
},
{
closed = 1;
nodes = (
"716 0 LINE SMOOTH",
"722 0 OFFCURVE",
"726 4 OFFCURVE",
"726 10 CURVE SMOOTH",
"726 120 LINE SMOOTH",
"726 126 OFFCURVE",
"722 130 OFFCURVE",
"716 130 CURVE SMOOTH",
"656 130 LINE SMOOTH",
"609 130 OFFCURVE",
"595 136 OFFCURVE",
"589 156 CURVE SMOOTH",
"572 210 LINE",
"463 176 LINE",
"485 115 LINE SMOOTH",
"512 39 OFFCURVE",
"567 0 OFFCURVE",
"646 0 CURVE SMOOTH"
);
}
);
};
layerId = "F3D5F3BC-0862-4A52-BCBD-22F0EED7FFB2";
paths = (
{
closed = 1;
nodes = (
"609 130 OFFCURVE",
"596 136 OFFCURVE",
"589 156 CURVE SMOOTH",
"579 186 LINE",
"577 186 LINE",
"577 190 LINE",
"581 190 LINE",
"600 192 OFFCURVE",
"619 193 OFFCURVE",
"639 193 CURVE SMOOTH",
"673 193 LINE",
"673 308 LINE",
"587 308 OFFCURVE",
"509 345 OFFCURVE",
"444 382 CURVE SMOOTH",
"384 416 OFFCURVE",
"313 452 OFFCURVE",
"231 452 CURVE SMOOTH",
"102 452 OFFCURVE",
"21 360 OFFCURVE",
"30 218 CURVE",
"-19 257 LINE",
"197 257 LINE",
"150 215 LINE",
"138 289 OFFCURVE",
"169 332 OFFCURVE",
"232 332 CURVE SMOOTH",
"270 332 OFFCURVE",
"305 322 OFFCURVE",
"341 307 CURVE SMOOTH",
"365 297 OFFCURVE",
"398 281 OFFCURVE",
"416 271 CURVE",
"420 271 LINE",
"420 267 LINE",
"416 267 LINE",
"399 258 OFFCURVE",
"384 249 OFFCURVE",
"367 237 CURVE SMOOTH",
"310 197 OFFCURVE",
"214 130 OFFCURVE",
"7 130 CURVE SMOOTH",
"-5 130 LINE SMOOTH",
"-11 130 OFFCURVE",
"-15 126 OFFCURVE",
"-15 120 CURVE SMOOTH",
"-15 10 LINE SMOOTH",
"-15 4 OFFCURVE",
"-11 0 OFFCURVE",
"-5 0 CURVE SMOOTH",
"7 0 LINE SMOOTH",
"238 0 OFFCURVE",
"345 73 OFFCURVE",
"432 133 CURVE SMOOTH",
"445 142 OFFCURVE",
"457 150 OFFCURVE",
"469 156 CURVE",
"473 156 LINE",
"473 152 LINE",
"471 152 LINE",
"485 115 LINE SMOOTH",
"514 39 OFFCURVE",
"567 0 OFFCURVE",
"646 0 CURVE SMOOTH",
"716 0 LINE SMOOTH",
"722 0 OFFCURVE",
"726 4 OFFCURVE",
"726 10 CURVE SMOOTH",
"726 120 LINE SMOOTH",
"726 126 OFFCURVE",
"722 130 OFFCURVE",
"716 130 CURVE SMOOTH",
"656 130 LINE SMOOTH"
);
}
);
width = 711;
}
);
leftMetricsKey = "=-15";
note = "حطي قسمن";
rightMetricsKey = "=-15";
unicode = FEA4;
},
{
color = 10;
glyphname = "hah-ar.init";
lastChange = "2020-05-08 08:31:07 +0000";
layers = (
{
background = {
paths = (
{
closed = 1;
nodes = (
"0 0 LINE SMOOTH",
"196 0 OFFCURVE",
"288 61 OFFCURVE",
"373 117 CURVE SMOOTH",
"435 158 OFFCURVE",
"500 184 OFFCURVE",
"595 184 CURVE SMOOTH",
"601 184 LINE",
"601 240 LINE",
"595 240 LINE SMOOTH",
"489 240 OFFCURVE",
"421 221 OFFCURVE",
"339 164 CURVE SMOOTH",
"285 126 OFFCURVE",
"190 62 OFFCURVE",
"0 62 CURVE SMOOTH",
"-5 62 LINE SMOOTH",
"-11 62 OFFCURVE",
"-15 58 OFFCURVE",
"-15 52 CURVE SMOOTH",
"-15 10 LINE SMOOTH",
"-15 4 OFFCURVE",
"-11 0 OFFCURVE",
"-5 0 CURVE SMOOTH"
);
},
{
closed = 1;
nodes = (
"600 195 LINE",
"600 240 LINE",
"523 240 OFFCURVE",
"446 285 OFFCURVE",
"389 318 CURVE SMOOTH",
"329 353 OFFCURVE",
"270 384 OFFCURVE",
"184 384 CURVE SMOOTH",
"93 384 OFFCURVE",
"33 331 OFFCURVE",
"28 231 CURVE",
"8 252 LINE",
"104 252 LINE",
"84 233 LINE",
"86 294 OFFCURVE",
"125 326 OFFCURVE",
"184 326 CURVE SMOOTH",
"238 326 OFFCURVE",
"298 310 OFFCURVE",
"363 274 CURVE SMOOTH",
"470 215 OFFCURVE",
"516 195 OFFCURVE",
"592 195 CURVE SMOOTH"
);
}
);
};
guideLines = (
{
position = "{-212, 366}";
}
);
layerId = "4BB9E86A-2C6D-49F0-A7F5-5EF670F2F4E4";
paths = (
{
closed = 1;
nodes = (
"532 240 OFFCURVE",
"446 285 OFFCURVE",
"389 318 CURVE SMOOTH",
"329 353 OFFCURVE",
"260 384 OFFCURVE",
"187 384 CURVE SMOOTH",
"92 384 OFFCURVE",
"35 332 OFFCURVE",
"28 234 CURVE",
"8 252 LINE",
"108 252 LINE",
"84 235 LINE",
"87 295 OFFCURVE",
"122 326 OFFCURVE",
"187 326 CURVE SMOOTH",
"234 326 OFFCURVE",
"298 310 OFFCURVE",
"363 274 CURVE SMOOTH",
"400 253 OFFCURVE",
"430 239 OFFCURVE",
"456 227 CURVE",
"460 227 LINE",
"460 223 LINE",
"456 223 LINE",
"417 211 OFFCURVE",
"380 193 OFFCURVE",
"339 164 CURVE SMOOTH",
"285 126 OFFCURVE",
"190 62 OFFCURVE",
"0 62 CURVE SMOOTH",
"-5 62 LINE SMOOTH",
"-11 62 OFFCURVE",
"-15 58 OFFCURVE",
"-15 52 CURVE SMOOTH",
"-15 10 LINE SMOOTH",
"-15 4 OFFCURVE",
"-11 0 OFFCURVE",
"-5 0 CURVE SMOOTH",
"0 0 LINE SMOOTH",
"196 0 OFFCURVE",
"288 61 OFFCURVE",
"373 117 CURVE SMOOTH",
"435 158 OFFCURVE",
"500 184 OFFCURVE",
"595 184 CURVE SMOOTH",
"601 184 LINE",
"601 240 LINE"
);
}
);
width = 621;
},
{
background = {
paths = (
{
closed = 1;
nodes = (
"652 264 LINE",
"634 264 LINE SMOOTH",
"583 264 OFFCURVE",
"526 259 OFFCURVE",
"469 240 CURVE",
"469 236 LINE",
"465 236 LINE",
"440 228 OFFCURVE",
"403 208 OFFCURVE",
"371 186 CURVE SMOOTH",
"315 148 OFFCURVE",
"219 86 OFFCURVE",
"18 86 CURVE SMOOTH",
"12 86 OFFCURVE",
"7 80 OFFCURVE",
"7 75 CURVE SMOOTH",
"7 11 LINE SMOOTH",
"7 5 OFFCURVE",
"12 0 OFFCURVE",
"18 0 CURVE SMOOTH",
"233 0 OFFCURVE",
"331 62 OFFCURVE",
"418 118 CURVE SMOOTH",
"479 157 OFFCURVE",
"541 184 OFFCURVE",
"634 184 CURVE SMOOTH",
"652 184 LINE"
);
},
{
closed = 1;
nodes = (
"652 264 LINE",
"574 264 OFFCURVE",
"494 306 OFFCURVE",
"434 340 CURVE SMOOTH",
"374 374 OFFCURVE",
"312 408 OFFCURVE",
"223 408 CURVE SMOOTH",
"126 408 OFFCURVE",
"53 348 OFFCURVE",
"53 211 CURVE",
"14 249 LINE",
"162 249 LINE",
"129 226 LINE",
"129 300 OFFCURVE",
"171 327 OFFCURVE",
"230 327 CURVE SMOOTH",
"279 327 OFFCURVE",
"338 306 OFFCURVE",
"396 275 CURVE SMOOTH",
"436 254 OFFCURVE",
"460 243 OFFCURVE",
"465 241 CURVE",
"469 241 LINE",
"469 239 LINE",
"516 214 OFFCURVE",
"553 195 OFFCURVE",
"631 195 CURVE",
"644 195 LINE"
);
}
);
};
guideLines = (
{
position = "{-177, 366}";
}
);
layerId = "F3D5F3BC-0862-4A52-BCBD-22F0EED7FFB2";
paths = (
{
closed = 1;
nodes = (
"587 308 OFFCURVE",
"509 345 OFFCURVE",
"444 382 CURVE SMOOTH",
"384 416 OFFCURVE",
"313 452 OFFCURVE",
"231 452 CURVE SMOOTH",
"102 452 OFFCURVE",
"21 360 OFFCURVE",
"30 218 CURVE",
"-19 257 LINE",
"197 257 LINE",
"150 215 LINE",
"138 289 OFFCURVE",
"169 332 OFFCURVE",
"232 332 CURVE SMOOTH",
"270 332 OFFCURVE",
"305 322 OFFCURVE",
"341 307 CURVE SMOOTH",
"365 297 OFFCURVE",
"398 281 OFFCURVE",
"416 271 CURVE",
"420 271 LINE",
"420 267 LINE",
"416 267 LINE",
"399 258 OFFCURVE",
"384 249 OFFCURVE",
"367 237 CURVE SMOOTH",
"310 197 OFFCURVE",
"214 130 OFFCURVE",
"7 130 CURVE SMOOTH",
"-5 130 LINE SMOOTH",
"-11 130 OFFCURVE",
"-15 126 OFFCURVE",
"-15 120 CURVE SMOOTH",
"-15 10 LINE SMOOTH",
"-15 4 OFFCURVE",
"-11 0 OFFCURVE",
"-5 0 CURVE SMOOTH",
"7 0 LINE SMOOTH",
"238 0 OFFCURVE",
"345 73 OFFCURVE",
"432 133 CURVE SMOOTH",
"502 181 OFFCURVE",
"561 193 OFFCURVE",
"639 193 CURVE SMOOTH",
"673 193 LINE",
"673 308 LINE"
);
}
);
width = 703;
}
);
leftMetricsKey = "=-15";
note = "حطي قسمن";
unicode = FEA3;
},
{
glyphname = "khah-ar.medi";
lastChange = "2020-05-07 16:57:12 +0000";
layers = (
{
anchors = (
{
name = bottom;
position = "{305, 0}";
},
{
name = top;
position = "{305, 380}";
}
);
background = {
paths = (
{
closed = 1;
nodes = (
"-8 0 LINE SMOOTH",
"193 0 OFFCURVE",
"288 59 OFFCURVE",
"369 110 CURVE SMOOTH",
"388 122 OFFCURVE",
"406 131 OFFCURVE",
"426 139 CURVE",
"426 162 LINE",
"462 162 LINE",
"462 126 LINE",
"452 126 LINE",
"464 93 LINE SMOOTH",
"484 40 OFFCURVE",
"529 1 OFFCURVE",
"600 1 CURVE SMOOTH",
"624 1 LINE",
"624 81 LINE",
"600 81 LINE SMOOTH",
"561 81 OFFCURVE",
"546 103 OFFCURVE",
"536 128 CURVE SMOOTH",
"531 141 LINE",
"505 141 LINE",
"505 177 LINE",
"541 177 LINE",
"541 161 LINE",
"555 162 OFFCURVE",
"569 163 OFFCURVE",
"584 163 CURVE SMOOTH",
"590 163 OFFCURVE",
"596 163 OFFCURVE",
"603 162 CURVE",
"624 237 LINE",
"532 237 OFFCURVE",
"467 279 OFFCURVE",
"404 320 CURVE SMOOTH",
"341 361 OFFCURVE",
"279 381 OFFCURVE",
"192 381 CURVE SMOOTH",
"122 381 OFFCURVE",
"66 356 OFFCURVE",
"25 335 CURVE",
"59 271 LINE",
"93 288 OFFCURVE",
"132 305 OFFCURVE",
"192 305 CURVE SMOOTH",
"264 305 OFFCURVE",
"320 289 OFFCURVE",
"378 249 CURVE SMOOTH",
"387 243 LINE",
"423 243 LINE",
"423 207 LINE",
"387 207 LINE",
"371 200 OFFCURVE",
"355 192 OFFCURVE",
"340 182 CURVE SMOOTH",
"262 132 OFFCURVE",
"179 80 OFFCURVE",
"-9 80 CURVE SMOOTH",
"-30 80 LINE",
"-30 0 LINE"
);
},
{
closed = 1;
nodes = (
"355 530 LINE",
"289 596 LINE",
"225 530 LINE",
"289 466 LINE"
);
}
);
};
components = (
{
name = "hah-ar.medi";
},
{
name = "dotabove-ar";
transform = "{1, 0, 0, 1, 5, 69}";
}
);
layerId = "4BB9E86A-2C6D-49F0-A7F5-5EF670F2F4E4";
width = 648;
},
{
anchors = (
{
name = bottom;
position = "{305, 0}";
},
{
name = top;
position = "{305, 380}";
}
);
background = {
paths = (
{
closed = 1;
nodes = (
"-8 0 LINE SMOOTH",
"193 0 OFFCURVE",
"288 59 OFFCURVE",
"369 110 CURVE SMOOTH",
"388 122 OFFCURVE",
"406 131 OFFCURVE",
"426 139 CURVE",
"426 162 LINE",
"462 162 LINE",
"462 126 LINE",
"452 126 LINE",
"464 93 LINE SMOOTH",
"484 40 OFFCURVE",
"529 1 OFFCURVE",
"600 1 CURVE SMOOTH",
"624 1 LINE",
"624 81 LINE",
"600 81 LINE SMOOTH",
"561 81 OFFCURVE",
"546 103 OFFCURVE",
"536 128 CURVE SMOOTH",
"531 141 LINE",
"505 141 LINE",
"505 177 LINE",
"541 177 LINE",
"541 161 LINE",
"555 162 OFFCURVE",
"569 163 OFFCURVE",
"584 163 CURVE SMOOTH",
"590 163 OFFCURVE",
"596 163 OFFCURVE",
"603 162 CURVE",
"624 237 LINE",
"532 237 OFFCURVE",
"467 279 OFFCURVE",
"404 320 CURVE SMOOTH",
"341 361 OFFCURVE",
"279 381 OFFCURVE",
"192 381 CURVE SMOOTH",
"122 381 OFFCURVE",
"66 356 OFFCURVE",
"25 335 CURVE",
"59 271 LINE",
"93 288 OFFCURVE",
"132 305 OFFCURVE",
"192 305 CURVE SMOOTH",
"264 305 OFFCURVE",
"320 289 OFFCURVE",
"378 249 CURVE SMOOTH",
"387 243 LINE",
"423 243 LINE",
"423 207 LINE",
"387 207 LINE",
"371 200 OFFCURVE",
"355 192 OFFCURVE",
"340 182 CURVE SMOOTH",
"262 132 OFFCURVE",
"179 80 OFFCURVE",
"-9 80 CURVE SMOOTH",
"-30 80 LINE",
"-30 0 LINE"
);
},
{
closed = 1;
nodes = (
"355 530 LINE",
"289 596 LINE",
"225 530 LINE",
"289 466 LINE"
);
}
);
};
components = (
{
name = "hah-ar.medi";
},
{
name = "dotabove-ar";
transform = "{1, 0, 0, 1, 5, 169}";
}
);
layerId = "F3D5F3BC-0862-4A52-BCBD-22F0EED7FFB2";
width = 711;
}
);
note = "حطي قسمن";
unicode = FEA8;
},
{
color = 10;
glyphname = "dal-ar";
lastChange = "2020-05-08 08:32:08 +0000";
layers = (
{
background = {
paths = (
{
closed = 1;
nodes = (
"804 90 OFFCURVE",
"772 78 OFFCURVE",
"699 78 CURVE SMOOTH",
"631 78 OFFCURVE",
"595 84 OFFCURVE",
"595 126 CURVE SMOOTH",
"595 142 OFFCURVE",
"597 159 OFFCURVE",
"604 184 CURVE",
"620 173 LINE",
"520 173 LINE",
"542 185 LINE",
"527 151 OFFCURVE",
"518 123 OFFCURVE",
"518 99 CURVE SMOOTH",
"518 25 OFFCURVE",
"595 -8 OFFCURVE",
"700 -8 CURVE SMOOTH",
"792 -8 OFFCURVE",
"901 23 OFFCURVE",
"901 138 CURVE SMOOTH",
"901 233 OFFCURVE",
"838 403 OFFCURVE",
"741 513 CURVE",
"818 502 LINE",
"667 413 LINE",
"687 452 LINE",
"761 369 OFFCURVE",
"825 207 OFFCURVE",
"825 118 CURVE"
);
},
{
closed = 1;
nodes = (
"320 0 OFFCURVE",
"389 48 OFFCURVE",
"389 134 CURVE SMOOTH",
"389 224 OFFCURVE",
"333 369 OFFCURVE",
"260 467 CURVE",
"288 466 LINE",
"201 415 LINE",
"211 437 LINE",
"279 352 OFFCURVE",
"337 202 OFFCURVE",
"337 114 CURVE",
"316 75 OFFCURVE",
"284 62 OFFCURVE",
"199 62 CURVE SMOOTH",
"130 62 OFFCURVE",
"84 70 OFFCURVE",
"84 122 CURVE SMOOTH",
"84 141 OFFCURVE",
"86 155 OFFCURVE",
"90 171 CURVE",
"109 157 LINE",
"23 157 LINE",
"53 177 LINE",
"38 139 OFFCURVE",
"30 115 OFFCURVE",
"30 95 CURVE SMOOTH",
"30 35 OFFCURVE",
"91 0 OFFCURVE",
"200 0 CURVE SMOOTH"
);
}
);
};
layerId = "4BB9E86A-2C6D-49F0-A7F5-5EF670F2F4E4";
paths = (
{
closed = 1;
nodes = (
"320 0 OFFCURVE",
"389 45 OFFCURVE",
"389 138 CURVE SMOOTH",
"389 221 OFFCURVE",
"330 371 OFFCURVE",
"260 467 CURVE",
"288 466 LINE",
"201 415 LINE",
"212 437 LINE",
"277 354 OFFCURVE",
"337 202 OFFCURVE",
"337 114 CURVE",
"327 79 OFFCURVE",
"268 62 OFFCURVE",
"196 62 CURVE SMOOTH",
"127 62 OFFCURVE",
"84 71 OFFCURVE",
"84 125 CURVE SMOOTH",
"84 137 OFFCURVE",
"86 154 OFFCURVE",
"90 171 CURVE",
"109 157 LINE",
"23 157 LINE",
"55 177 LINE",
"39 151 OFFCURVE",
"30 121 OFFCURVE",
"30 97 CURVE SMOOTH",
"30 24 OFFCURVE",
"111 0 OFFCURVE",
"196 0 CURVE SMOOTH"
);
}
);
width = 419;
},
{
background = {
paths = (
{
closed = 1;
nodes = (
"377 -18 OFFCURVE",
"459 44 OFFCURVE",
"459 150 CURVE SMOOTH",
"459 259 OFFCURVE",
"381 438 OFFCURVE",
"292 538 CURVE",
"359 533 LINE",
"168 421 LINE",
"192 482 LINE",
"285 377 OFFCURVE",
"343 236 OFFCURVE",
"347 139 CURVE",
"329 120 OFFCURVE",
"292 112 OFFCURVE",
"239 112 CURVE SMOOTH",
"187 112 OFFCURVE",
"152 114 OFFCURVE",
"152 145 CURVE SMOOTH",
"152 166 OFFCURVE",
"155 201 OFFCURVE",
"172 256 CURVE",
"216 198 LINE",
"17 198 LINE",
"87 250 LINE",
"54 187 OFFCURVE",
"40 146 OFFCURVE",
"40 111 CURVE SMOOTH",
"40 28 OFFCURVE",
"114 -18 OFFCURVE",
"240 -18 CURVE SMOOTH"
);
}
);
};
layerId = "F3D5F3BC-0862-4A52-BCBD-22F0EED7FFB2";
paths = (
{
closed = 1;
nodes = (
"379 -8 OFFCURVE",
"459 52 OFFCURVE",
"459 160 CURVE SMOOTH",
"459 267 OFFCURVE",
"380 447 OFFCURVE",
"292 548 CURVE",
"359 533 LINE",
"168 421 LINE",
"195 492 LINE",
"287 386 OFFCURVE",
"346 246 OFFCURVE",
"350 149 CURVE",
"332 130 OFFCURVE",
"291 122 OFFCURVE",
"241 122 CURVE SMOOTH",
"176 122 OFFCURVE",
"151 136 OFFCURVE",
"151 177 CURVE SMOOTH",
"151 199 OFFCURVE",
"158 228 OFFCURVE",
"170 266 CURVE",
"170 198 LINE",
"17 198 LINE",
"87 260 LINE",
"55 197 OFFCURVE",
"40 156 OFFCURVE",
"40 120 CURVE SMOOTH",
"40 38 OFFCURVE",
"116 -8 OFFCURVE",
"238 -8 CURVE SMOOTH"
);
}
);
width = 499;
}
);
unicode = 062F;
},
{
color = 10;
glyphname = "dal-ar.fina";
lastChange = "2020-05-08 08:32:14 +0000";
layers = (
{
background = {
paths = (
{
closed = 1;
nodes = (
"468 62 OFFCURVE",
"444 80 OFFCURVE",
"433 112 CURVE SMOOTH",
"302 476 LINE",
"331 462 LINE",
"236 430 LINE",
"249 458 LINE",
"363 142 LINE",
"334 84 OFFCURVE",
"286 62 OFFCURVE",
"196 62 CURVE SMOOTH",
"127 62 OFFCURVE",
"84 71 OFFCURVE",
"84 125 CURVE SMOOTH",
"84 138 OFFCURVE",
"86 156 OFFCURVE",
"90 174 CURVE",
"109 157 LINE",
"22 157 LINE",
"51 172 LINE",
"38 146 OFFCURVE",
"30 119 OFFCURVE",
"30 97 CURVE SMOOTH",
"30 24 OFFCURVE",
"110 0 OFFCURVE",
"198 0 CURVE SMOOTH",
"300 0 OFFCURVE",
"358 32 OFFCURVE",
"381 87 CURVE",
"381 91 LINE",
"385 91 LINE",
"385 87 LINE",
"412 19 OFFCURVE",
"457 0 OFFCURVE",
"500 0 CURVE SMOOTH",
"520 0 LINE SMOOTH",
"526 0 OFFCURVE",
"530 4 OFFCURVE",
"530 10 CURVE SMOOTH",
"530 52 LINE SMOOTH",
"530 58 OFFCURVE",
"526 62 OFFCURVE",
"520 62 CURVE SMOOTH",
"507 62 LINE SMOOTH"
);
}
);
};
layerId = "4BB9E86A-2C6D-49F0-A7F5-5EF670F2F4E4";
paths = (
{
closed = 1;
nodes = (
"301 0 OFFCURVE",
"358 32 OFFCURVE",
"381 87 CURVE",
"381 91 LINE",
"385 91 LINE",
"385 87 LINE",
"412 19 OFFCURVE",
"457 0 OFFCURVE",
"500 0 CURVE SMOOTH",
"520 0 LINE SMOOTH",
"526 0 OFFCURVE",
"530 4 OFFCURVE",
"530 10 CURVE SMOOTH",
"530 52 LINE SMOOTH",
"530 58 OFFCURVE",
"526 62 OFFCURVE",
"520 62 CURVE SMOOTH",
"507 62 LINE SMOOTH",
"468 62 OFFCURVE",
"444 80 OFFCURVE",
"433 112 CURVE SMOOTH",
"302 476 LINE",
"331 462 LINE",
"236 430 LINE",
"249 458 LINE",
"363 142 LINE",
"334 84 OFFCURVE",
"288 62 OFFCURVE",
"192 62 CURVE SMOOTH",
"119 62 OFFCURVE",
"84 74 OFFCURVE",
"84 128 CURVE SMOOTH",
"84 141 OFFCURVE",
"86 156 OFFCURVE",
"90 174 CURVE",
"109 157 LINE",
"22 157 LINE",
"51 172 LINE",
"38 146 OFFCURVE",
"30 120 OFFCURVE",
"30 97 CURVE SMOOTH",
"30 33 OFFCURVE",
"93 0 OFFCURVE",
"198 0 CURVE SMOOTH"
);
}
);
width = 515;
},
{
background = {
paths = (
{
closed = 1;
nodes = (
"542 130 OFFCURVE",
"527 139 OFFCURVE",
"518 163 CURVE SMOOTH",
"372 572 LINE",
"436 540 LINE",
"238 476 LINE",
"268 538 LINE",
"386 208 LINE",
"365 142 OFFCURVE",
"328 122 OFFCURVE",
"238 122 CURVE SMOOTH",
"177 122 OFFCURVE",
"152 133 OFFCURVE",
"152 172 CURVE SMOOTH",
"152 190 OFFCURVE",
"152 208 OFFCURVE",
"175 249 CURVE",
"181 198 LINE",
"8 198 LINE",
"75 240 LINE",
"51 187 OFFCURVE",
"39 152 OFFCURVE",
"39 120 CURVE SMOOTH",
"39 38 OFFCURVE",
"115 -8 OFFCURVE",
"236 -8 CURVE SMOOTH",
"332 -8 OFFCURVE",
"396 19 OFFCURVE",
"434 70 CURVE",
"434 74 LINE",
"438 74 LINE",
"438 70 LINE",
"478 0 OFFCURVE",
"540 0 OFFCURVE",
"587 0 CURVE SMOOTH",
"613 0 LINE SMOOTH",
"619 0 OFFCURVE",
"623 4 OFFCURVE",
"623 10 CURVE SMOOTH",
"623 120 LINE SMOOTH",
"623 126 OFFCURVE",
"619 130 OFFCURVE",
"613 130 CURVE SMOOTH",
"563 130 LINE SMOOTH"
);
}
);
};
layerId = "F3D5F3BC-0862-4A52-BCBD-22F0EED7FFB2";
paths = (
{
closed = 1;
nodes = (
"332 -8 OFFCURVE",
"396 19 OFFCURVE",
"434 70 CURVE",
"434 74 LINE",
"438 74 LINE",
"438 70 LINE",
"478 0 OFFCURVE",
"540 0 OFFCURVE",
"587 0 CURVE SMOOTH",
"613 0 LINE SMOOTH",
"619 0 OFFCURVE",
"623 4 OFFCURVE",
"623 10 CURVE SMOOTH",
"623 120 LINE SMOOTH",
"623 126 OFFCURVE",
"619 130 OFFCURVE",
"613 130 CURVE SMOOTH",
"564 130 LINE SMOOTH",
"543 130 OFFCURVE",
"528 139 OFFCURVE",
"519 163 CURVE SMOOTH",
"373 572 LINE",
"442 527 LINE",
"243 463 LINE",
"268 538 LINE",
"386 208 LINE",
"365 142 OFFCURVE",
"327 122 OFFCURVE",
"241 122 CURVE SMOOTH",
"176 122 OFFCURVE",
"151 136 OFFCURVE",
"151 177 CURVE SMOOTH",
"151 199 OFFCURVE",
"158 228 OFFCURVE",
"170 266 CURVE",
"170 198 LINE",
"17 198 LINE",
"87 260 LINE",
"55 197 OFFCURVE",
"40 156 OFFCURVE",
"40 120 CURVE SMOOTH",
"40 38 OFFCURVE",
"116 -8 OFFCURVE",
"238 -8 CURVE SMOOTH"
);
}
);
width = 608;
}
);
rightMetricsKey = "=-15";
unicode = FEAA;
},
{
color = 10;
glyphname = "reh-ar";
lastChange = "2020-05-08 08:32:54 +0000";
layers = (
{
background = {
paths = (
{
closed = 1;
nodes = (
"478 -201 LINE",
"392 -109 LINE",
"458 -166 OFFCURVE",
"532 -180 OFFCURVE",
"612 -180 CURVE SMOOTH",
"746 -180 OFFCURVE",
"810 -93 OFFCURVE",
"810 31 CURVE SMOOTH",
"810 136 OFFCURVE",
"773 272 OFFCURVE",
"716 383 CURVE",
"792 292 LINE",
"637 292 LINE",
"646 366 LINE",
"688 277 OFFCURVE",
"729 135 OFFCURVE",
"729 29 CURVE SMOOTH",
"729 -59 OFFCURVE",
"705 -100 OFFCURVE",
"612 -100 CURVE SMOOTH",
"540 -100 OFFCURVE",
"442 -82 OFFCURVE",
"392 -43 CURVE",
"478 -41 LINE"
);
},
{
closed = 1;
nodes = (
"298 50 OFFCURVE",
"293 87 OFFCURVE",
"283 131 CURVE SMOOTH",
"277 160 OFFCURVE",
"263 222 OFFCURVE",
"240 292 CURVE",
"270 265 LINE",
"169 265 LINE",
"186 281 LINE",
"219 187 OFFCURVE",
"239 88 OFFCURVE",
"239 14 CURVE SMOOTH",
"239 -82 OFFCURVE",
"204 -125 OFFCURVE",
"107 -125 CURVE SMOOTH",
"71 -125 OFFCURVE",
"17 -119 OFFCURVE",
"-24 -106 CURVE",
"-10 -88 LINE",
"-10 -188 LINE",
"-23 -161 LINE",
"12 -176 OFFCURVE",
"65 -183 OFFCURVE",
"105 -183 CURVE SMOOTH",
"240 -183 OFFCURVE",
"298 -104 OFFCURVE",
"298 24 CURVE SMOOTH"
);
}
);
};
guideLines = (
{
position = "{111, -178}";
}
);
layerId = "4BB9E86A-2C6D-49F0-A7F5-5EF670F2F4E4";
paths = (
{
closed = 1;
nodes = (
"-23 -161 LINE",
"12 -176 OFFCURVE",
"65 -183 OFFCURVE",
"105 -183 CURVE SMOOTH",
"239 -183 OFFCURVE",
"294 -103 OFFCURVE",
"294 14 CURVE SMOOTH",
"294 87 OFFCURVE",
"271 198 OFFCURVE",
"240 292 CURVE",
"270 265 LINE",
"167 265 LINE",
"184 281 LINE",
"217 187 OFFCURVE",
"237 88 OFFCURVE",
"237 14 CURVE SMOOTH",
"237 -80 OFFCURVE",
"202 -123 OFFCURVE",
"107 -123 CURVE SMOOTH",
"71 -123 OFFCURVE",
"17 -117 OFFCURVE",
"-24 -104 CURVE",
"-10 -86 LINE",
"-10 -188 LINE"
);
}
);
width = 324;
},
{
background = {
paths = (
{
closed = 1;
nodes = (
"615 -200 LINE",
"535 -114 LINE",
"596 -167 OFFCURVE",
"665 -180 OFFCURVE",
"740 -180 CURVE SMOOTH",
"865 -180 OFFCURVE",
"925 -99 OFFCURVE",
"925 17 CURVE SMOOTH",
"925 115 OFFCURVE",
"891 242 OFFCURVE",
"837 346 CURVE",
"908 261 LINE",
"764 261 LINE",
"772 330 LINE",
"811 247 OFFCURVE",
"850 114 OFFCURVE",
"850 15 CURVE SMOOTH",
"850 -67 OFFCURVE",
"827 -105 OFFCURVE",
"740 -105 CURVE SMOOTH",
"673 -105 OFFCURVE",
"581 -88 OFFCURVE",
"535 -52 CURVE",
"615 -50 LINE"
);
},
{
closed = 1;
nodes = (
"344 70 OFFCURVE",
"337 150 OFFCURVE",
"330 175 CURVE SMOOTH",
"326 190 OFFCURVE",
"308 255 OFFCURVE",
"272 349 CURVE",
"335 311 LINE",
"119 311 LINE",
"155 343 LINE",
"197 246 OFFCURVE",
"233 131 OFFCURVE",
"233 41 CURVE SMOOTH",
"233 -25 OFFCURVE",
"214 -82 OFFCURVE",
"126 -82 CURVE SMOOTH",
"83 -82 OFFCURVE",
"4 -68 OFFCURVE",
"-25 -47 CURVE",
"-10 -9 LINE",
"-10 -226 LINE",
"-33 -164 LINE",
"17 -190 OFFCURVE",
"70 -202 OFFCURVE",
"127 -202 CURVE SMOOTH",
"272 -202 OFFCURVE",
"337 -122 OFFCURVE",
"344 21 CURVE SMOOTH"
);
}
);
};
guideLines = (
{
position = "{148, -178}";
}
);
layerId = "F3D5F3BC-0862-4A52-BCBD-22F0EED7FFB2";
paths = (
{
closed = 1;
nodes = (
"-33 -164 LINE",
"17 -190 OFFCURVE",
"70 -202 OFFCURVE",
"127 -202 CURVE SMOOTH",
"272 -202 OFFCURVE",
"348 -126 OFFCURVE",
"348 41 CURVE SMOOTH",
"348 133 OFFCURVE",
"326 208 OFFCURVE",
"272 349 CURVE",
"335 311 LINE",
"119 311 LINE",
"155 343 LINE",
"197 246 OFFCURVE",
"233 131 OFFCURVE",
"233 41 CURVE SMOOTH",
"233 -25 OFFCURVE",
"214 -77 OFFCURVE",
"126 -77 CURVE SMOOTH",
"83 -77 OFFCURVE",
"4 -63 OFFCURVE",
"-25 -42 CURVE",
"-10 -4 LINE",
"-10 -226 LINE"
);
}
);
width = 388;
}
);
leftMetricsKey = "=-10";
unicode = 0631;
},
{
color = 10;
glyphname = "reh-ar.fina";
lastChange = "2020-05-08 08:33:21 +0000";
layers = (
{
background = {
paths = (
{
closed = 1;
nodes = (
"869 253 OFFCURVE",
"844 316 OFFCURVE",
"816 373 CURVE",
"892 282 LINE",
"737 282 LINE",
"746 356 LINE",
"788 267 OFFCURVE",
"829 125 OFFCURVE",
"829 19 CURVE SMOOTH",
"829 -69 OFFCURVE",
"805 -110 OFFCURVE",
"712 -110 CURVE SMOOTH",
"640 -110 OFFCURVE",
"542 -92 OFFCURVE",
"492 -53 CURVE",
"578 -51 LINE",
"578 -211 LINE",
"492 -119 LINE",
"558 -176 OFFCURVE",
"632 -190 OFFCURVE",
"712 -190 CURVE SMOOTH",
"846 -190 OFFCURVE",
"910 -105 OFFCURVE",
"910 27 CURVE",
"910 31 LINE",
"914 31 LINE",
"914 27 LINE",
"940 9 OFFCURVE",
"963 3 OFFCURVE",
"991 3 CURVE SMOOTH",
"1021 3 LINE SMOOTH",
"1026 3 OFFCURVE",
"1032 8 OFFCURVE",
"1032 13 CURVE SMOOTH",
"1032 78 LINE SMOOTH",
"1032 83 OFFCURVE",
"1026 88 OFFCURVE",
"1021 88 CURVE SMOOTH",
"991 88 LINE SMOOTH",
"928 88 OFFCURVE",
"902 127 OFFCURVE",
"885 191 CURVE SMOOTH"
);
},
{
closed = 1;
nodes = (
"302 71 OFFCURVE",
"284 131 CURVE SMOOTH",
"277 155 OFFCURVE",
"266 211 OFFCURVE",
"243 281 CURVE",
"270 265 LINE",
"169 265 LINE",
"186 281 LINE",
"219 187 OFFCURVE",
"239 88 OFFCURVE",
"239 14 CURVE SMOOTH",
"239 -84 OFFCURVE",
"200 -128 OFFCURVE",
"112 -128 CURVE SMOOTH",
"68 -128 OFFCURVE",
"19 -122 OFFCURVE",
"-24 -109 CURVE",
"-10 -91 LINE",
"-10 -188 LINE",
"-23 -161 LINE",
"15 -177 OFFCURVE",
"59 -183 OFFCURVE",
"112 -183 CURVE SMOOTH",
"232 -183 OFFCURVE",
"298 -109 OFFCURVE",
"298 24 CURVE SMOOTH",
"298 28 LINE",
"302 28 LINE",
"302 24 LINE",
"339 1 OFFCURVE",
"367 0 OFFCURVE",
"381 0 CURVE SMOOTH",
"400 0 LINE SMOOTH",
"406 0 OFFCURVE",
"410 4 OFFCURVE",
"410 10 CURVE SMOOTH",
"410 52 LINE SMOOTH",
"410 58 OFFCURVE",
"406 62 OFFCURVE",
"400 62 CURVE SMOOTH",
"381 62 LINE SMOOTH",
"325 62 OFFCURVE"
);
}
);
};
layerId = "4BB9E86A-2C6D-49F0-A7F5-5EF670F2F4E4";
paths = (
{
closed = 1;
nodes = (
"-23 -161 LINE",
"12 -176 OFFCURVE",
"65 -183 OFFCURVE",
"105 -183 CURVE SMOOTH",
"240 -183 OFFCURVE",
"298 -104 OFFCURVE",
"298 24 CURVE SMOOTH",
"298 28 LINE",
"302 28 LINE",
"302 24 LINE",
"325 6 OFFCURVE",
"351 0 OFFCURVE",
"377 0 CURVE SMOOTH",
"400 0 LINE SMOOTH",
"406 0 OFFCURVE",
"410 4 OFFCURVE",
"410 10 CURVE SMOOTH",
"410 52 LINE SMOOTH",
"410 58 OFFCURVE",
"406 62 OFFCURVE",
"400 62 CURVE SMOOTH",
"377 62 LINE SMOOTH",
"321 62 OFFCURVE",
"294 82 OFFCURVE",
"283 131 CURVE SMOOTH",
"277 160 OFFCURVE",
"263 222 OFFCURVE",
"240 292 CURVE",
"270 265 LINE",
"169 265 LINE",
"186 281 LINE",
"219 187 OFFCURVE",
"239 88 OFFCURVE",
"239 14 CURVE SMOOTH",
"239 -80 OFFCURVE",
"202 -123 OFFCURVE",
"107 -123 CURVE SMOOTH",
"71 -123 OFFCURVE",
"17 -117 OFFCURVE",
"-24 -104 CURVE",
"-10 -86 LINE",
"-10 -188 LINE"
);
}
);
width = 395;
},
{
background = {
paths = (
{
closed = 1;
nodes = (
"887 234 OFFCURVE",
"864 293 OFFCURVE",
"837 346 CURVE",
"908 261 LINE",
"764 261 LINE",
"772 330 LINE",
"811 247 OFFCURVE",
"850 114 OFFCURVE",
"850 15 CURVE SMOOTH",
"850 -67 OFFCURVE",
"827 -105 OFFCURVE",
"740 -105 CURVE SMOOTH",
"673 -105 OFFCURVE",
"581 -88 OFFCURVE",
"535 -52 CURVE",
"615 -50 LINE",
"615 -200 LINE",
"535 -114 LINE",
"596 -167 OFFCURVE",
"665 -180 OFFCURVE",
"740 -180 CURVE SMOOTH",
"865 -180 OFFCURVE",
"925 -101 OFFCURVE",
"925 23 CURVE",
"925 27 LINE",
"929 27 LINE",
"929 23 LINE",
"953 6 OFFCURVE",
"975 0 OFFCURVE",
"1001 0 CURVE SMOOTH",
"1029 0 LINE SMOOTH",
"1034 0 OFFCURVE",
"1039 5 OFFCURVE",
"1039 10 CURVE SMOOTH",
"1039 70 LINE SMOOTH",
"1039 75 OFFCURVE",
"1034 80 OFFCURVE",
"1029 80 CURVE SMOOTH",
"1001 80 LINE SMOOTH",
"942 80 OFFCURVE",
"918 116 OFFCURVE",
"902 176 CURVE SMOOTH"
);
},
{
closed = 1;
nodes = (
"326 190 OFFCURVE",
"308 255 OFFCURVE",
"272 349 CURVE",
"335 311 LINE",
"119 311 LINE",
"155 343 LINE",
"197 246 OFFCURVE",
"233 131 OFFCURVE",
"233 46 CURVE SMOOTH",
"233 -25 OFFCURVE",
"206 -82 OFFCURVE",
"138 -82 CURVE SMOOTH",
"75 -82 OFFCURVE",
"4 -68 OFFCURVE",
"-25 -47 CURVE",
"-10 -9 LINE",
"-10 -226 LINE",
"-33 -164 LINE",
"17 -190 OFFCURVE",
"66 -202 OFFCURVE",
"138 -202 CURVE SMOOTH",
"225 -202 OFFCURVE",
"288 -164 OFFCURVE",
"320 -94 CURVE SMOOTH",
"334 -64 OFFCURVE",
"341 -21 OFFCURVE",
"343 20 CURVE",
"343 24 LINE",
"347 24 LINE",
"347 21 LINE",
"358 11 OFFCURVE",
"375 0 OFFCURVE",
"403 0 CURVE SMOOTH",
"447 0 LINE SMOOTH",
"453 0 OFFCURVE",
"457 4 OFFCURVE",
"457 10 CURVE SMOOTH",
"457 120 LINE SMOOTH",
"457 126 OFFCURVE",
"453 130 OFFCURVE",
"447 130 CURVE SMOOTH",
"401 130 LINE SMOOTH",
"364 130 OFFCURVE",
"339 143 OFFCURVE",
"330 175 CURVE SMOOTH"
);
}
);
};
layerId = "F3D5F3BC-0862-4A52-BCBD-22F0EED7FFB2";
paths = (
{
closed = 1;
nodes = (
"-33 -164 LINE",
"17 -190 OFFCURVE",
"70 -202 OFFCURVE",
"127 -202 CURVE SMOOTH",
"272 -202 OFFCURVE",
"336 -123 OFFCURVE",
"343 20 CURVE",
"343 24 LINE",
"347 24 LINE",
"347 21 LINE",
"358 11 OFFCURVE",
"375 0 OFFCURVE",
"403 0 CURVE SMOOTH",
"447 0 LINE SMOOTH",
"453 0 OFFCURVE",
"457 4 OFFCURVE",
"457 10 CURVE SMOOTH",
"457 120 LINE SMOOTH",
"457 126 OFFCURVE",
"453 130 OFFCURVE",
"447 130 CURVE SMOOTH",
"401 130 LINE SMOOTH",
"364 130 OFFCURVE",
"339 143 OFFCURVE",
"330 175 CURVE SMOOTH",
"326 190 OFFCURVE",
"308 255 OFFCURVE",
"272 349 CURVE",
"335 311 LINE",
"119 311 LINE",
"155 343 LINE",
"197 246 OFFCURVE",
"233 131 OFFCURVE",
"233 41 CURVE SMOOTH",
"233 -25 OFFCURVE",
"214 -77 OFFCURVE",
"126 -77 CURVE SMOOTH",
"83 -77 OFFCURVE",
"4 -63 OFFCURVE",
"-25 -42 CURVE",
"-10 -4 LINE",
"-10 -226 LINE"
);
}
);
width = 442;
}
);
leftMetricsKey = "=-10";
rightMetricsKey = "=-15";
unicode = FEAE;
},
{
color = 10;
glyphname = "seen-ar";
lastChange = "2020-05-08 08:33:45 +0000";
layers = (
{
background = {
paths = (
{
closed = 1;
nodes = (
"1078 57 LINE",
"1086 47 OFFCURVE",
"1096 40 OFFCURVE",
"1106 33 CURVE",
"1110 33 LINE",
"1110 29 LINE",
"1136 10 OFFCURVE",
"1165 0 OFFCURVE",
"1197 0 CURVE SMOOTH",
"1237 0 OFFCURVE",
"1275 28 OFFCURVE",
"1291 57 CURVE",
"1291 61 LINE",
"1295 61 LINE",
"1295 57 LINE",
"1322 30 OFFCURVE",
"1373 0 OFFCURVE",
"1424 0 CURVE SMOOTH",
"1509 0 OFFCURVE",
"1574 70 OFFCURVE",
"1574 196 CURVE SMOOTH",
"1574 256 OFFCURVE",
"1553 323 OFFCURVE",
"1540 352 CURVE",
"1473 332 LINE",
"1488 301 OFFCURVE",
"1504 235 OFFCURVE",
"1504 193 CURVE SMOOTH",
"1504 148 OFFCURVE",
"1496 80 OFFCURVE",
"1427 80 CURVE SMOOTH",
"1370 80 OFFCURVE",
"1341 109 OFFCURVE",
"1323 132 CURVE",
"1320 132 LINE",
"1320 136 LINE",
"1322 136 LINE",
"1356 263 LINE",
"1290 282 LINE",
"1252 135 LINE SMOOTH",
"1246 111 OFFCURVE",
"1230 80 OFFCURVE",
"1195 80 CURVE SMOOTH",
"1164 80 OFFCURVE",
"1133 97 OFFCURVE",
"1106 121 CURVE",
"1078 121 LINE"
);
},
{
closed = 1;
nodes = (
"405 -180 OFFCURVE",
"509 -111 OFFCURVE",
"509 51 CURVE SMOOTH",
"509 150 OFFCURVE",
"471 253 OFFCURVE",
"434 322 CURVE",
"496 281 LINE",
"358 281 LINE",
"392 293 LINE",
"418 225 OFFCURVE",
"439 127 OFFCURVE",
"439 46 CURVE SMOOTH",
"439 8 OFFCURVE",
"434 -27 OFFCURVE",
"423 -52 CURVE",
"395 -83 OFFCURVE",
"334 -100 OFFCURVE",
"262 -100 CURVE SMOOTH",
"139 -100 OFFCURVE",
"97 -48 OFFCURVE",
"97 46 CURVE SMOOTH",
"97 87 OFFCURVE",
"105 138 OFFCURVE",
"120 197 CURVE",
"146 173 LINE",
"21 173 LINE",
"77 211 LINE",
"48 138 OFFCURVE",
"30 71 OFFCURVE",
"30 12 CURVE SMOOTH",
"30 -104 OFFCURVE",
"114 -180 OFFCURVE",
"262 -180 CURVE SMOOTH"
);
},
{
closed = 1;
nodes = (
"1038 46 LINE",
"1055 35 LINE",
"1060 35 LINE",
"1060 31 LINE",
"1088 11 OFFCURVE",
"1119 0 OFFCURVE",
"1148 0 CURVE SMOOTH",
"1191 0 OFFCURVE",
"1230 21 OFFCURVE",
"1252 61 CURVE",
"1252 65 LINE",
"1256 65 LINE",
"1256 61 LINE",
"1285 30 OFFCURVE",
"1325 0 OFFCURVE",
"1384 0 CURVE SMOOTH",
"1475 0 OFFCURVE",
"1524 75 OFFCURVE",
"1524 164 CURVE SMOOTH",
"1524 253 OFFCURVE",
"1483 354 OFFCURVE",
"1465 395 CURVE",
"1553 301 LINE",
"1392 301 LINE",
"1392 407 LINE",
"1423 333 OFFCURVE",
"1455 232 OFFCURVE",
"1455 140 CURVE",
"1447 108 OFFCURVE",
"1432 86 OFFCURVE",
"1384 86 CURVE SMOOTH",
"1337 86 OFFCURVE",
"1301 113 OFFCURVE",
"1281 141 CURVE",
"1278 141 LINE",
"1278 146 LINE",
"1280 146 LINE",
"1280 301 LINE",
"1210 301 LINE",
"1210 144 LINE",
"1202 105 OFFCURVE",
"1172 86 OFFCURVE",
"1140 86 CURVE SMOOTH",
"1109 86 OFFCURVE",
"1072 102 OFFCURVE",
"1049 134 CURVE",
"1038 134 LINE"
);
},
{
closed = 1;
nodes = (
"647 0 OFFCURVE",
"684 20 OFFCURVE",
"709 62 CURVE",
"709 66 LINE",
"713 66 LINE",
"713 62 LINE",
"752 27 OFFCURVE",
"790 0 OFFCURVE",
"841 0 CURVE SMOOTH",
"919 0 OFFCURVE",
"968 64 OFFCURVE",
"968 153 CURVE SMOOTH",
"968 189 OFFCURVE",
"960 237 OFFCURVE",
"943 295 CURVE",
"970 287 LINE",
"875 287 LINE",
"892 293 LINE",
"911 232 OFFCURVE",
"919 175 OFFCURVE",
"919 127 CURVE",
"910 85 OFFCURVE",
"881 62 OFFCURVE",
"839 62 CURVE SMOOTH",
"798 62 OFFCURVE",
"760 84 OFFCURVE",
"736 117 CURVE",
"732 117 LINE",
"732 121 LINE",
"734 121 LINE",
"734 307 LINE",
"756 287 LINE",
"662 287 LINE",
"684 309 LINE",
"684 131 LINE",
"677 86 OFFCURVE",
"642 62 OFFCURVE",
"600 62 CURVE SMOOTH",
"565 62 OFFCURVE",
"526 79 OFFCURVE",
"503 110 CURVE",
"510 43 LINE",
"519 32 LINE",
"523 32 LINE",
"523 28 LINE",
"542 15 OFFCURVE",
"572 0 OFFCURVE",
"607 0 CURVE SMOOTH"
);
}
);
};
components = (
{
name = "noonghunna-ar";
}
);
guideLines = (
{
position = "{496, 287}";
}
);
layerId = "4BB9E86A-2C6D-49F0-A7F5-5EF670F2F4E4";
paths = (
{
closed = 1;
nodes = (
"647 0 OFFCURVE",
"684 18 OFFCURVE",
"714 52 CURVE",
"714 56 LINE",
"718 56 LINE",
"718 52 LINE",
"752 17 OFFCURVE",
"795 0 OFFCURVE",
"839 0 CURVE SMOOTH",
"917 0 OFFCURVE",
"971 57 OFFCURVE",
"971 144 CURVE SMOOTH",
"971 179 OFFCURVE",
"962 237 OFFCURVE",
"945 295 CURVE",
"972 287 LINE",
"872 287 LINE",
"889 293 LINE",
"908 232 OFFCURVE",
"916 174 OFFCURVE",
"916 130 CURVE",
"911 85 OFFCURVE",
"881 62 OFFCURVE",
"841 62 CURVE SMOOTH",
"800 62 OFFCURVE",
"768 84 OFFCURVE",
"744 117 CURVE",
"740 117 LINE",
"740 121 LINE",
"742 121 LINE",
"742 307 LINE",
"764 287 LINE",
"665 287 LINE",
"687 309 LINE",
"687 130 LINE",
"681 85 OFFCURVE",
"646 62 OFFCURVE",
"605 62 CURVE SMOOTH",
"570 62 OFFCURVE",
"531 79 OFFCURVE",
"508 110 CURVE",
"515 41 LINE",
"524 30 LINE",
"528 30 LINE",
"528 26 LINE",
"554 8 OFFCURVE",
"581 0 OFFCURVE",
"607 0 CURVE SMOOTH"
);
}
);
width = 1001;
},
{
background = {
paths = (
{
closed = 1;
nodes = (
"1088 57 LINE",
"1096 47 OFFCURVE",
"1106 40 OFFCURVE",
"1116 33 CURVE",
"1120 33 LINE",
"1120 29 LINE",
"1146 10 OFFCURVE",
"1175 0 OFFCURVE",
"1207 0 CURVE SMOOTH",
"1247 0 OFFCURVE",
"1285 28 OFFCURVE",
"1301 57 CURVE",
"1301 61 LINE",
"1305 61 LINE",
"1305 57 LINE",
"1332 30 OFFCURVE",
"1383 0 OFFCURVE",
"1434 0 CURVE SMOOTH",
"1519 0 OFFCURVE",
"1584 70 OFFCURVE",
"1584 196 CURVE SMOOTH",
"1584 256 OFFCURVE",
"1563 323 OFFCURVE",
"1550 352 CURVE",
"1483 332 LINE",
"1498 301 OFFCURVE",
"1514 235 OFFCURVE",
"1514 193 CURVE SMOOTH",
"1514 148 OFFCURVE",
"1506 80 OFFCURVE",
"1437 80 CURVE SMOOTH",
"1380 80 OFFCURVE",
"1351 109 OFFCURVE",
"1333 132 CURVE",
"1330 132 LINE",
"1330 136 LINE",
"1332 136 LINE",
"1366 263 LINE",
"1300 282 LINE",
"1262 135 LINE SMOOTH",
"1256 111 OFFCURVE",
"1240 80 OFFCURVE",
"1205 80 CURVE SMOOTH",
"1174 80 OFFCURVE",
"1143 97 OFFCURVE",
"1116 121 CURVE",
"1088 121 LINE"
);
},
{
closed = 1;
nodes = (
"465 -180 OFFCURVE",
"569 -111 OFFCURVE",
"569 51 CURVE SMOOTH",
"569 150 OFFCURVE",
"531 253 OFFCURVE",
"494 322 CURVE",
"556 281 LINE",
"418 281 LINE",
"452 293 LINE",
"478 225 OFFCURVE",
"499 127 OFFCURVE",
"499 46 CURVE SMOOTH",
"499 8 OFFCURVE",
"494 -27 OFFCURVE",
"483 -52 CURVE",
"455 -83 OFFCURVE",
"394 -100 OFFCURVE",
"322 -100 CURVE SMOOTH",
"199 -100 OFFCURVE",
"157 -48 OFFCURVE",
"157 46 CURVE SMOOTH",
"157 87 OFFCURVE",
"165 138 OFFCURVE",
"180 197 CURVE",
"206 173 LINE",
"81 173 LINE",
"137 211 LINE",
"108 138 OFFCURVE",
"90 71 OFFCURVE",
"90 12 CURVE SMOOTH",
"90 -104 OFFCURVE",
"174 -180 OFFCURVE",
"322 -180 CURVE SMOOTH"
);
},
{
closed = 1;
nodes = (
"588 26 LINE",
"592 26 LINE",
"592 22 LINE",
"617 7 OFFCURVE",
"643 0 OFFCURVE",
"669 0 CURVE SMOOTH",
"711 0 OFFCURVE",
"748 18 OFFCURVE",
"775 53 CURVE",
"775 57 LINE",
"779 57 LINE",
"779 53 LINE",
"818 17 OFFCURVE",
"858 0 OFFCURVE",
"905 0 CURVE SMOOTH",
"999 0 OFFCURVE",
"1063 77 OFFCURVE",
"1063 186 CURVE SMOOTH",
"1063 230 OFFCURVE",
"1053 283 OFFCURVE",
"1035 345 CURVE",
"924 345 LINE",
"946 276 OFFCURVE",
"958 217 OFFCURVE",
"958 165 CURVE",
"951 139 OFFCURVE",
"938 130 OFFCURVE",
"905 130 CURVE SMOOTH",
"873 130 OFFCURVE",
"844 141 OFFCURVE",
"819 175 CURVE",
"815 175 LINE",
"815 179 LINE",
"819 179 LINE",
"819 345 LINE",
"713 345 LINE",
"713 169 LINE",
"707 145 OFFCURVE",
"688 130 OFFCURVE",
"661 130 CURVE SMOOTH",
"628 130 OFFCURVE",
"594 146 OFFCURVE",
"578 178 CURVE",
"541 178 LINE"
);
}
);
};
components = (
{
name = "noonghunna-ar";
transform = "{1, 0, 0, 1, 10, 0}";
}
);
guideLines = (
{
position = "{506, 336}";
}
);
layerId = "F3D5F3BC-0862-4A52-BCBD-22F0EED7FFB2";
paths = (
{
closed = 1;
nodes = (
"709 0 OFFCURVE",
"748 18 OFFCURVE",
"775 53 CURVE",
"775 57 LINE",
"779 57 LINE",
"779 53 LINE",
"818 17 OFFCURVE",
"859 0 OFFCURVE",
"904 0 CURVE SMOOTH",
"1000 0 OFFCURVE",
"1068 72 OFFCURVE",
"1068 186 CURVE SMOOTH",
"1068 239 OFFCURVE",
"1054 305 OFFCURVE",
"1028 384 CURVE",
"1089 335 LINE",
"875 335 LINE",
"913 384 LINE",
"943 297 OFFCURVE",
"958 236 OFFCURVE",
"958 169 CURVE",
"951 141 OFFCURVE",
"927 130 OFFCURVE",
"901 130 CURVE SMOOTH",
"871 130 OFFCURVE",
"841 145 OFFCURVE",
"820 171 CURVE",
"816 171 LINE",
"816 175 LINE",
"818 175 LINE",
"818 394 LINE",
"870 335 LINE",
"661 335 LINE",
"708 394 LINE",
"708 169 LINE",
"702 142 OFFCURVE",
"679 130 OFFCURVE",
"651 130 CURVE SMOOTH",
"618 130 OFFCURVE",
"581 147 OFFCURVE",
"567 178 CURVE",
"541 178 LINE",
"588 28 LINE",
"592 28 LINE",
"592 24 LINE",
"614 10 OFFCURVE",
"639 0 OFFCURVE",
"669 0 CURVE SMOOTH"
);
}
);
width = 1108;
}
);
note = "حطي قسمن";
unicode = 0633;
},
{
color = 10;
glyphname = "seen-ar.fina";
lastChange = "2020-05-08 08:55:22 +0000";
layers = (
{
background = {
paths = (
{
closed = 1;
nodes = (
"350 0 LINE SMOOTH",
"417 0 OFFCURVE",
"461 22 OFFCURVE",
"488 52 CURVE",
"488 56 LINE",
"492 56 LINE",
"492 52 LINE",
"527 18 OFFCURVE",
"566 0 OFFCURVE",
"606 0 CURVE SMOOTH",
"645 0 OFFCURVE",
"683 17 OFFCURVE",
"714 52 CURVE",
"714 56 LINE",
"718 56 LINE",
"718 52 LINE",
"752 17 OFFCURVE",
"795 0 OFFCURVE",
"839 0 CURVE SMOOTH",
"917 0 OFFCURVE",
"971 57 OFFCURVE",
"971 144 CURVE SMOOTH",
"971 179 OFFCURVE",
"962 237 OFFCURVE",
"945 295 CURVE",
"972 287 LINE",
"872 287 LINE",
"889 293 LINE",
"908 232 OFFCURVE",
"916 174 OFFCURVE",
"916 130 CURVE",
"911 85 OFFCURVE",
"881 62 OFFCURVE",
"840 62 CURVE SMOOTH",
"800 62 OFFCURVE",
"768 84 OFFCURVE",
"744 117 CURVE",
"740 117 LINE",
"740 121 LINE",
"742 121 LINE",
"742 307 LINE",
"764 287 LINE",
"665 287 LINE",
"687 309 LINE",
"687 130 LINE",
"681 85 OFFCURVE",
"645 62 OFFCURVE",
"606 62 CURVE SMOOTH",
"569 62 OFFCURVE",
"534 83 OFFCURVE",
"514 117 CURVE",
"510 117 LINE",
"510 121 LINE",
"512 121 LINE",
"512 299 LINE",
"534 277 LINE",
"435 277 LINE",
"457 299 LINE",
"457 131 LINE",
"447 73 OFFCURVE",
"405 62 OFFCURVE",
"351 62 CURVE SMOOTH",
"343 62 LINE SMOOTH",
"338 62 OFFCURVE",
"333 57 OFFCURVE",
"333 52 CURVE SMOOTH",
"333 10 LINE SMOOTH",
"333 5 OFFCURVE",
"338 0 OFFCURVE",
"343 0 CURVE SMOOTH"
);
}
);
};
components = (
{
name = "noonghunna-ar";
}
);
guideLines = (
{
angle = 180;
position = "{693, 62}";
},
{
position = "{717, 301}";
},
{
position = "{684, 131}";
}
);
layerId = "4BB9E86A-2C6D-49F0-A7F5-5EF670F2F4E4";
paths = (
{
closed = 1;
nodes = (
"647 0 OFFCURVE",
"684 18 OFFCURVE",
"714 52 CURVE",
"714 56 LINE",
"718 56 LINE",
"718 52 LINE",
"752 17 OFFCURVE",
"795 0 OFFCURVE",
"839 0 CURVE SMOOTH",
"917 0 OFFCURVE",
"971 64 OFFCURVE",
"971 133 CURVE SMOOTH",
"971 179 OFFCURVE",
"962 237 OFFCURVE",
"945 295 CURVE",
"972 287 LINE",
"872 287 LINE",
"889 293 LINE",
"908 232 OFFCURVE",
"916 174 OFFCURVE",
"916 130 CURVE",
"911 85 OFFCURVE",
"881 62 OFFCURVE",
"841 62 CURVE SMOOTH",
"800 62 OFFCURVE",
"768 84 OFFCURVE",
"744 117 CURVE",
"740 117 LINE",
"740 121 LINE",
"742 121 LINE",
"742 307 LINE",
"764 287 LINE",
"665 287 LINE",
"687 309 LINE",
"687 130 LINE",
"681 85 OFFCURVE",
"646 62 OFFCURVE",
"605 62 CURVE SMOOTH",
"570 62 OFFCURVE",
"531 79 OFFCURVE",
"508 110 CURVE",
"515 41 LINE",
"524 30 LINE",
"528 30 LINE",
"528 26 LINE",
"554 8 OFFCURVE",
"581 0 OFFCURVE",
"607 0 CURVE SMOOTH"
);
},
{
closed = 1;
nodes = (
"1060 0 LINE SMOOTH",
"1066 0 OFFCURVE",
"1070 4 OFFCURVE",
"1070 10 CURVE SMOOTH",
"1070 52 LINE SMOOTH",
"1070 58 OFFCURVE",
"1066 62 OFFCURVE",
"1060 62 CURVE SMOOTH",
"1048 62 LINE SMOOTH",
"1013 62 OFFCURVE",
"988 84 OFFCURVE",
"971 139 CURVE",
"946 56 LINE",
"950 56 LINE",
"950 52 LINE",
"976 17 OFFCURVE",
"1004 0 OFFCURVE",
"1042 0 CURVE SMOOTH"
);
}
);
width = 1055;
},
{
background = {
paths = (
{
closed = 1;
nodes = (
"535 46 LINE",
"552 35 LINE",
"557 35 LINE",
"557 31 LINE",
"585 11 OFFCURVE",
"616 0 OFFCURVE",
"642 0 CURVE SMOOTH",
"684 0 OFFCURVE",
"727 20 OFFCURVE",
"749 61 CURVE",
"749 65 LINE",
"753 65 LINE",
"753 61 LINE",
"779 27 OFFCURVE",
"823 0 OFFCURVE",
"870 0 CURVE SMOOTH",
"954 0 OFFCURVE",
"1007 75 OFFCURVE",
"1007 164 CURVE SMOOTH",
"1007 253 OFFCURVE",
"964 354 OFFCURVE",
"946 395 CURVE",
"1035 301 LINE",
"873 301 LINE",
"873 407 LINE",
"904 333 OFFCURVE",
"937 232 OFFCURVE",
"937 140 CURVE",
"929 108 OFFCURVE",
"911 86 OFFCURVE",
"870 86 CURVE SMOOTH",
"824 86 OFFCURVE",
"798 113 OFFCURVE",
"778 141 CURVE",
"775 141 LINE",
"775 146 LINE",
"777 146 LINE",
"777 301 LINE",
"707 301 LINE",
"707 141 LINE",
"699 105 OFFCURVE",
"675 86 OFFCURVE",
"639 86 CURVE SMOOTH",
"606 86 OFFCURVE",
"569 102 OFFCURVE",
"546 134 CURVE",
"535 134 LINE"
);
}
);
};
components = (
{
name = "noonghunna-ar";
transform = "{1, 0, 0, 1, 10, 0}";
}
);
guideLines = (
{
angle = 180;
position = "{703, 61}";
},
{
position = "{727, 132}";
},
{
position = "{727, 301}";
},
{
position = "{870, 335}";
}
);
layerId = "F3D5F3BC-0862-4A52-BCBD-22F0EED7FFB2";
paths = (
{
closed = 1;
nodes = (
"709 0 OFFCURVE",
"748 18 OFFCURVE",
"775 53 CURVE",
"775 57 LINE",
"779 57 LINE",
"779 53 LINE",
"818 17 OFFCURVE",
"859 0 OFFCURVE",
"901 0 CURVE SMOOTH",
"1000 0 OFFCURVE",
"1068 72 OFFCURVE",
"1068 169 CURVE SMOOTH",
"1068 239 OFFCURVE",
"1054 305 OFFCURVE",
"1028 384 CURVE",
"1089 335 LINE",
"875 335 LINE",
"913 384 LINE",
"943 297 OFFCURVE",
"958 236 OFFCURVE",
"958 169 CURVE",
"951 141 OFFCURVE",
"927 130 OFFCURVE",
"901 130 CURVE SMOOTH",
"871 130 OFFCURVE",
"841 145 OFFCURVE",
"820 171 CURVE",
"816 171 LINE",
"816 175 LINE",
"818 175 LINE",
"818 394 LINE",
"870 335 LINE",
"661 335 LINE",
"708 394 LINE",
"708 169 LINE",
"702 142 OFFCURVE",
"679 130 OFFCURVE",
"651 130 CURVE SMOOTH",
"618 130 OFFCURVE",
"581 147 OFFCURVE",
"567 178 CURVE",
"541 178 LINE",
"588 28 LINE",
"592 28 LINE",
"592 24 LINE",
"614 10 OFFCURVE",
"639 0 OFFCURVE",
"669 0 CURVE SMOOTH"
);
},
{
closed = 1;
nodes = (
"1168 0 LINE SMOOTH",
"1174 0 OFFCURVE",
"1178 4 OFFCURVE",
"1178 10 CURVE SMOOTH",
"1178 120 LINE SMOOTH",
"1178 126 OFFCURVE",
"1174 130 OFFCURVE",
"1168 130 CURVE SMOOTH",
"1140 130 LINE SMOOTH",
"1113 130 OFFCURVE",
"1077 149 OFFCURVE",
"1067 199 CURVE",
"1029 57 LINE",
"1033 57 LINE",
"1033 53 LINE",
"1060 18 OFFCURVE",
"1101 0 OFFCURVE",
"1141 0 CURVE SMOOTH"
);
}
);
width = 1163;
}
);
note = "حطي قسمن";
rightMetricsKey = "=-15";
unicode = FEB2;
},
{
color = 10;
glyphname = "seen-ar.medi";
lastChange = "2020-05-08 08:55:22 +0000";
layers = (
{
background = {
paths = (
{
closed = 1;
nodes = (
"725 86 LINE SMOOTH",
"668 86 OFFCURVE",
"646 116 OFFCURVE",
"633 141 CURVE",
"633 164 LINE SMOOTH",
"633 253 OFFCURVE",
"591 354 OFFCURVE",
"572 395 CURVE",
"660 301 LINE",
"499 301 LINE",
"499 407 LINE",
"530 333 OFFCURVE",
"564 232 OFFCURVE",
"564 140 CURVE",
"555 108 OFFCURVE",
"537 86 OFFCURVE",
"496 86 CURVE SMOOTH",
"450 86 OFFCURVE",
"424 113 OFFCURVE",
"404 141 CURVE",
"401 141 LINE",
"401 146 LINE",
"403 146 LINE",
"403 301 LINE",
"333 301 LINE",
"333 140 LINE",
"325 105 OFFCURVE",
"301 86 OFFCURVE",
"265 86 CURVE SMOOTH",
"224 86 OFFCURVE",
"195 109 OFFCURVE",
"175 141 CURVE",
"161 141 LINE",
"134 83 LINE",
"141 65 LINE",
"146 65 LINE",
"146 61 LINE",
"179 21 OFFCURVE",
"225 0 OFFCURVE",
"268 0 CURVE SMOOTH",
"310 0 OFFCURVE",
"353 20 OFFCURVE",
"375 61 CURVE",
"375 65 LINE",
"379 65 LINE",
"379 61 LINE",
"405 27 OFFCURVE",
"449 0 OFFCURVE",
"496 0 CURVE SMOOTH",
"541 0 OFFCURVE",
"582 24 OFFCURVE",
"606 62 CURVE",
"606 65 LINE",
"611 65 LINE",
"611 61 LINE",
"631 30 OFFCURVE",
"667 0 OFFCURVE",
"725 0 CURVE SMOOTH",
"739 0 LINE SMOOTH",
"744 0 OFFCURVE",
"750 5 OFFCURVE",
"750 11 CURVE SMOOTH",
"750 75 LINE SMOOTH",
"750 80 OFFCURVE",
"744 86 OFFCURVE",
"739 86 CURVE SMOOTH"
);
},
{
closed = 1;
nodes = (
"171 141 LINE",
"172 141 LINE",
"172 146 LINE",
"174 146 LINE",
"174 301 LINE",
"104 301 LINE",
"104 140 LINE",
"87 88 OFFCURVE",
"38 86 OFFCURVE",
"4 86 CURVE SMOOTH",
"-14 86 LINE SMOOTH",
"-20 86 OFFCURVE",
"-25 80 OFFCURVE",
"-25 75 CURVE SMOOTH",
"-25 11 LINE SMOOTH",
"-25 5 OFFCURVE",
"-20 0 OFFCURVE",
"-14 0 CURVE SMOOTH",
"5 0 LINE SMOOTH",
"52 0 OFFCURVE",
"104 15 OFFCURVE",
"142 61 CURVE",
"142 65 LINE",
"144 65 LINE"
);
}
);
};
guideLines = (
{
position = "{251, 76}";
},
{
position = "{712, 132}";
},
{
angle = 180;
position = "{132, 56}";
}
);
layerId = "4BB9E86A-2C6D-49F0-A7F5-5EF670F2F4E4";
paths = (
{
closed = 1;
nodes = (
"2 0 LINE SMOOTH",
"69 0 OFFCURVE",
"103 22 OFFCURVE",
"130 52 CURVE",
"130 56 LINE",
"134 56 LINE",
"134 52 LINE",
"169 18 OFFCURVE",
"207 0 OFFCURVE",
"247 0 CURVE SMOOTH",
"286 0 OFFCURVE",
"325 17 OFFCURVE",
"356 52 CURVE",
"356 56 LINE",
"360 56 LINE",
"360 52 LINE",
"394 17 OFFCURVE",
"438 0 OFFCURVE",
"480 0 CURVE SMOOTH",
"558 0 OFFCURVE",
"613 59 OFFCURVE",
"613 134 CURVE SMOOTH",
"613 179 OFFCURVE",
"604 237 OFFCURVE",
"587 295 CURVE",
"614 287 LINE",
"514 287 LINE",
"531 293 LINE",
"550 232 OFFCURVE",
"558 174 OFFCURVE",
"558 130 CURVE",
"553 85 OFFCURVE",
"523 62 OFFCURVE",
"482 62 CURVE SMOOTH",
"442 62 OFFCURVE",
"410 84 OFFCURVE",
"386 117 CURVE",
"382 117 LINE",
"382 121 LINE",
"384 121 LINE",
"384 307 LINE",
"406 287 LINE",
"307 287 LINE",
"329 309 LINE",
"329 130 LINE",
"323 85 OFFCURVE",
"287 62 OFFCURVE",
"248 62 CURVE SMOOTH",
"211 62 OFFCURVE",
"176 83 OFFCURVE",
"156 117 CURVE",
"152 117 LINE",
"152 121 LINE",
"154 121 LINE",
"154 299 LINE",
"176 287 LINE",
"77 287 LINE",
"99 299 LINE",
"99 131 LINE",
"89 73 OFFCURVE",
"55 62 OFFCURVE",
"3 62 CURVE SMOOTH",
"-5 62 LINE SMOOTH",
"-10 62 OFFCURVE",
"-15 57 OFFCURVE",
"-15 52 CURVE SMOOTH",
"-15 10 LINE SMOOTH",
"-15 5 OFFCURVE",
"-10 0 OFFCURVE",
"-5 0 CURVE SMOOTH"
);
},
{
closed = 1;
nodes = (
"717 0 LINE SMOOTH",
"722 0 OFFCURVE",
"727 5 OFFCURVE",
"727 10 CURVE SMOOTH",
"727 52 LINE SMOOTH",
"727 57 OFFCURVE",
"722 62 OFFCURVE",
"717 62 CURVE SMOOTH",
"707 62 LINE SMOOTH",
"673 62 OFFCURVE",
"631 76 OFFCURVE",
"613 144 CURVE",
"589 56 LINE",
"593 56 LINE",
"593 52 LINE",
"620 22 OFFCURVE",
"647 0 OFFCURVE",
"704 0 CURVE SMOOTH"
);
}
);
width = 712;
},
{
background = {
paths = (
{
closed = 1;
nodes = (
"735 86 LINE SMOOTH",
"678 86 OFFCURVE",
"656 116 OFFCURVE",
"643 141 CURVE",
"643 164 LINE SMOOTH",
"643 253 OFFCURVE",
"601 354 OFFCURVE",
"582 395 CURVE",
"670 301 LINE",
"509 301 LINE",
"509 407 LINE",
"540 333 OFFCURVE",
"574 232 OFFCURVE",
"574 140 CURVE",
"565 108 OFFCURVE",
"547 86 OFFCURVE",
"506 86 CURVE SMOOTH",
"460 86 OFFCURVE",
"434 113 OFFCURVE",
"414 141 CURVE",
"411 141 LINE",
"411 146 LINE",
"413 146 LINE",
"413 301 LINE",
"343 301 LINE",
"343 140 LINE",
"335 105 OFFCURVE",
"311 86 OFFCURVE",
"275 86 CURVE SMOOTH",
"234 86 OFFCURVE",
"205 109 OFFCURVE",
"185 141 CURVE",
"171 141 LINE",
"144 83 LINE",
"151 65 LINE",
"156 65 LINE",
"156 61 LINE",
"189 21 OFFCURVE",
"235 0 OFFCURVE",
"278 0 CURVE SMOOTH",
"320 0 OFFCURVE",
"363 20 OFFCURVE",
"385 61 CURVE",
"385 65 LINE",
"389 65 LINE",
"389 61 LINE",
"415 27 OFFCURVE",
"459 0 OFFCURVE",
"506 0 CURVE SMOOTH",
"551 0 OFFCURVE",
"592 24 OFFCURVE",
"616 62 CURVE",
"616 65 LINE",
"621 65 LINE",
"621 61 LINE",
"641 30 OFFCURVE",
"677 0 OFFCURVE",
"735 0 CURVE SMOOTH",
"749 0 LINE SMOOTH",
"754 0 OFFCURVE",
"760 5 OFFCURVE",
"760 11 CURVE SMOOTH",
"760 75 LINE SMOOTH",
"760 80 OFFCURVE",
"754 86 OFFCURVE",
"749 86 CURVE SMOOTH"
);
},
{
closed = 1;
nodes = (
"181 141 LINE",
"182 141 LINE",
"182 146 LINE",
"184 146 LINE",
"184 301 LINE",
"114 301 LINE",
"114 140 LINE",
"97 88 OFFCURVE",
"48 86 OFFCURVE",
"14 86 CURVE SMOOTH",
"-4 86 LINE SMOOTH",
"-10 86 OFFCURVE",
"-15 80 OFFCURVE",
"-15 75 CURVE SMOOTH",
"-15 11 LINE SMOOTH",
"-15 5 OFFCURVE",
"-10 0 OFFCURVE",
"-4 0 CURVE SMOOTH",
"15 0 LINE SMOOTH",
"62 0 OFFCURVE",
"114 15 OFFCURVE",
"152 61 CURVE",
"152 65 LINE",
"154 65 LINE"
);
}
);
};
guideLines = (
{
position = "{261, 76}";
},
{
position = "{722, 132}";
}
);
layerId = "F3D5F3BC-0862-4A52-BCBD-22F0EED7FFB2";
paths = (
{
closed = 1;
nodes = (
"28 0 LINE SMOOTH",
"68 0 OFFCURVE",
"117 18 OFFCURVE",
"144 53 CURVE",
"144 57 LINE",
"148 57 LINE",
"148 53 LINE",
"177 21 OFFCURVE",
"222 0 OFFCURVE",
"272 0 CURVE SMOOTH",
"316 0 OFFCURVE",
"364 16 OFFCURVE",
"394 53 CURVE",
"394 57 LINE",
"398 57 LINE",
"398 53 LINE",
"437 17 OFFCURVE",
"473 0 OFFCURVE",
"519 0 CURVE SMOOTH",
"614 0 OFFCURVE",
"687 72 OFFCURVE",
"687 169 CURVE SMOOTH",
"687 239 OFFCURVE",
"673 305 OFFCURVE",
"647 384 CURVE",
"708 335 LINE",
"494 335 LINE",
"532 384 LINE",
"562 297 OFFCURVE",
"577 236 OFFCURVE",
"577 169 CURVE",
"570 141 OFFCURVE",
"545 130 OFFCURVE",
"519 130 CURVE SMOOTH",
"489 130 OFFCURVE",
"460 145 OFFCURVE",
"439 171 CURVE",
"435 171 LINE",
"435 175 LINE",
"437 175 LINE",
"437 394 LINE",
"489 335 LINE",
"280 335 LINE",
"327 394 LINE",
"327 169 LINE",
"321 142 OFFCURVE",
"294 130 OFFCURVE",
"266 130 CURVE SMOOTH",
"235 130 OFFCURVE",
"210 145 OFFCURVE",
"189 171 CURVE",
"185 171 LINE",
"185 175 LINE",
"187 175 LINE",
"187 394 LINE",
"239 335 LINE",
"30 335 LINE",
"77 394 LINE",
"77 169 LINE",
"71 142 OFFCURVE",
"38 130 OFFCURVE",
"10 130 CURVE SMOOTH",
"-5 130 LINE SMOOTH",
"-11 130 OFFCURVE",
"-15 126 OFFCURVE",
"-15 120 CURVE SMOOTH",
"-15 10 LINE SMOOTH",
"-15 4 OFFCURVE",
"-11 0 OFFCURVE",
"-5 0 CURVE SMOOTH"
);
},
{
closed = 1;
nodes = (
"787 0 LINE SMOOTH",
"793 0 OFFCURVE",
"797 4 OFFCURVE",
"797 10 CURVE SMOOTH",
"797 120 LINE SMOOTH",
"797 126 OFFCURVE",
"793 130 OFFCURVE",
"787 130 CURVE SMOOTH",
"759 130 LINE SMOOTH",
"732 130 OFFCURVE",
"696 149 OFFCURVE",
"686 199 CURVE",
"644 57 LINE",
"648 57 LINE",
"648 53 LINE",
"675 18 OFFCURVE",
"720 0 OFFCURVE",
"760 0 CURVE SMOOTH"
);
}
);
width = 782;
}
);
leftMetricsKey = "=-15";
note = "حطي قسمن";
rightMetricsKey = "=-15";
unicode = FEB4;
},
{
color = 10;
glyphname = "seen-ar.init";
lastChange = "2020-05-08 08:34:35 +0000";
layers = (
{
background = {
paths = (
{
closed = 1;
nodes = (
"566 223 OFFCURVE",
"574 172 OFFCURVE",
"574 126 CURVE",
"562 83 OFFCURVE",
"536 62 OFFCURVE",
"494 62 CURVE SMOOTH",
"453 62 OFFCURVE",
"422 81 OFFCURVE",
"396 117 CURVE",
"387 117 LINE",
"387 146 LINE",
"389 146 LINE",
"389 277 LINE",
"343 277 LINE",
"343 127 LINE",
"334 85 OFFCURVE",
"305 62 OFFCURVE",
"263 62 CURVE SMOOTH",
"222 62 OFFCURVE",
"187 83 OFFCURVE",
"166 117 CURVE",
"158 117 LINE",
"158 146 LINE",
"160 146 LINE",
"160 277 LINE",
"114 277 LINE",
"114 126 LINE",
"95 64 OFFCURVE",
"37 62 OFFCURVE",
"2 62 CURVE SMOOTH",
"-16 62 LINE",
"-16 62 OFFCURVE",
"-15 62 OFFCURVE",
"-15 63 CURVE SMOOTH",
"-15 -1 LINE SMOOTH",
"-15 0 OFFCURVE",
"-15 0 OFFCURVE",
"-16 0 CURVE SMOOTH",
"3 0 LINE SMOOTH",
"54 0 OFFCURVE",
"98 19 OFFCURVE",
"128 53 CURVE",
"128 65 LINE",
"156 65 LINE",
"156 53 LINE",
"185 20 OFFCURVE",
"226 0 OFFCURVE",
"266 0 CURVE SMOOTH",
"307 0 OFFCURVE",
"342 19 OFFCURVE",
"361 52 CURVE",
"361 65 LINE",
"389 65 LINE",
"389 53 LINE",
"416 20 OFFCURVE",
"456 0 OFFCURVE",
"494 0 CURVE SMOOTH",
"567 0 OFFCURVE",
"619 63 OFFCURVE",
"619 152 CURVE SMOOTH",
"619 194 OFFCURVE",
"610 238 OFFCURVE",
"598 277 CURVE",
"551 277 LINE"
);
}
);
};
guideLines = (
{
angle = 180;
position = "{351, 61}";
},
{
position = "{712, 132}";
}
);
layerId = "4BB9E86A-2C6D-49F0-A7F5-5EF670F2F4E4";
paths = (
{
closed = 1;
nodes = (
"2 0 LINE SMOOTH",
"69 0 OFFCURVE",
"113 22 OFFCURVE",
"140 52 CURVE",
"140 56 LINE",
"144 56 LINE",
"144 52 LINE",
"175 22 OFFCURVE",
"214 0 OFFCURVE",
"258 0 CURVE SMOOTH",
"300 0 OFFCURVE",
"341 20 OFFCURVE",
"366 62 CURVE",
"366 66 LINE",
"370 66 LINE",
"370 62 LINE",
"404 27 OFFCURVE",
"442 0 OFFCURVE",
"493 0 CURVE SMOOTH",
"566 0 OFFCURVE",
"623 54 OFFCURVE",
"623 144 CURVE SMOOTH",
"623 179 OFFCURVE",
"614 237 OFFCURVE",
"597 295 CURVE",
"624 287 LINE",
"524 287 LINE",
"541 293 LINE",
"560 232 OFFCURVE",
"568 174 OFFCURVE",
"568 130 CURVE",
"563 87 OFFCURVE",
"535 62 OFFCURVE",
"493 62 CURVE SMOOTH",
"454 62 OFFCURVE",
"420 84 OFFCURVE",
"396 117 CURVE",
"392 117 LINE",
"392 121 LINE",
"394 121 LINE",
"394 307 LINE",
"416 287 LINE",
"317 287 LINE",
"339 309 LINE",
"339 130 LINE",
"333 85 OFFCURVE",
"297 62 OFFCURVE",
"258 62 CURVE SMOOTH",
"221 62 OFFCURVE",
"186 83 OFFCURVE",
"166 117 CURVE",
"162 117 LINE",
"162 121 LINE",
"164 121 LINE",
"164 299 LINE",
"186 277 LINE",
"87 277 LINE",
"109 299 LINE",
"109 131 LINE",
"99 73 OFFCURVE",
"57 62 OFFCURVE",
"3 62 CURVE SMOOTH",
"-5 62 LINE SMOOTH",
"-10 62 OFFCURVE",
"-15 57 OFFCURVE",
"-15 52 CURVE SMOOTH",
"-15 10 LINE SMOOTH",
"-15 5 OFFCURVE",
"-10 0 OFFCURVE",
"-5 0 CURVE SMOOTH"
);
}
);
width = 653;
},
{
background = {
paths = (
{
closed = 1;
nodes = (
"191 141 LINE",
"192 141 LINE",
"192 146 LINE",
"194 146 LINE",
"194 301 LINE",
"124 301 LINE",
"124 140 LINE",
"107 88 OFFCURVE",
"58 86 OFFCURVE",
"24 86 CURVE SMOOTH",
"6 86 LINE SMOOTH",
"0 86 OFFCURVE",
"-5 80 OFFCURVE",
"-5 75 CURVE SMOOTH",
"-5 11 LINE SMOOTH",
"-5 5 OFFCURVE",
"0 0 OFFCURVE",
"6 0 CURVE SMOOTH",
"25 0 LINE SMOOTH",
"72 0 OFFCURVE",
"124 15 OFFCURVE",
"162 61 CURVE",
"162 65 LINE",
"164 65 LINE"
);
},
{
closed = 1;
nodes = (
"154 83 LINE",
"161 65 LINE",
"166 65 LINE",
"166 61 LINE",
"199 21 OFFCURVE",
"245 0 OFFCURVE",
"288 0 CURVE SMOOTH",
"330 0 OFFCURVE",
"373 20 OFFCURVE",
"395 61 CURVE",
"395 65 LINE",
"399 65 LINE",
"399 61 LINE",
"425 27 OFFCURVE",
"469 0 OFFCURVE",
"516 0 CURVE SMOOTH",
"596 0 OFFCURVE",
"653 68 OFFCURVE",
"653 164 CURVE SMOOTH",
"653 253 OFFCURVE",
"611 354 OFFCURVE",
"592 395 CURVE",
"680 301 LINE",
"519 301 LINE",
"519 407 LINE",
"550 333 OFFCURVE",
"584 232 OFFCURVE",
"584 140 CURVE",
"575 108 OFFCURVE",
"557 86 OFFCURVE",
"516 86 CURVE SMOOTH",
"470 86 OFFCURVE",
"444 113 OFFCURVE",
"424 141 CURVE",
"421 141 LINE",
"421 146 LINE",
"423 146 LINE",
"423 301 LINE",
"353 301 LINE",
"353 140 LINE",
"345 105 OFFCURVE",
"321 86 OFFCURVE",
"285 86 CURVE SMOOTH",
"244 86 OFFCURVE",
"215 109 OFFCURVE",
"195 141 CURVE",
"181 141 LINE"
);
}
);
};
guideLines = (
{
angle = 180;
position = "{371, 61}";
},
{
position = "{732, 132}";
}
);
layerId = "F3D5F3BC-0862-4A52-BCBD-22F0EED7FFB2";
paths = (
{
closed = 1;
nodes = (
"28 0 LINE SMOOTH",
"68 0 OFFCURVE",
"117 18 OFFCURVE",
"144 53 CURVE",
"144 57 LINE",
"148 57 LINE",
"148 53 LINE",
"177 21 OFFCURVE",
"222 0 OFFCURVE",
"272 0 CURVE SMOOTH",
"316 0 OFFCURVE",
"364 16 OFFCURVE",
"394 53 CURVE",
"394 57 LINE",
"398 57 LINE",
"398 53 LINE",
"437 17 OFFCURVE",
"473 0 OFFCURVE",
"519 0 CURVE SMOOTH",
"614 0 OFFCURVE",
"687 72 OFFCURVE",
"687 169 CURVE SMOOTH",
"687 239 OFFCURVE",
"673 305 OFFCURVE",
"647 384 CURVE",
"708 335 LINE",
"494 335 LINE",
"532 384 LINE",
"562 297 OFFCURVE",
"577 236 OFFCURVE",
"577 169 CURVE",
"570 141 OFFCURVE",
"545 130 OFFCURVE",
"519 130 CURVE SMOOTH",
"489 130 OFFCURVE",
"460 145 OFFCURVE",
"439 171 CURVE",
"435 171 LINE",
"435 175 LINE",
"437 175 LINE",
"437 394 LINE",
"489 335 LINE",
"280 335 LINE",
"327 394 LINE",
"327 169 LINE",
"321 142 OFFCURVE",
"294 130 OFFCURVE",
"266 130 CURVE SMOOTH",
"235 130 OFFCURVE",
"210 145 OFFCURVE",
"189 171 CURVE",
"185 171 LINE",
"185 175 LINE",
"187 175 LINE",
"187 394 LINE",
"239 335 LINE",
"30 335 LINE",
"77 394 LINE",
"77 169 LINE",
"71 142 OFFCURVE",
"38 130 OFFCURVE",
"10 130 CURVE SMOOTH",
"-5 130 LINE SMOOTH",
"-11 130 OFFCURVE",
"-15 126 OFFCURVE",
"-15 120 CURVE SMOOTH",
"-15 10 LINE SMOOTH",
"-15 4 OFFCURVE",
"-11 0 OFFCURVE",
"-5 0 CURVE SMOOTH"
);
}
);
width = 727;
}
);
leftMetricsKey = "=-15";
note = "حطي قسمن";
unicode = FEB3;
},
{
color = 10;
glyphname = "sad-ar";
lastChange = "2020-05-08 08:35:13 +0000";
layers = (
{
background = {
paths = (
{
closed = 1;
nodes = (
"835 0 LINE SMOOTH",
"1050 0 OFFCURVE",
"1145 64 OFFCURVE",
"1145 180 CURVE SMOOTH",
"1145 278 OFFCURVE",
"1072 373 OFFCURVE",
"959 373 CURVE SMOOTH",
"819 373 OFFCURVE",
"684 254 OFFCURVE",
"613 59 CURVE SMOOTH",
"612 56 OFFCURVE",
"609 49 OFFCURVE",
"609 43 CURVE SMOOTH",
"609 31 OFFCURVE",
"609 20 OFFCURVE",
"609 10 CURVE SMOOTH",
"609 4 OFFCURVE",
"613 0 OFFCURVE",
"619 0 CURVE SMOOTH"
);
},
{
closed = 1;
nodes = (
"673 64 LINE",
"675 64 LINE",
"732 220 OFFCURVE",
"843 318 OFFCURVE",
"958 318 CURVE SMOOTH",
"1043 318 OFFCURVE",
"1092 252 OFFCURVE",
"1092 180 CURVE SMOOTH",
"1092 82 OFFCURVE",
"985 62 OFFCURVE",
"852 62 CURVE SMOOTH",
"677 62 LINE",
"677 60 LINE",
"673 60 LINE"
);
}
);
};
components = (
{
name = "noonghunna-ar.fina";
}
);
layerId = "4BB9E86A-2C6D-49F0-A7F5-5EF670F2F4E4";
paths = (
{
closed = 1;
nodes = (
"815 0 LINE SMOOTH",
"1030 0 OFFCURVE",
"1125 64 OFFCURVE",
"1125 180 CURVE SMOOTH",
"1125 278 OFFCURVE",
"1054 373 OFFCURVE",
"935 373 CURVE SMOOTH",
"801 373 OFFCURVE",
"664 254 OFFCURVE",
"593 59 CURVE",
"591 54 OFFCURVE",
"588 49 OFFCURVE",
"590 43 CURVE",
"599 10 LINE",
"601 4 OFFCURVE",
"603 0 OFFCURVE",
"609 0 CURVE SMOOTH"
);
},
{
closed = 1;
nodes = (
"653 64 LINE",
"655 64 LINE",
"712 220 OFFCURVE",
"825 318 OFFCURVE",
"935 318 CURVE SMOOTH",
"1025 318 OFFCURVE",
"1072 250 OFFCURVE",
"1072 183 CURVE SMOOTH",
"1072 80 OFFCURVE",
"965 62 OFFCURVE",
"832 62 CURVE SMOOTH",
"657 62 LINE",
"657 60 LINE",
"653 60 LINE"
);
}
);
width = 1155;
},
{
background = {
paths = (
{
closed = 1;
nodes = (
"875 0 LINE SMOOTH",
"1103 0 OFFCURVE",
"1221 69 OFFCURVE",
"1221 208 CURVE SMOOTH",
"1221 332 OFFCURVE",
"1129 441 OFFCURVE",
"1004 441 CURVE SMOOTH",
"888 441 OFFCURVE",
"784 347 OFFCURVE",
"750 291 CURVE",
"750 287 LINE",
"746 287 LINE",
"746 291 LINE",
"748 291 LINE",
"748 708 LINE",
"638 700 LINE",
"638 132 LINE",
"640 132 LINE",
"640 128 LINE",
"636 128 LINE",
"636 130 LINE",
"520 130 LINE SMOOTH",
"514 130 OFFCURVE",
"510 125 OFFCURVE",
"511 120 CURVE SMOOTH",
"537 10 LINE SMOOTH",
"538 4 OFFCURVE",
"541 0 OFFCURVE",
"547 0 CURVE SMOOTH"
);
},
{
closed = 1;
nodes = (
"746 132 LINE",
"748 132 LINE",
"748 137 LINE",
"787 210 OFFCURVE",
"903 316 OFFCURVE",
"1004 316 CURVE SMOOTH",
"1075 316 OFFCURVE",
"1111 263 OFFCURVE",
"1111 212 CURVE SMOOTH",
"1111 148 OFFCURVE",
"1055 130 OFFCURVE",
"882 130 CURVE SMOOTH",
"750 130 LINE",
"750 128 LINE",
"746 128 LINE"
);
}
);
};
components = (
{
name = "noonghunna-ar.fina";
transform = "{1, 0, 0, 1, 10, 0}";
}
);
layerId = "F3D5F3BC-0862-4A52-BCBD-22F0EED7FFB2";
paths = (
{
closed = 1;
nodes = (
"875 0 LINE SMOOTH",
"1103 0 OFFCURVE",
"1221 69 OFFCURVE",
"1221 208 CURVE SMOOTH",
"1221 332 OFFCURVE",
"1129 441 OFFCURVE",
"1005 441 CURVE SMOOTH",
"869 441 OFFCURVE",
"725 309 OFFCURVE",
"657 115 CURVE",
"654 105 OFFCURVE",
"654 91 OFFCURVE",
"657 82 CURVE SMOOTH",
"678 26 LINE SMOOTH",
"683 12 OFFCURVE",
"692 0 OFFCURVE",
"706 0 CURVE SMOOTH"
);
},
{
closed = 1;
nodes = (
"780 132 LINE",
"782 132 LINE",
"838 240 OFFCURVE",
"921 316 OFFCURVE",
"1004 316 CURVE SMOOTH",
"1074 316 OFFCURVE",
"1111 263 OFFCURVE",
"1111 212 CURVE SMOOTH",
"1111 149 OFFCURVE",
"1055 130 OFFCURVE",
"882 130 CURVE SMOOTH",
"784 130 LINE",
"784 128 LINE",
"780 128 LINE"
);
}
);
width = 1261;
}
);
note = "حطي قسمن";
unicode = 0635;
},
{
color = 10;
glyphname = "sad-ar.fina";
lastChange = "2020-05-08 08:55:22 +0000";
layers = (
{
background = {
paths = (
{
closed = 1;
nodes = (
"836 0 LINE SMOOTH",
"927 0 OFFCURVE",
"998 12 OFFCURVE",
"1049 36 CURVE",
"1049 38 LINE",
"1053 38 LINE",
"1053 35 LINE",
"1094 8 OFFCURVE",
"1149 0 OFFCURVE",
"1215 0 CURVE SMOOTH",
"1236 0 LINE SMOOTH",
"1241 0 OFFCURVE",
"1246 5 OFFCURVE",
"1246 10 CURVE SMOOTH",
"1246 70 LINE SMOOTH",
"1246 75 OFFCURVE",
"1241 80 OFFCURVE",
"1236 80 CURVE SMOOTH",
"1220 80 LINE SMOOTH",
"1180 80 OFFCURVE",
"1135 80 OFFCURVE",
"1114 81 CURVE",
"1114 79 LINE",
"1110 79 LINE",
"1110 83 LINE",
"1112 83 LINE",
"1131 108 OFFCURVE",
"1142 138 OFFCURVE",
"1142 174 CURVE SMOOTH",
"1142 277 OFFCURVE",
"1060 371 OFFCURVE",
"964 371 CURVE SMOOTH",
"866 371 OFFCURVE",
"722 289 OFFCURVE",
"649 80 CURVE SMOOTH",
"647 74 OFFCURVE",
"647 68 OFFCURVE",
"649 63 CURVE SMOOTH",
"668 10 LINE SMOOTH",
"670 5 OFFCURVE",
"673 0 OFFCURVE",
"678 0 CURVE SMOOTH"
);
},
{
closed = 1;
nodes = (
"718 82 LINE",
"720 82 LINE",
"772 204 OFFCURVE",
"872 296 OFFCURVE",
"960 296 CURVE SMOOTH",
"1023 296 OFFCURVE",
"1072 238 OFFCURVE",
"1072 173 CURVE SMOOTH",
"1072 117 OFFCURVE",
"1025 80 OFFCURVE",
"842 80 CURVE SMOOTH",
"722 80 LINE",
"722 78 LINE",
"718 78 LINE"
);
}
);
};
components = (
{
name = "noonghunna-ar.fina";
transform = "{1, 0, 0, 1, 10, 0}";
}
);
layerId = "4BB9E86A-2C6D-49F0-A7F5-5EF670F2F4E4";
paths = (
{
closed = 1;
nodes = (
"663 64 LINE",
"665 64 LINE",
"722 220 OFFCURVE",
"835 318 OFFCURVE",
"945 318 CURVE SMOOTH",
"1035 318 OFFCURVE",
"1082 250 OFFCURVE",
"1082 183 CURVE SMOOTH",
"1082 80 OFFCURVE",
"975 62 OFFCURVE",
"842 62 CURVE SMOOTH",
"667 62 LINE",
"667 60 LINE",
"663 60 LINE"
);
},
{
closed = 1;
nodes = (
"1039 38 LINE",
"1043 38 LINE",
"1043 34 LINE",
"1076 12 OFFCURVE",
"1111 0 OFFCURVE",
"1157 0 CURVE SMOOTH",
"1206 0 LINE SMOOTH",
"1212 0 OFFCURVE",
"1215 5 OFFCURVE",
"1215 11 CURVE SMOOTH",
"1215 52 LINE SMOOTH",
"1215 58 OFFCURVE",
"1211 62 OFFCURVE",
"1205 62 CURVE SMOOTH",
"1178 62 LINE SMOOTH",
"1129 62 OFFCURVE",
"1116 63 OFFCURVE",
"1093 67 CURVE",
"1093 65 LINE",
"1089 65 LINE",
"1089 69 LINE",
"1091 69 LINE",
"1121 98 OFFCURVE",
"1135 135 OFFCURVE",
"1135 180 CURVE SMOOTH",
"1135 278 OFFCURVE",
"1064 373 OFFCURVE",
"945 373 CURVE SMOOTH",
"811 373 OFFCURVE",
"674 254 OFFCURVE",
"603 59 CURVE",
"601 54 OFFCURVE",
"598 49 OFFCURVE",
"600 43 CURVE",
"609 10 LINE",
"611 4 OFFCURVE",
"613 0 OFFCURVE",
"619 0 CURVE SMOOTH",
"825 0 LINE SMOOTH",
"918 0 OFFCURVE",
"989 12 OFFCURVE",
"1039 35 CURVE"
);
}
);
width = 1200;
},
{
background = {
paths = (
{
closed = 1;
nodes = (
"826 0 LINE SMOOTH",
"917 0 OFFCURVE",
"988 12 OFFCURVE",
"1039 36 CURVE",
"1039 38 LINE",
"1043 38 LINE",
"1043 35 LINE",
"1084 8 OFFCURVE",
"1139 0 OFFCURVE",
"1205 0 CURVE SMOOTH",
"1226 0 LINE SMOOTH",
"1231 0 OFFCURVE",
"1236 5 OFFCURVE",
"1236 10 CURVE SMOOTH",
"1236 70 LINE SMOOTH",
"1236 75 OFFCURVE",
"1231 80 OFFCURVE",
"1226 80 CURVE SMOOTH",
"1210 80 LINE SMOOTH",
"1170 80 OFFCURVE",
"1125 80 OFFCURVE",
"1104 81 CURVE",
"1104 79 LINE",
"1100 79 LINE",
"1100 83 LINE",
"1102 83 LINE",
"1121 108 OFFCURVE",
"1132 138 OFFCURVE",
"1132 174 CURVE SMOOTH",
"1132 277 OFFCURVE",
"1050 371 OFFCURVE",
"954 371 CURVE SMOOTH",
"856 371 OFFCURVE",
"712 289 OFFCURVE",
"639 80 CURVE SMOOTH",
"637 74 OFFCURVE",
"637 68 OFFCURVE",
"639 63 CURVE SMOOTH",
"658 10 LINE SMOOTH",
"660 5 OFFCURVE",
"663 0 OFFCURVE",
"668 0 CURVE SMOOTH"
);
},
{
closed = 1;
nodes = (
"708 82 LINE",
"710 82 LINE",
"762 204 OFFCURVE",
"862 296 OFFCURVE",
"950 296 CURVE SMOOTH",
"1013 296 OFFCURVE",
"1062 238 OFFCURVE",
"1062 173 CURVE SMOOTH",
"1062 117 OFFCURVE",
"1015 80 OFFCURVE",
"832 80 CURVE SMOOTH",
"712 80 LINE",
"712 78 LINE",
"708 78 LINE"
);
}
);
};
components = (
{
name = "noonghunna-ar.fina";
}
);
layerId = "F3D5F3BC-0862-4A52-BCBD-22F0EED7FFB2";
paths = (
{
closed = 1;
nodes = (
"770 132 LINE",
"772 132 LINE",
"828 240 OFFCURVE",
"911 316 OFFCURVE",
"994 316 CURVE SMOOTH",
"1064 316 OFFCURVE",
"1101 263 OFFCURVE",
"1101 212 CURVE SMOOTH",
"1101 149 OFFCURVE",
"1045 130 OFFCURVE",
"872 130 CURVE SMOOTH",
"774 130 LINE",
"774 128 LINE",
"770 128 LINE"
);
},
{
closed = 1;
nodes = (
"1087 38 LINE",
"1091 38 LINE",
"1091 34 LINE",
"1135 6 OFFCURVE",
"1194 0 OFFCURVE",
"1274 0 CURVE SMOOTH",
"1297 0 LINE SMOOTH",
"1303 0 OFFCURVE",
"1307 4 OFFCURVE",
"1307 10 CURVE SMOOTH",
"1307 120 LINE SMOOTH",
"1307 126 OFFCURVE",
"1303 130 OFFCURVE",
"1297 130 CURVE SMOOTH",
"1290 130 LINE SMOOTH",
"1277 130 OFFCURVE",
"1222 130 OFFCURVE",
"1199 131 CURVE",
"1199 129 LINE",
"1195 129 LINE",
"1195 133 LINE",
"1197 133 LINE",
"1206 155 OFFCURVE",
"1211 180 OFFCURVE",
"1211 208 CURVE SMOOTH",
"1211 332 OFFCURVE",
"1119 441 OFFCURVE",
"995 441 CURVE SMOOTH",
"859 441 OFFCURVE",
"715 309 OFFCURVE",
"647 115 CURVE",
"644 105 OFFCURVE",
"644 91 OFFCURVE",
"647 82 CURVE SMOOTH",
"668 26 LINE SMOOTH",
"673 12 OFFCURVE",
"682 0 OFFCURVE",
"696 0 CURVE SMOOTH",
"865 0 LINE SMOOTH",
"957 0 OFFCURVE",
"1031 11 OFFCURVE",
"1087 34 CURVE"
);
}
);
width = 1292;
}
);
leftMetricsKey = "=40";
note = "حطي قسمن";
rightMetricsKey = "=-15";
unicode = FEBA;
},
{
glyphname = "sad-ar.medi";
lastChange = "2020-05-08 08:35:43 +0000";
layers = (
{
background = {
paths = (
{
closed = 1;
nodes = (
"499 0 LINE SMOOTH",
"714 0 OFFCURVE",
"809 64 OFFCURVE",
"809 180 CURVE SMOOTH",
"809 278 OFFCURVE",
"738 373 OFFCURVE",
"619 373 CURVE SMOOTH",
"485 373 OFFCURVE",
"348 254 OFFCURVE",
"277 59 CURVE",
"275 54 OFFCURVE",
"272 49 OFFCURVE",
"274 43 CURVE",
"283 10 LINE",
"285 4 OFFCURVE",
"287 0 OFFCURVE",
"293 0 CURVE SMOOTH"
);
},
{
closed = 1;
nodes = (
"337 64 LINE",
"339 64 LINE",
"396 220 OFFCURVE",
"509 318 OFFCURVE",
"619 318 CURVE SMOOTH",
"709 318 OFFCURVE",
"756 250 OFFCURVE",
"756 183 CURVE SMOOTH",
"756 80 OFFCURVE",
"649 62 OFFCURVE",
"516 62 CURVE SMOOTH",
"341 62 LINE",
"341 60 LINE",
"337 60 LINE"
);
}
);
};
components = (
{
name = "uniFBE9-ar.medi";
}
);
layerId = "4BB9E86A-2C6D-49F0-A7F5-5EF670F2F4E4";
paths = (
{
closed = 1;
nodes = (
"337 64 LINE",
"339 64 LINE",
"396 220 OFFCURVE",
"509 318 OFFCURVE",
"619 318 CURVE SMOOTH",
"709 318 OFFCURVE",
"756 250 OFFCURVE",
"756 183 CURVE SMOOTH",
"756 80 OFFCURVE",
"649 62 OFFCURVE",
"516 62 CURVE SMOOTH",
"341 62 LINE",
"341 60 LINE",
"337 60 LINE"
);
},
{
closed = 1;
nodes = (
"713 38 LINE",
"717 38 LINE",
"717 34 LINE",
"750 12 OFFCURVE",
"785 0 OFFCURVE",
"831 0 CURVE SMOOTH",
"880 0 LINE SMOOTH",
"886 0 OFFCURVE",
"889 5 OFFCURVE",
"889 11 CURVE SMOOTH",
"889 52 LINE SMOOTH",
"889 58 OFFCURVE",
"885 62 OFFCURVE",
"879 62 CURVE SMOOTH",
"852 62 LINE SMOOTH",
"803 62 OFFCURVE",
"790 63 OFFCURVE",
"767 67 CURVE",
"767 65 LINE",
"763 65 LINE",
"763 69 LINE",
"765 69 LINE",
"795 98 OFFCURVE",
"809 135 OFFCURVE",
"809 180 CURVE SMOOTH",
"809 278 OFFCURVE",
"738 373 OFFCURVE",
"619 373 CURVE SMOOTH",
"485 373 OFFCURVE",
"348 254 OFFCURVE",
"277 59 CURVE",
"275 54 OFFCURVE",
"272 49 OFFCURVE",
"274 43 CURVE",
"283 10 LINE",
"285 4 OFFCURVE",
"287 0 OFFCURVE",
"293 0 CURVE SMOOTH",
"499 0 LINE SMOOTH",
"592 0 OFFCURVE",
"663 12 OFFCURVE",
"713 35 CURVE"
);
}
);
width = 874;
},
{
background = {
paths = (
{
closed = 1;
nodes = (
"528 0 LINE SMOOTH",
"756 0 OFFCURVE",
"874 69 OFFCURVE",
"874 208 CURVE SMOOTH",
"874 332 OFFCURVE",
"782 441 OFFCURVE",
"658 441 CURVE SMOOTH",
"522 441 OFFCURVE",
"378 309 OFFCURVE",
"310 115 CURVE",
"307 105 OFFCURVE",
"307 91 OFFCURVE",
"310 82 CURVE SMOOTH",
"331 26 LINE SMOOTH",
"336 12 OFFCURVE",
"345 0 OFFCURVE",
"359 0 CURVE SMOOTH"
);
},
{
closed = 1;
nodes = (
"433 132 LINE",
"435 132 LINE",
"491 240 OFFCURVE",
"574 316 OFFCURVE",
"657 316 CURVE SMOOTH",
"727 316 OFFCURVE",
"764 263 OFFCURVE",
"764 212 CURVE SMOOTH",
"764 149 OFFCURVE",
"708 130 OFFCURVE",
"535 130 CURVE SMOOTH",
"437 130 LINE",
"437 128 LINE",
"433 128 LINE"
);
}
);
};
components = (
{
name = "uniFBE9-ar.medi";
}
);
layerId = "F3D5F3BC-0862-4A52-BCBD-22F0EED7FFB2";
paths = (
{
closed = 1;
nodes = (
"433 132 LINE",
"435 132 LINE",
"491 240 OFFCURVE",
"574 316 OFFCURVE",
"657 316 CURVE SMOOTH",
"727 316 OFFCURVE",
"764 263 OFFCURVE",
"764 212 CURVE SMOOTH",
"764 149 OFFCURVE",
"708 130 OFFCURVE",
"535 130 CURVE SMOOTH",
"437 130 LINE",
"437 128 LINE",
"433 128 LINE"
);
},
{
closed = 1;
nodes = (
"750 38 LINE",
"754 38 LINE",
"754 34 LINE",
"798 6 OFFCURVE",
"857 0 OFFCURVE",
"937 0 CURVE SMOOTH",
"960 0 LINE SMOOTH",
"966 0 OFFCURVE",
"970 4 OFFCURVE",
"970 10 CURVE SMOOTH",
"970 120 LINE SMOOTH",
"970 126 OFFCURVE",
"966 130 OFFCURVE",
"960 130 CURVE SMOOTH",
"953 130 LINE SMOOTH",
"940 130 OFFCURVE",
"885 130 OFFCURVE",
"862 131 CURVE",
"862 129 LINE",
"858 129 LINE",
"858 133 LINE",
"860 133 LINE",
"869 155 OFFCURVE",
"874 180 OFFCURVE",
"874 208 CURVE SMOOTH",
"874 332 OFFCURVE",
"782 441 OFFCURVE",
"658 441 CURVE SMOOTH",
"522 441 OFFCURVE",
"378 309 OFFCURVE",
"310 115 CURVE",
"307 105 OFFCURVE",
"307 91 OFFCURVE",
"310 82 CURVE SMOOTH",
"331 26 LINE SMOOTH",
"336 12 OFFCURVE",
"345 0 OFFCURVE",
"359 0 CURVE SMOOTH",
"528 0 LINE SMOOTH",
"620 0 OFFCURVE",
"694 11 OFFCURVE",
"750 34 CURVE"
);
}
);
width = 955;
}
);
leftMetricsKey = "=-15";
note = "حطي قسمن";
rightMetricsKey = "=-15";
unicode = FEBC;
},
{
glyphname = "sad-ar.init";
lastChange = "2020-05-08 08:35:52 +0000";
layers = (
{
background = {
paths = (
{
closed = 1;
nodes = (
"276 0 LINE",
"463 0 LINE SMOOTH",
"663 0 OFFCURVE",
"769 56 OFFCURVE",
"769 174 CURVE SMOOTH",
"769 277 OFFCURVE",
"687 371 OFFCURVE",
"591 371 CURVE SMOOTH",
"493 371 OFFCURVE",
"349 289 OFFCURVE",
"276 80 CURVE"
);
},
{
closed = 1;
nodes = (
"345 82 LINE",
"347 82 LINE",
"399 204 OFFCURVE",
"499 296 OFFCURVE",
"587 296 CURVE SMOOTH",
"650 296 OFFCURVE",
"699 238 OFFCURVE",
"699 173 CURVE SMOOTH",
"699 117 OFFCURVE",
"652 80 OFFCURVE",
"469 80 CURVE SMOOTH",
"349 80 LINE",
"349 78 LINE",
"345 78 LINE"
);
},
{
closed = 1;
nodes = (
"283 80 LINE SMOOTH",
"238 80 OFFCURVE",
"199 104 OFFCURVE",
"194 149 CURVE",
"176 388 LINE",
"214 322 LINE",
"74 322 LINE",
"108 348 LINE",
"126 126 LINE",
"95 91 OFFCURVE",
"63 80 OFFCURVE",
"-5 80 CURVE SMOOTH",
"-10 80 OFFCURVE",
"-15 75 OFFCURVE",
"-15 70 CURVE SMOOTH",
"-15 10 LINE SMOOTH",
"-15 5 OFFCURVE",
"-10 0 OFFCURVE",
"-5 0 CURVE SMOOTH",
"17 0 LINE SMOOTH",
"82 0 OFFCURVE",
"125 28 OFFCURVE",
"153 61 CURVE",
"153 65 LINE",
"157 65 LINE",
"157 61 LINE",
"191 13 OFFCURVE",
"232 0 OFFCURVE",
"276 0 CURVE SMOOTH",
"294 0 LINE SMOOTH",
"299 0 OFFCURVE",
"304 5 OFFCURVE",
"304 10 CURVE SMOOTH",
"304 70 LINE SMOOTH",
"304 75 OFFCURVE",
"299 80 OFFCURVE",
"294 80 CURVE SMOOTH"
);
}
);
};
components = (
{
name = "uniFBE9-ar.medi";
}
);
layerId = "4BB9E86A-2C6D-49F0-A7F5-5EF670F2F4E4";
paths = (
{
closed = 1;
nodes = (
"499 0 LINE SMOOTH",
"714 0 OFFCURVE",
"809 64 OFFCURVE",
"809 180 CURVE SMOOTH",
"809 278 OFFCURVE",
"738 373 OFFCURVE",
"619 373 CURVE SMOOTH",
"485 373 OFFCURVE",
"348 254 OFFCURVE",
"277 59 CURVE",
"275 54 OFFCURVE",
"272 49 OFFCURVE",
"274 43 CURVE",
"283 10 LINE",
"285 4 OFFCURVE",
"287 0 OFFCURVE",
"293 0 CURVE SMOOTH"
);
},
{
closed = 1;
nodes = (
"337 64 LINE",
"339 64 LINE",
"396 220 OFFCURVE",
"509 318 OFFCURVE",
"619 318 CURVE SMOOTH",
"709 318 OFFCURVE",
"756 250 OFFCURVE",
"756 183 CURVE SMOOTH",
"756 80 OFFCURVE",
"649 62 OFFCURVE",
"516 62 CURVE SMOOTH",
"341 62 LINE",
"341 60 LINE",
"337 60 LINE"
);
}
);
width = 839;
},
{
background = {
paths = (
{
closed = 1;
nodes = (
"291 0 LINE",
"478 0 LINE SMOOTH",
"678 0 OFFCURVE",
"784 56 OFFCURVE",
"784 174 CURVE SMOOTH",
"784 277 OFFCURVE",
"702 371 OFFCURVE",
"606 371 CURVE SMOOTH",
"508 371 OFFCURVE",
"364 289 OFFCURVE",
"291 80 CURVE"
);
},
{
closed = 1;
nodes = (
"360 82 LINE",
"362 82 LINE",
"414 204 OFFCURVE",
"514 296 OFFCURVE",
"602 296 CURVE SMOOTH",
"665 296 OFFCURVE",
"714 238 OFFCURVE",
"714 173 CURVE SMOOTH",
"714 117 OFFCURVE",
"667 80 OFFCURVE",
"484 80 CURVE SMOOTH",
"364 80 LINE",
"364 78 LINE",
"360 78 LINE"
);
},
{
closed = 1;
nodes = (
"298 80 LINE SMOOTH",
"253 80 OFFCURVE",
"214 104 OFFCURVE",
"209 149 CURVE",
"191 388 LINE",
"229 322 LINE",
"89 322 LINE",
"123 348 LINE",
"141 126 LINE",
"110 91 OFFCURVE",
"78 80 OFFCURVE",
"10 80 CURVE SMOOTH",
"5 80 OFFCURVE",
"0 75 OFFCURVE",
"0 70 CURVE SMOOTH",
"0 10 LINE SMOOTH",
"0 5 OFFCURVE",
"5 0 OFFCURVE",
"10 0 CURVE SMOOTH",
"32 0 LINE SMOOTH",
"97 0 OFFCURVE",
"140 28 OFFCURVE",
"168 61 CURVE",
"168 65 LINE",
"172 65 LINE",
"172 61 LINE",
"206 13 OFFCURVE",
"247 0 OFFCURVE",
"291 0 CURVE SMOOTH",
"309 0 LINE SMOOTH",
"314 0 OFFCURVE",
"319 5 OFFCURVE",
"319 10 CURVE SMOOTH",
"319 70 LINE SMOOTH",
"319 75 OFFCURVE",
"314 80 OFFCURVE",
"309 80 CURVE SMOOTH"
);
}
);
};
components = (
{
name = "uniFBE9-ar.medi";
}
);
layerId = "F3D5F3BC-0862-4A52-BCBD-22F0EED7FFB2";
paths = (
{
closed = 1;
nodes = (
"528 0 LINE SMOOTH",
"756 0 OFFCURVE",
"874 69 OFFCURVE",
"874 208 CURVE SMOOTH",
"874 332 OFFCURVE",
"782 441 OFFCURVE",
"658 441 CURVE SMOOTH",
"522 441 OFFCURVE",
"378 309 OFFCURVE",
"310 115 CURVE",
"307 105 OFFCURVE",
"307 91 OFFCURVE",
"310 82 CURVE SMOOTH",
"331 26 LINE SMOOTH",
"336 12 OFFCURVE",
"345 0 OFFCURVE",
"359 0 CURVE SMOOTH"
);
},
{
closed = 1;
nodes = (
"433 132 LINE",
"435 132 LINE",
"491 240 OFFCURVE",
"574 316 OFFCURVE",
"657 316 CURVE SMOOTH",
"727 316 OFFCURVE",
"764 263 OFFCURVE",
"764 212 CURVE SMOOTH",
"764 149 OFFCURVE",
"708 130 OFFCURVE",
"535 130 CURVE SMOOTH",
"437 130 LINE",
"437 128 LINE",
"433 128 LINE"
);
}
);
width = 914;
}
);
leftMetricsKey = "=-15";
note = "حطي قسمن";
unicode = FEBB;
},
{
color = 10;
glyphname = "tah-ar";
lastChange = "2020-05-08 08:36:12 +0000";
layers = (
{
background = {
paths = (
{
closed = 1;
nodes = (
"-33 11 LINE SMOOTH",
"-31 5 OFFCURVE",
"-23 0 OFFCURVE",
"-18 0 CURVE SMOOTH",
"292 0 LINE SMOOTH",
"506 0 OFFCURVE",
"620 60 OFFCURVE",
"620 186 CURVE SMOOTH",
"620 296 OFFCURVE",
"532 397 OFFCURVE",
"429 397 CURVE SMOOTH",
"337 397 OFFCURVE",
"209 319 OFFCURVE",
"154 195 CURVE",
"154 190 LINE",
"150 190 LINE",
"150 195 LINE",
"150 713 LINE",
"70 702 LINE",
"70 86 LINE",
"-54 86 LINE SMOOTH",
"-62 86 OFFCURVE",
"-66 78 OFFCURVE",
"-64 73 CURVE SMOOTH"
);
},
{
closed = 1;
nodes = (
"154 90 LINE",
"159 90 LINE",
"214 220 OFFCURVE",
"328 317 OFFCURVE",
"421 317 CURVE SMOOTH",
"498 317 OFFCURVE",
"545 255 OFFCURVE",
"545 185 CURVE SMOOTH",
"545 125 OFFCURVE",
"495 86 OFFCURVE",
"299 86 CURVE SMOOTH",
"159 86 LINE",
"154 86 LINE"
);
}
);
};
guideLines = (
{
angle = 90;
position = "{-48, 80}";
}
);
layerId = "4BB9E86A-2C6D-49F0-A7F5-5EF670F2F4E4";
paths = (
{
closed = 1;
nodes = (
"281 0 LINE SMOOTH",
"496 0 OFFCURVE",
"591 64 OFFCURVE",
"591 180 CURVE SMOOTH",
"591 278 OFFCURVE",
"518 373 OFFCURVE",
"405 373 CURVE SMOOTH",
"294 373 OFFCURVE",
"169 280 OFFCURVE",
"123 173 CURVE",
"123 169 LINE",
"119 169 LINE",
"119 173 LINE",
"121 173 LINE",
"121 704 LINE",
"66 700 LINE",
"66 64 LINE",
"68 64 LINE",
"68 60 LINE",
"64 60 LINE",
"64 62 LINE",
"-36 62 LINE SMOOTH",
"-42 62 OFFCURVE",
"-46 58 OFFCURVE",
"-45 52 CURVE SMOOTH",
"-35 10 LINE SMOOTH",
"-34 4 OFFCURVE",
"-31 0 OFFCURVE",
"-25 0 CURVE SMOOTH"
);
},
{
closed = 1;
nodes = (
"119 64 LINE",
"121 64 LINE",
"121 80 LINE",
"180 225 OFFCURVE",
"301 318 OFFCURVE",
"404 318 CURVE SMOOTH",
"489 318 OFFCURVE",
"538 252 OFFCURVE",
"538 180 CURVE SMOOTH",
"538 82 OFFCURVE",
"431 62 OFFCURVE",
"298 62 CURVE SMOOTH",
"123 62 LINE",
"123 60 LINE",
"119 60 LINE"
);
}
);
width = 621;
},
{
background = {
paths = (
{
closed = 1;
nodes = (
"-19 11 LINE SMOOTH",
"-17 5 OFFCURVE",
"-9 0 OFFCURVE",
"-4 0 CURVE SMOOTH",
"306 0 LINE SMOOTH",
"520 0 OFFCURVE",
"634 60 OFFCURVE",
"634 186 CURVE SMOOTH",
"634 296 OFFCURVE",
"546 397 OFFCURVE",
"443 397 CURVE SMOOTH",
"351 397 OFFCURVE",
"223 319 OFFCURVE",
"168 195 CURVE",
"168 190 LINE",
"164 190 LINE",
"164 195 LINE",
"164 713 LINE",
"84 702 LINE",
"84 86 LINE",
"-40 86 LINE SMOOTH",
"-48 86 OFFCURVE",
"-52 78 OFFCURVE",
"-50 73 CURVE SMOOTH"
);
},
{
closed = 1;
nodes = (
"168 90 LINE",
"173 90 LINE",
"228 220 OFFCURVE",
"342 317 OFFCURVE",
"435 317 CURVE SMOOTH",
"512 317 OFFCURVE",
"559 255 OFFCURVE",
"559 185 CURVE SMOOTH",
"559 125 OFFCURVE",
"509 86 OFFCURVE",
"313 86 CURVE SMOOTH",
"173 86 LINE",
"168 86 LINE"
);
}
);
};
guideLines = (
{
angle = 90;
position = "{-34, 80}";
}
);
layerId = "F3D5F3BC-0862-4A52-BCBD-22F0EED7FFB2";
paths = (
{
closed = 1;
nodes = (
"319 0 LINE SMOOTH",
"547 0 OFFCURVE",
"665 69 OFFCURVE",
"665 208 CURVE SMOOTH",
"665 332 OFFCURVE",
"573 441 OFFCURVE",
"448 441 CURVE SMOOTH",
"332 441 OFFCURVE",
"228 347 OFFCURVE",
"194 291 CURVE",
"194 287 LINE",
"190 287 LINE",
"190 291 LINE",
"192 291 LINE",
"192 708 LINE",
"82 700 LINE",
"82 132 LINE",
"84 132 LINE",
"84 128 LINE",
"80 128 LINE",
"80 130 LINE",
"-36 130 LINE SMOOTH",
"-42 130 OFFCURVE",
"-46 125 OFFCURVE",
"-45 120 CURVE SMOOTH",
"-19 10 LINE SMOOTH",
"-18 4 OFFCURVE",
"-15 0 OFFCURVE",
"-9 0 CURVE SMOOTH"
);
},
{
closed = 1;
nodes = (
"190 132 LINE",
"192 132 LINE",
"192 137 LINE",
"231 210 OFFCURVE",
"347 316 OFFCURVE",
"448 316 CURVE SMOOTH",
"519 316 OFFCURVE",
"555 263 OFFCURVE",
"555 212 CURVE SMOOTH",
"555 148 OFFCURVE",
"499 130 OFFCURVE",
"326 130 CURVE SMOOTH",
"194 130 LINE",
"194 128 LINE",
"190 128 LINE"
);
}
);
width = 705;
}
);
leftMetricsKey = "=-45";
note = "حطي قسمن";
unicode = 0637;
},
{
color = 10;
glyphname = "tah-ar.fina";
lastChange = "2020-05-08 08:55:22 +0000";
layers = (
{
background = {
paths = (
{
closed = 1;
nodes = (
"731 0 OFFCURVE",
"736 5 OFFCURVE",
"736 11 CURVE SMOOTH",
"736 75 LINE SMOOTH",
"736 80 OFFCURVE",
"731 86 OFFCURVE",
"725 86 CURVE SMOOTH",
"708 86 LINE SMOOTH",
"665 86 OFFCURVE",
"617 86 OFFCURVE",
"595 87 CURVE",
"595 85 LINE",
"591 85 LINE",
"591 89 LINE",
"593 89 LINE",
"618 121 OFFCURVE",
"625 157 OFFCURVE",
"625 186 CURVE SMOOTH",
"625 296 OFFCURVE",
"537 397 OFFCURVE",
"434 397 CURVE SMOOTH",
"342 397 OFFCURVE",
"214 319 OFFCURVE",
"159 195 CURVE",
"159 190 LINE",
"155 190 LINE",
"155 713 LINE",
"75 702 LINE",
"75 86 LINE",
"-49 86 LINE SMOOTH",
"-57 86 OFFCURVE",
"-61 78 OFFCURVE",
"-59 73 CURVE SMOOTH",
"-28 11 LINE SMOOTH",
"-26 5 OFFCURVE",
"-18 0 OFFCURVE",
"-13 0 CURVE SMOOTH",
"297 0 LINE SMOOTH",
"411 0 OFFCURVE",
"481 17 OFFCURVE",
"525 37 CURVE",
"525 41 LINE",
"530 41 LINE",
"530 37 LINE",
"573 9 OFFCURVE",
"632 0 OFFCURVE",
"703 0 CURVE SMOOTH",
"725 0 LINE SMOOTH"
);
},
{
closed = 1;
nodes = (
"159 90 LINE",
"164 90 LINE",
"220 221 OFFCURVE",
"333 317 OFFCURVE",
"429 317 CURVE SMOOTH",
"502 317 OFFCURVE",
"550 257 OFFCURVE",
"550 185 CURVE SMOOTH",
"550 125 OFFCURVE",
"500 86 OFFCURVE",
"304 86 CURVE SMOOTH",
"159 86 LINE"
);
}
);
};
layerId = "4BB9E86A-2C6D-49F0-A7F5-5EF670F2F4E4";
paths = (
{
closed = 1;
nodes = (
"119 64 LINE",
"121 64 LINE",
"121 80 LINE",
"180 225 OFFCURVE",
"301 318 OFFCURVE",
"404 318 CURVE SMOOTH",
"489 318 OFFCURVE",
"538 252 OFFCURVE",
"538 180 CURVE SMOOTH",
"538 82 OFFCURVE",
"431 62 OFFCURVE",
"298 62 CURVE SMOOTH",
"123 62 LINE",
"123 60 LINE",
"119 60 LINE"
);
},
{
closed = 1;
nodes = (
"497 38 LINE",
"501 38 LINE",
"501 34 LINE",
"534 12 OFFCURVE",
"569 0 OFFCURVE",
"615 0 CURVE SMOOTH",
"664 0 LINE SMOOTH",
"670 0 OFFCURVE",
"673 5 OFFCURVE",
"673 11 CURVE SMOOTH",
"673 52 LINE SMOOTH",
"673 58 OFFCURVE",
"669 62 OFFCURVE",
"663 62 CURVE SMOOTH",
"636 62 LINE SMOOTH",
"587 62 OFFCURVE",
"574 63 OFFCURVE",
"551 67 CURVE",
"551 65 LINE",
"547 65 LINE",
"547 69 LINE",
"549 69 LINE",
"577 97 OFFCURVE",
"591 134 OFFCURVE",
"591 180 CURVE SMOOTH",
"591 278 OFFCURVE",
"518 373 OFFCURVE",
"405 373 CURVE SMOOTH",
"294 373 OFFCURVE",
"169 280 OFFCURVE",
"123 173 CURVE",
"123 169 LINE",
"119 169 LINE",
"119 173 LINE",
"121 173 LINE",
"121 704 LINE",
"66 700 LINE",
"66 64 LINE",
"68 64 LINE",
"68 60 LINE",
"64 60 LINE",
"64 62 LINE",
"-36 62 LINE SMOOTH",
"-42 62 OFFCURVE",
"-46 58 OFFCURVE",
"-45 52 CURVE SMOOTH",
"-35 10 LINE SMOOTH",
"-34 4 OFFCURVE",
"-31 0 OFFCURVE",
"-25 0 CURVE SMOOTH",
"281 0 LINE SMOOTH",
"375 0 OFFCURVE",
"447 11 OFFCURVE",
"497 34 CURVE"
);
}
);
width = 658;
},
{
background = {
paths = (
{
closed = 0;
nodes = (
"-36 130 LINE SMOOTH",
"-42 130 OFFCURVE",
"-46 125 OFFCURVE",
"-45 120 CURVE SMOOTH",
"-19 10 LINE SMOOTH",
"-18 4 OFFCURVE",
"-15 0 OFFCURVE",
"-9 0 CURVE SMOOTH"
);
}
);
};
layerId = "F3D5F3BC-0862-4A52-BCBD-22F0EED7FFB2";
paths = (
{
closed = 1;
nodes = (
"191 132 LINE",
"193 132 LINE",
"193 137 LINE",
"232 210 OFFCURVE",
"348 316 OFFCURVE",
"449 316 CURVE SMOOTH",
"520 316 OFFCURVE",
"556 263 OFFCURVE",
"556 212 CURVE SMOOTH",
"556 148 OFFCURVE",
"500 130 OFFCURVE",
"327 130 CURVE SMOOTH",
"195 130 LINE",
"195 128 LINE",
"191 128 LINE"
);
},
{
closed = 1;
nodes = (
"542 38 LINE",
"546 38 LINE",
"546 34 LINE",
"590 6 OFFCURVE",
"649 0 OFFCURVE",
"729 0 CURVE SMOOTH",
"752 0 LINE SMOOTH",
"758 0 OFFCURVE",
"762 4 OFFCURVE",
"762 10 CURVE SMOOTH",
"762 120 LINE SMOOTH",
"762 126 OFFCURVE",
"758 130 OFFCURVE",
"752 130 CURVE SMOOTH",
"745 130 LINE SMOOTH",
"732 130 OFFCURVE",
"677 130 OFFCURVE",
"654 131 CURVE",
"654 129 LINE",
"650 129 LINE",
"650 133 LINE",
"652 133 LINE",
"661 155 OFFCURVE",
"666 180 OFFCURVE",
"666 208 CURVE SMOOTH",
"666 332 OFFCURVE",
"574 441 OFFCURVE",
"449 441 CURVE SMOOTH",
"333 441 OFFCURVE",
"229 347 OFFCURVE",
"195 291 CURVE",
"195 287 LINE",
"191 287 LINE",
"191 291 LINE",
"193 291 LINE",
"193 708 LINE",
"83 700 LINE",
"83 132 LINE",
"85 132 LINE",
"85 128 LINE",
"81 128 LINE",
"81 130 LINE",
"-36 130 LINE SMOOTH",
"-42 130 OFFCURVE",
"-46 125 OFFCURVE",
"-45 120 CURVE SMOOTH",
"-19 10 LINE SMOOTH",
"-18 4 OFFCURVE",
"-15 0 OFFCURVE",
"-9 0 CURVE SMOOTH",
"320 0 LINE SMOOTH",
"412 0 OFFCURVE",
"486 11 OFFCURVE",
"542 34 CURVE"
);
}
);
width = 747;
}
);
leftMetricsKey = "=-45";
note = "حطي قسمن";
rightMetricsKey = "=-15";
unicode = FEC2;
},
{
color = 10;
glyphname = "tah-ar.medi";
lastChange = "2020-05-08 08:55:22 +0000";
layers = (
{
background = {
paths = (
{
closed = 1;
nodes = (
"331 0 LINE SMOOTH",
"444 0 OFFCURVE",
"515 17 OFFCURVE",
"559 37 CURVE",
"559 41 LINE",
"563 41 LINE",
"563 37 LINE",
"607 9 OFFCURVE",
"666 0 OFFCURVE",
"736 0 CURVE SMOOTH",
"759 0 LINE SMOOTH",
"764 0 OFFCURVE",
"769 5 OFFCURVE",
"769 11 CURVE SMOOTH",
"769 75 LINE SMOOTH",
"769 80 OFFCURVE",
"764 86 OFFCURVE",
"759 86 CURVE SMOOTH",
"742 86 LINE SMOOTH",
"699 86 OFFCURVE",
"651 86 OFFCURVE",
"628 87 CURVE",
"628 85 LINE",
"624 85 LINE",
"624 89 LINE",
"626 89 LINE",
"652 121 OFFCURVE",
"658 157 OFFCURVE",
"658 186 CURVE SMOOTH",
"658 296 OFFCURVE",
"570 397 OFFCURVE",
"468 397 CURVE SMOOTH",
"376 397 OFFCURVE",
"247 319 OFFCURVE",
"193 195 CURVE",
"193 190 LINE",
"188 190 LINE",
"188 195 LINE",
"188 713 LINE",
"108 702 LINE",
"108 86 LINE",
"11 86 LINE SMOOTH",
"5 86 OFFCURVE",
"0 80 OFFCURVE",
"0 75 CURVE SMOOTH",
"0 11 LINE SMOOTH",
"0 5 OFFCURVE",
"5 0 OFFCURVE",
"11 0 CURVE SMOOTH"
);
},
{
closed = 1;
nodes = (
"193 90 LINE",
"197 90 LINE",
"254 221 OFFCURVE",
"366 317 OFFCURVE",
"462 317 CURVE SMOOTH",
"536 317 OFFCURVE",
"583 255 OFFCURVE",
"583 185 CURVE SMOOTH",
"583 125 OFFCURVE",
"533 86 OFFCURVE",
"337 86 CURVE SMOOTH",
"197 86 LINE",
"193 86 LINE"
);
}
);
};
guideLines = (
{
angle = 90;
position = "{138, 113}";
}
);
layerId = "4BB9E86A-2C6D-49F0-A7F5-5EF670F2F4E4";
paths = (
{
closed = 1;
nodes = (
"139 64 LINE",
"141 64 LINE",
"141 80 LINE",
"200 225 OFFCURVE",
"321 318 OFFCURVE",
"424 318 CURVE SMOOTH",
"509 318 OFFCURVE",
"558 252 OFFCURVE",
"558 180 CURVE SMOOTH",
"558 82 OFFCURVE",
"451 62 OFFCURVE",
"318 62 CURVE SMOOTH",
"143 62 LINE",
"143 60 LINE",
"139 60 LINE"
);
},
{
closed = 1;
nodes = (
"517 38 LINE",
"521 38 LINE",
"521 34 LINE",
"554 12 OFFCURVE",
"589 0 OFFCURVE",
"635 0 CURVE SMOOTH",
"684 0 LINE SMOOTH",
"690 0 OFFCURVE",
"693 5 OFFCURVE",
"693 11 CURVE SMOOTH",
"693 52 LINE SMOOTH",
"693 58 OFFCURVE",
"689 62 OFFCURVE",
"683 62 CURVE SMOOTH",
"656 62 LINE SMOOTH",
"607 62 OFFCURVE",
"594 63 OFFCURVE",
"571 67 CURVE",
"571 65 LINE",
"567 65 LINE",
"567 69 LINE",
"569 69 LINE",
"597 97 OFFCURVE",
"611 134 OFFCURVE",
"611 180 CURVE SMOOTH",
"611 278 OFFCURVE",
"538 373 OFFCURVE",
"425 373 CURVE SMOOTH",
"314 373 OFFCURVE",
"189 280 OFFCURVE",
"143 173 CURVE",
"143 169 LINE",
"139 169 LINE",
"139 173 LINE",
"141 173 LINE",
"141 704 LINE",
"86 700 LINE",
"86 64 LINE",
"88 64 LINE",
"88 60 LINE",
"84 60 LINE",
"84 62 LINE",
"-5 62 LINE SMOOTH",
"-11 62 OFFCURVE",
"-15 58 OFFCURVE",
"-15 52 CURVE SMOOTH",
"-15 10 LINE SMOOTH",
"-15 4 OFFCURVE",
"-11 0 OFFCURVE",
"-5 0 CURVE SMOOTH",
"301 0 LINE SMOOTH",
"395 0 OFFCURVE",
"467 11 OFFCURVE",
"517 34 CURVE"
);
}
);
width = 678;
},
{
background = {
paths = (
{
closed = 1;
nodes = (
"331 0 LINE SMOOTH",
"444 0 OFFCURVE",
"515 17 OFFCURVE",
"559 37 CURVE",
"559 41 LINE",
"563 41 LINE",
"563 37 LINE",
"607 9 OFFCURVE",
"666 0 OFFCURVE",
"736 0 CURVE SMOOTH",
"759 0 LINE SMOOTH",
"764 0 OFFCURVE",
"769 5 OFFCURVE",
"769 11 CURVE SMOOTH",
"769 75 LINE SMOOTH",
"769 80 OFFCURVE",
"764 86 OFFCURVE",
"759 86 CURVE SMOOTH",
"742 86 LINE SMOOTH",
"699 86 OFFCURVE",
"651 86 OFFCURVE",
"628 87 CURVE",
"628 85 LINE",
"624 85 LINE",
"624 89 LINE",
"626 89 LINE",
"652 121 OFFCURVE",
"658 157 OFFCURVE",
"658 186 CURVE SMOOTH",
"658 296 OFFCURVE",
"570 397 OFFCURVE",
"468 397 CURVE SMOOTH",
"376 397 OFFCURVE",
"247 319 OFFCURVE",
"193 195 CURVE",
"193 190 LINE",
"188 190 LINE",
"188 195 LINE",
"188 713 LINE",
"108 702 LINE",
"108 86 LINE",
"11 86 LINE SMOOTH",
"5 86 OFFCURVE",
"0 80 OFFCURVE",
"0 75 CURVE SMOOTH",
"0 11 LINE SMOOTH",
"0 5 OFFCURVE",
"5 0 OFFCURVE",
"11 0 CURVE SMOOTH"
);
},
{
closed = 1;
nodes = (
"193 90 LINE",
"197 90 LINE",
"254 221 OFFCURVE",
"366 317 OFFCURVE",
"462 317 CURVE SMOOTH",
"536 317 OFFCURVE",
"583 255 OFFCURVE",
"583 185 CURVE SMOOTH",
"583 125 OFFCURVE",
"533 86 OFFCURVE",
"337 86 CURVE SMOOTH",
"197 86 LINE",
"193 86 LINE"
);
}
);
};
guideLines = (
{
angle = 90;
position = "{138, 113}";
}
);
layerId = "F3D5F3BC-0862-4A52-BCBD-22F0EED7FFB2";
paths = (
{
closed = 1;
nodes = (
"196 132 LINE",
"198 132 LINE",
"198 137 LINE",
"237 210 OFFCURVE",
"353 316 OFFCURVE",
"454 316 CURVE SMOOTH",
"525 316 OFFCURVE",
"561 263 OFFCURVE",
"561 212 CURVE SMOOTH",
"561 148 OFFCURVE",
"505 130 OFFCURVE",
"332 130 CURVE SMOOTH",
"200 130 LINE",
"200 128 LINE",
"196 128 LINE"
);
},
{
closed = 1;
nodes = (
"547 38 LINE",
"551 38 LINE",
"551 34 LINE",
"595 6 OFFCURVE",
"654 0 OFFCURVE",
"734 0 CURVE SMOOTH",
"757 0 LINE SMOOTH",
"763 0 OFFCURVE",
"767 4 OFFCURVE",
"767 10 CURVE SMOOTH",
"767 120 LINE SMOOTH",
"767 126 OFFCURVE",
"763 130 OFFCURVE",
"757 130 CURVE SMOOTH",
"750 130 LINE SMOOTH",
"737 130 OFFCURVE",
"682 130 OFFCURVE",
"659 131 CURVE",
"659 129 LINE",
"655 129 LINE",
"655 133 LINE",
"657 133 LINE",
"666 155 OFFCURVE",
"671 180 OFFCURVE",
"671 208 CURVE SMOOTH",
"671 332 OFFCURVE",
"579 441 OFFCURVE",
"454 441 CURVE SMOOTH",
"338 441 OFFCURVE",
"234 347 OFFCURVE",
"200 291 CURVE",
"200 287 LINE",
"196 287 LINE",
"196 291 LINE",
"198 291 LINE",
"198 708 LINE",
"88 700 LINE",
"88 132 LINE",
"90 132 LINE",
"90 128 LINE",
"86 128 LINE",
"86 130 LINE",
"-5 130 LINE SMOOTH",
"-11 130 OFFCURVE",
"-15 125 OFFCURVE",
"-15 120 CURVE SMOOTH",
"-15 10 LINE SMOOTH",
"-15 4 OFFCURVE",
"-11 0 OFFCURVE",
"-5 0 CURVE SMOOTH",
"325 0 LINE SMOOTH",
"417 0 OFFCURVE",
"491 11 OFFCURVE",
"547 34 CURVE"
);
}
);
width = 752;
}
);
leftMetricsKey = "=-15";
note = "حطي قسمن";
rightMetricsKey = "=-15";
unicode = FEC4;
},
{
color = 10;
glyphname = "tah-ar.init";
lastChange = "2020-05-08 08:36:41 +0000";
layers = (
{
background = {
paths = (
{
closed = 1;
nodes = (
"141 80 LINE",
"200 225 OFFCURVE",
"321 318 OFFCURVE",
"424 318 CURVE SMOOTH",
"509 318 OFFCURVE",
"558 252 OFFCURVE",
"558 180 CURVE SMOOTH",
"558 94 OFFCURVE",
"483 62 OFFCURVE",
"304 62 CURVE SMOOTH",
"141 62 LINE"
);
},
{
closed = 1;
nodes = (
"297 0 LINE SMOOTH",
"509 0 OFFCURVE",
"611 59 OFFCURVE",
"611 180 CURVE SMOOTH",
"611 278 OFFCURVE",
"538 373 OFFCURVE",
"425 373 CURVE SMOOTH",
"316 373 OFFCURVE",
"186 278 OFFCURVE",
"141 169 CURVE",
"141 704 LINE",
"86 700 LINE",
"86 62 LINE",
"-5 62 LINE",
"-5 0 LINE"
);
}
);
};
layerId = "4BB9E86A-2C6D-49F0-A7F5-5EF670F2F4E4";
paths = (
{
closed = 1;
nodes = (
"301 0 LINE SMOOTH",
"516 0 OFFCURVE",
"611 64 OFFCURVE",
"611 180 CURVE SMOOTH",
"611 278 OFFCURVE",
"538 373 OFFCURVE",
"425 373 CURVE SMOOTH",
"314 373 OFFCURVE",
"189 280 OFFCURVE",
"143 173 CURVE",
"143 169 LINE",
"139 169 LINE",
"139 173 LINE",
"141 173 LINE",
"141 704 LINE",
"86 700 LINE",
"86 64 LINE",
"88 64 LINE",
"88 60 LINE",
"84 60 LINE",
"84 62 LINE",
"-5 62 LINE SMOOTH",
"-11 62 OFFCURVE",
"-15 58 OFFCURVE",
"-15 52 CURVE SMOOTH",
"-15 10 LINE SMOOTH",
"-15 4 OFFCURVE",
"-11 0 OFFCURVE",
"-5 0 CURVE SMOOTH"
);
},
{
closed = 1;
nodes = (
"139 64 LINE",
"141 64 LINE",
"141 80 LINE",
"200 225 OFFCURVE",
"321 318 OFFCURVE",
"424 318 CURVE SMOOTH",
"509 318 OFFCURVE",
"558 252 OFFCURVE",
"558 180 CURVE SMOOTH",
"558 82 OFFCURVE",
"451 62 OFFCURVE",
"318 62 CURVE SMOOTH",
"143 62 LINE",
"143 60 LINE",
"139 60 LINE"
);
}
);
width = 641;
},
{
background = {
paths = (
{
closed = 1;
nodes = (
"200 128 LINE",
"196 128 LINE",
"196 132 LINE",
"198 132 LINE",
"198 137 LINE",
"261 246 OFFCURVE",
"377 316 OFFCURVE",
"454 316 CURVE SMOOTH",
"516 316 OFFCURVE",
"561 271 OFFCURVE",
"561 207 CURVE SMOOTH",
"561 155 OFFCURVE",
"493 130 OFFCURVE",
"332 130 CURVE SMOOTH",
"200 130 LINE"
);
},
{
closed = 1;
nodes = (
"325 0 LINE SMOOTH",
"553 0 OFFCURVE",
"671 69 OFFCURVE",
"671 208 CURVE SMOOTH",
"671 332 OFFCURVE",
"573 441 OFFCURVE",
"462 441 CURVE SMOOTH",
"367 441 OFFCURVE",
"259 378 OFFCURVE",
"200 291 CURVE",
"200 287 LINE",
"196 287 LINE",
"196 291 LINE",
"198 291 LINE",
"198 708 LINE",
"88 700 LINE",
"88 130 LINE",
"-5 130 LINE SMOOTH",
"-11 130 OFFCURVE",
"-15 125 OFFCURVE",
"-15 120 CURVE SMOOTH",
"-15 10 LINE SMOOTH",
"-15 4 OFFCURVE",
"-11 0 OFFCURVE",
"-5 0 CURVE SMOOTH"
);
}
);
};
layerId = "F3D5F3BC-0862-4A52-BCBD-22F0EED7FFB2";
paths = (
{
closed = 1;
nodes = (
"325 0 LINE SMOOTH",
"553 0 OFFCURVE",
"671 69 OFFCURVE",
"671 208 CURVE SMOOTH",
"671 332 OFFCURVE",
"579 441 OFFCURVE",
"454 441 CURVE SMOOTH",
"338 441 OFFCURVE",
"234 347 OFFCURVE",
"200 291 CURVE",
"200 287 LINE",
"196 287 LINE",
"196 291 LINE",
"198 291 LINE",
"198 708 LINE",
"88 700 LINE",
"88 132 LINE",
"90 132 LINE",
"90 128 LINE",
"86 128 LINE",
"86 130 LINE",
"-5 130 LINE SMOOTH",
"-11 130 OFFCURVE",
"-15 125 OFFCURVE",
"-15 120 CURVE SMOOTH",
"-15 10 LINE SMOOTH",
"-15 4 OFFCURVE",
"-11 0 OFFCURVE",
"-5 0 CURVE SMOOTH"
);
},
{
closed = 1;
nodes = (
"196 132 LINE",
"198 132 LINE",
"198 137 LINE",
"237 210 OFFCURVE",
"353 316 OFFCURVE",
"454 316 CURVE SMOOTH",
"525 316 OFFCURVE",
"561 263 OFFCURVE",
"561 212 CURVE SMOOTH",
"561 148 OFFCURVE",
"505 130 OFFCURVE",
"332 130 CURVE SMOOTH",
"200 130 LINE",
"200 128 LINE",
"196 128 LINE"
);
}
);
width = 711;
}
);
leftMetricsKey = "=-15";
note = "حطي قسمن";
unicode = FEC3;
},
{
glyphname = "zah-ar.fina";
lastChange = "2020-05-08 08:55:25 +0000";
layers = (
{
anchors = (
{
name = bottom;
position = "{393, 0}";
},
{
name = top;
position = "{393, 380}";
}
);
background = {
paths = (
{
closed = 1;
nodes = (
"287 0 LINE SMOOTH",
"362 0 OFFCURVE",
"424 8 OFFCURVE",
"472 24 CURVE",
"472 42 LINE",
"508 42 LINE",
"508 24 LINE",
"549 9 OFFCURVE",
"600 0 OFFCURVE",
"666 0 CURVE SMOOTH",
"687 0 LINE",
"687 80 LINE",
"671 80 LINE SMOOTH",
"631 80 OFFCURVE",
"604 80 OFFCURVE",
"583 82 CURVE",
"583 66 LINE",
"547 66 LINE",
"547 102 LINE",
"576 102 LINE",
"587 123 OFFCURVE",
"593 147 OFFCURVE",
"593 174 CURVE SMOOTH",
"593 277 OFFCURVE",
"511 371 OFFCURVE",
"415 371 CURVE SMOOTH",
"317 371 OFFCURVE",
"210 292 OFFCURVE",
"172 189 CURVE",
"172 153 LINE",
"136 153 LINE",
"136 189 LINE",
"154 189 LINE",
"154 665 LINE",
"74 655 LINE",
"74 80 LINE",
"-30 80 LINE",
"0 0 LINE"
);
},
{
closed = 1;
nodes = (
"150 98 LINE",
"176 98 LINE",
"225 205 OFFCURVE",
"323 296 OFFCURVE",
"411 296 CURVE SMOOTH",
"474 296 OFFCURVE",
"523 238 OFFCURVE",
"523 173 CURVE SMOOTH",
"523 117 OFFCURVE",
"476 80 OFFCURVE",
"293 80 CURVE SMOOTH",
"186 80 LINE",
"186 62 LINE",
"150 62 LINE"
);
},
{
closed = 1;
nodes = (
"462 527 LINE",
"396 593 LINE",
"332 527 LINE",
"396 463 LINE"
);
}
);
};
components = (
{
name = "tah-ar.fina";
},
{
name = "dotabove-ar";
transform = "{1, 0, 0, 1, 93, 67}";
}
);
layerId = "4BB9E86A-2C6D-49F0-A7F5-5EF670F2F4E4";
width = 658;
},
{
anchors = (
{
name = bottom;
position = "{403, 0}";
},
{
name = top;
position = "{403, 380}";
}
);
background = {
paths = (
{
closed = 1;
nodes = (
"287 0 LINE SMOOTH",
"362 0 OFFCURVE",
"424 8 OFFCURVE",
"472 24 CURVE",
"472 42 LINE",
"508 42 LINE",
"508 24 LINE",
"549 9 OFFCURVE",
"600 0 OFFCURVE",
"666 0 CURVE SMOOTH",
"687 0 LINE",
"687 80 LINE",
"671 80 LINE SMOOTH",
"631 80 OFFCURVE",
"604 80 OFFCURVE",
"583 82 CURVE",
"583 66 LINE",
"547 66 LINE",
"547 102 LINE",
"576 102 LINE",
"587 123 OFFCURVE",
"593 147 OFFCURVE",
"593 174 CURVE SMOOTH",
"593 277 OFFCURVE",
"511 371 OFFCURVE",
"415 371 CURVE SMOOTH",
"317 371 OFFCURVE",
"210 292 OFFCURVE",
"172 189 CURVE",
"172 153 LINE",
"136 153 LINE",
"136 189 LINE",
"154 189 LINE",
"154 665 LINE",
"74 655 LINE",
"74 80 LINE",
"-30 80 LINE",
"0 0 LINE"
);
},
{
closed = 1;
nodes = (
"150 98 LINE",
"176 98 LINE",
"225 205 OFFCURVE",
"323 296 OFFCURVE",
"411 296 CURVE SMOOTH",
"474 296 OFFCURVE",
"523 238 OFFCURVE",
"523 173 CURVE SMOOTH",
"523 117 OFFCURVE",
"476 80 OFFCURVE",
"293 80 CURVE SMOOTH",
"186 80 LINE",
"186 62 LINE",
"150 62 LINE"
);
},
{
closed = 1;
nodes = (
"462 527 LINE",
"396 593 LINE",
"332 527 LINE",
"396 463 LINE"
);
}
);
};
components = (
{
name = "tah-ar.fina";
},
{
name = "dotabove-ar";
transform = "{1, 0, 0, 1, 103, 167}";
}
);
layerId = "F3D5F3BC-0862-4A52-BCBD-22F0EED7FFB2";
width = 747;
}
);
note = "حطي قسمن";
unicode = FEC6;
},
{
glyphname = "zah-ar.medi";
lastChange = "2020-05-08 08:55:25 +0000";
layers = (
{
anchors = (
{
name = bottom;
position = "{393, 0}";
},
{
name = top;
position = "{393, 380}";
}
);
background = {
paths = (
{
closed = 1;
nodes = (
"287 0 LINE SMOOTH",
"362 0 OFFCURVE",
"424 8 OFFCURVE",
"472 24 CURVE",
"472 42 LINE",
"508 42 LINE",
"508 24 LINE",
"549 9 OFFCURVE",
"600 0 OFFCURVE",
"666 0 CURVE SMOOTH",
"687 0 LINE",
"687 80 LINE",
"671 80 LINE SMOOTH",
"631 80 OFFCURVE",
"604 80 OFFCURVE",
"583 82 CURVE",
"583 66 LINE",
"547 66 LINE",
"547 102 LINE",
"576 102 LINE",
"587 123 OFFCURVE",
"593 147 OFFCURVE",
"593 174 CURVE SMOOTH",
"593 277 OFFCURVE",
"511 371 OFFCURVE",
"415 371 CURVE SMOOTH",
"317 371 OFFCURVE",
"210 292 OFFCURVE",
"172 189 CURVE",
"172 153 LINE",
"136 153 LINE",
"136 189 LINE",
"154 189 LINE",
"154 665 LINE",
"74 655 LINE",
"74 80 LINE",
"0 80 LINE",
"0 0 LINE"
);
},
{
closed = 1;
nodes = (
"150 98 LINE",
"176 98 LINE",
"225 205 OFFCURVE",
"323 296 OFFCURVE",
"411 296 CURVE SMOOTH",
"474 296 OFFCURVE",
"523 238 OFFCURVE",
"523 173 CURVE SMOOTH",
"523 117 OFFCURVE",
"476 80 OFFCURVE",
"293 80 CURVE SMOOTH",
"186 80 LINE",
"186 62 LINE",
"150 62 LINE"
);
},
{
closed = 1;
nodes = (
"469 529 LINE",
"403 595 LINE",
"339 529 LINE",
"403 465 LINE"
);
}
);
};
components = (
{
name = "tah-ar.medi";
},
{
name = "dotabove-ar";
transform = "{1, 0, 0, 1, 93, 67}";
}
);
layerId = "4BB9E86A-2C6D-49F0-A7F5-5EF670F2F4E4";
width = 678;
},
{
anchors = (
{
name = bottom;
position = "{403, 0}";
},
{
name = top;
position = "{403, 380}";
}
);
background = {
paths = (
{
closed = 1;
nodes = (
"287 0 LINE SMOOTH",
"362 0 OFFCURVE",
"424 8 OFFCURVE",
"472 24 CURVE",
"472 42 LINE",
"508 42 LINE",
"508 24 LINE",
"549 9 OFFCURVE",
"600 0 OFFCURVE",
"666 0 CURVE SMOOTH",
"687 0 LINE",
"687 80 LINE",
"671 80 LINE SMOOTH",
"631 80 OFFCURVE",
"604 80 OFFCURVE",
"583 82 CURVE",
"583 66 LINE",
"547 66 LINE",
"547 102 LINE",
"576 102 LINE",
"587 123 OFFCURVE",
"593 147 OFFCURVE",
"593 174 CURVE SMOOTH",
"593 277 OFFCURVE",
"511 371 OFFCURVE",
"415 371 CURVE SMOOTH",
"317 371 OFFCURVE",
"210 292 OFFCURVE",
"172 189 CURVE",
"172 153 LINE",
"136 153 LINE",
"136 189 LINE",
"154 189 LINE",
"154 665 LINE",
"74 655 LINE",
"74 80 LINE",
"0 80 LINE",
"0 0 LINE"
);
},
{
closed = 1;
nodes = (
"150 98 LINE",
"176 98 LINE",
"225 205 OFFCURVE",
"323 296 OFFCURVE",
"411 296 CURVE SMOOTH",
"474 296 OFFCURVE",
"523 238 OFFCURVE",
"523 173 CURVE SMOOTH",
"523 117 OFFCURVE",
"476 80 OFFCURVE",
"293 80 CURVE SMOOTH",
"186 80 LINE",
"186 62 LINE",
"150 62 LINE"
);
},
{
closed = 1;
nodes = (
"469 529 LINE",
"403 595 LINE",
"339 529 LINE",
"403 465 LINE"
);
}
);
};
components = (
{
name = "tah-ar.medi";
},
{
name = "dotabove-ar";
transform = "{1, 0, 0, 1, 103, 167}";
}
);
layerId = "F3D5F3BC-0862-4A52-BCBD-22F0EED7FFB2";
width = 752;
}
);
note = "حطي قسمن";
unicode = FEC8;
},
{
color = 10;
glyphname = "ain-ar";
lastChange = "2020-05-08 08:37:22 +0000";
layers = (
{
background = {
paths = (
{
closed = 1;
nodes = (
"465 -227 OFFCURVE",
"378 -248 OFFCURVE",
"304 -248 CURVE SMOOTH",
"171 -248 OFFCURVE",
"94 -169 OFFCURVE",
"94 -81 CURVE SMOOTH",
"94 46 OFFCURVE",
"222 107 OFFCURVE",
"366 138 CURVE SMOOTH",
"445 155 LINE",
"442 237 LINE",
"407 230 LINE SMOOTH",
"290 207 OFFCURVE",
"147 236 OFFCURVE",
"147 340 CURVE SMOOTH",
"147 405 OFFCURVE",
"197 440 OFFCURVE",
"250 440 CURVE SMOOTH",
"284 440 OFFCURVE",
"317 429 OFFCURVE",
"343 406 CURVE",
"377 470 LINE",
"341 502 OFFCURVE",
"296 520 OFFCURVE",
"248 520 CURVE SMOOTH",
"160 520 OFFCURVE",
"73 451 OFFCURVE",
"73 345 CURVE SMOOTH",
"73 255 OFFCURVE",
"137 187 OFFCURVE",
"230 168 CURVE",
"90 110 OFFCURVE",
"19 31 OFFCURVE",
"19 -83 CURVE SMOOTH",
"19 -239 OFFCURVE",
"154 -334 OFFCURVE",
"310 -334 CURVE SMOOTH",
"381 -334 OFFCURVE",
"460 -316 OFFCURVE",
"524 -278 CURVE",
"521 -194 LINE"
);
}
);
};
layerId = "4BB9E86A-2C6D-49F0-A7F5-5EF670F2F4E4";
paths = (
{
closed = 1;
nodes = (
"465 -239 OFFCURVE",
"380 -260 OFFCURVE",
"304 -260 CURVE SMOOTH",
"176 -260 OFFCURVE",
"85 -197 OFFCURVE",
"85 -91 CURVE SMOOTH",
"85 17 OFFCURVE",
"177 94 OFFCURVE",
"364 137 CURVE SMOOTH",
"456 158 LINE",
"425 129 LINE",
"421 218 LINE",
"454 214 LINE",
"409 204 LINE SMOOTH",
"260 171 OFFCURVE",
"137 230 OFFCURVE",
"137 330 CURVE SMOOTH",
"137 391 OFFCURVE",
"184 438 OFFCURVE",
"252 438 CURVE SMOOTH",
"288 438 OFFCURVE",
"324 425 OFFCURVE",
"352 401 CURVE",
"329 390 LINE",
"380 473 LINE",
"380 443 LINE",
"345 477 OFFCURVE",
"294 494 OFFCURVE",
"249 494 CURVE SMOOTH",
"157 494 OFFCURVE",
"84 422 OFFCURVE",
"84 331 CURVE SMOOTH",
"84 251 OFFCURVE",
"144 176 OFFCURVE",
"243 159 CURVE",
"247 159 LINE",
"247 155 LINE",
"243 155 LINE",
"108 101 OFFCURVE",
"30 18 OFFCURVE",
"30 -93 CURVE SMOOTH",
"30 -232 OFFCURVE",
"148 -322 OFFCURVE",
"310 -322 CURVE SMOOTH",
"387 -322 OFFCURVE",
"471 -300 OFFCURVE",
"529 -264 CURVE",
"504 -293 LINE",
"500 -191 LINE",
"523 -207 LINE"
);
}
);
width = 503;
},
{
background = {
paths = (
{
closed = 1;
nodes = (
"551 -215 OFFCURVE",
"437 -248 OFFCURVE",
"343 -248 CURVE SMOOTH",
"210 -248 OFFCURVE",
"133 -169 OFFCURVE",
"133 -81 CURVE SMOOTH",
"133 46 OFFCURVE",
"261 106 OFFCURVE",
"405 138 CURVE SMOOTH",
"564 173 LINE",
"485 130 LINE",
"480 268 LINE",
"547 251 LINE",
"446 230 LINE SMOOTH",
"329 205 OFFCURVE",
"186 236 OFFCURVE",
"186 340 CURVE SMOOTH",
"186 405 OFFCURVE",
"236 440 OFFCURVE",
"289 440 CURVE SMOOTH",
"337 440 OFFCURVE",
"382 418 OFFCURVE",
"410 372 CURVE",
"359 364 LINE",
"439 512 LINE",
"444 440 LINE",
"405 490 OFFCURVE",
"349 520 OFFCURVE",
"287 520 CURVE SMOOTH",
"199 520 OFFCURVE",
"112 451 OFFCURVE",
"112 345 CURVE SMOOTH",
"112 252 OFFCURVE",
"180 186 OFFCURVE",
"265 170 CURVE",
"269 170 LINE",
"269 166 LINE",
"265 166 LINE",
"139 114 OFFCURVE",
"58 37 OFFCURVE",
"58 -83 CURVE SMOOTH",
"58 -239 OFFCURVE",
"193 -334 OFFCURVE",
"349 -334 CURVE SMOOTH",
"447 -334 OFFCURVE",
"560 -300 OFFCURVE",
"627 -226 CURVE",
"565 -338 LINE",
"559 -177 LINE",
"596 -165 LINE"
);
}
);
};
layerId = "F3D5F3BC-0862-4A52-BCBD-22F0EED7FFB2";
paths = (
{
closed = 1;
nodes = (
"571 -166 OFFCURVE",
"440 -209 OFFCURVE",
"313 -209 CURVE SMOOTH",
"243 -209 OFFCURVE",
"150 -171 OFFCURVE",
"150 -82 CURVE SMOOTH",
"150 28 OFFCURVE",
"274 95 OFFCURVE",
"409 124 CURVE SMOOTH",
"551 154 LINE",
"495 92 LINE",
"486 314 LINE",
"547 275 LINE",
"442 254 LINE SMOOTH",
"313 228 OFFCURVE",
"204 267 OFFCURVE",
"204 342 CURVE SMOOTH",
"204 385 OFFCURVE",
"239 415 OFFCURVE",
"292 415 CURVE SMOOTH",
"342 415 OFFCURVE",
"391 389 OFFCURVE",
"421 342 CURVE",
"359 342 LINE",
"468 519 LINE",
"475 447 LINE",
"426 507 OFFCURVE",
"358 536 OFFCURVE",
"292 536 CURVE SMOOTH",
"167 536 OFFCURVE",
"94 444 OFFCURVE",
"94 350 CURVE SMOOTH",
"94 281 OFFCURVE",
"133 211 OFFCURVE",
"218 173 CURVE",
"222 173 LINE",
"222 169 LINE",
"218 169 LINE",
"106 110 OFFCURVE",
"40 17 OFFCURVE",
"40 -86 CURVE SMOOTH",
"40 -241 OFFCURVE",
"160 -335 OFFCURVE",
"339 -335 CURVE SMOOTH",
"433 -335 OFFCURVE",
"557 -300 OFFCURVE",
"623 -248 CURVE",
"558 -320 LINE",
"558 -89 LINE",
"623 -117 LINE"
);
}
);
width = 558;
}
);
rightMetricsKey = "=0";
unicode = 0639;
},
{
color = 10;
glyphname = "ain-ar.fina";
lastChange = "2020-05-08 08:38:39 +0000";
layers = (
{
background = {
paths = (
{
closed = 1;
nodes = (
"67 0 LINE SMOOTH",
"129 0 OFFCURVE",
"204 17 OFFCURVE",
"251 48 CURVE",
"251 52 LINE",
"255 52 LINE",
"255 48 LINE",
"308 12 OFFCURVE",
"354 0 OFFCURVE",
"412 0 CURVE SMOOTH",
"486 0 LINE SMOOTH",
"492 0 OFFCURVE",
"496 4 OFFCURVE",
"496 10 CURVE SMOOTH",
"496 52 LINE SMOOTH",
"496 58 OFFCURVE",
"492 62 OFFCURVE",
"486 62 CURVE SMOOTH",
"418 62 LINE SMOOTH",
"374 62 OFFCURVE",
"348 67 OFFCURVE",
"307 80 CURVE",
"303 80 LINE",
"303 84 LINE",
"307 84 LINE",
"383 128 OFFCURVE",
"421 174 OFFCURVE",
"421 232 CURVE SMOOTH",
"421 308 OFFCURVE",
"353 360 OFFCURVE",
"253 360 CURVE SMOOTH",
"196 360 OFFCURVE",
"143 344 OFFCURVE",
"95 317 CURVE",
"71 252 LINE",
"200 87 LINE",
"204 87 LINE",
"204 83 LINE",
"200 83 LINE",
"170 73 OFFCURVE",
"113 62 OFFCURVE",
"46 62 CURVE SMOOTH",
"14 62 LINE SMOOTH",
"8 62 OFFCURVE",
"4 58 OFFCURVE",
"4 52 CURVE SMOOTH",
"4 10 LINE SMOOTH",
"4 4 OFFCURVE",
"8 0 OFFCURVE",
"14 0 CURVE SMOOTH"
);
},
{
closed = 1;
nodes = (
"250 110 LINE",
"128 265 LINE",
"124 265 LINE",
"124 269 LINE",
"128 269 LINE",
"167 291 OFFCURVE",
"208 303 OFFCURVE",
"255 303 CURVE SMOOTH",
"320 303 OFFCURVE",
"369 279 OFFCURVE",
"369 230 CURVE SMOOTH",
"369 187 OFFCURVE",
"332 147 OFFCURVE",
"254 109 CURVE",
"254 106 LINE",
"250 106 LINE"
);
}
);
};
layerId = "4BB9E86A-2C6D-49F0-A7F5-5EF670F2F4E4";
paths = (
{
closed = 1;
nodes = (
"343 -322 OFFCURVE",
"416 -303 OFFCURVE",
"467 -273 CURVE",
"446 -302 LINE",
"442 -197 LINE",
"465 -213 LINE",
"414 -243 OFFCURVE",
"339 -260 OFFCURVE",
"271 -260 CURVE SMOOTH",
"159 -260 OFFCURVE",
"85 -214 OFFCURVE",
"85 -139 CURVE SMOOTH",
"85 -82 OFFCURVE",
"127 -16 OFFCURVE",
"248 50 CURVE",
"248 54 LINE",
"252 54 LINE",
"252 50 LINE",
"305 14 OFFCURVE",
"354 0 OFFCURVE",
"412 0 CURVE SMOOTH",
"476 0 LINE SMOOTH",
"482 0 OFFCURVE",
"486 4 OFFCURVE",
"486 10 CURVE SMOOTH",
"486 52 LINE SMOOTH",
"486 58 OFFCURVE",
"482 62 OFFCURVE",
"476 62 CURVE SMOOTH",
"418 62 LINE SMOOTH",
"374 62 OFFCURVE",
"348 67 OFFCURVE",
"307 80 CURVE",
"303 80 LINE",
"303 84 LINE",
"307 84 LINE",
"383 128 OFFCURVE",
"421 174 OFFCURVE",
"421 232 CURVE SMOOTH",
"421 308 OFFCURVE",
"353 360 OFFCURVE",
"253 360 CURVE SMOOTH",
"196 360 OFFCURVE",
"143 344 OFFCURVE",
"95 317 CURVE",
"71 252 LINE",
"202 86 LINE",
"206 86 LINE",
"206 82 LINE",
"202 82 LINE",
"89 18 OFFCURVE",
"30 -59 OFFCURVE",
"30 -142 CURVE SMOOTH",
"30 -251 OFFCURVE",
"134 -322 OFFCURVE",
"276 -322 CURVE SMOOTH"
);
},
{
closed = 1;
nodes = (
"250 110 LINE",
"128 265 LINE",
"124 265 LINE",
"124 269 LINE",
"128 269 LINE",
"167 291 OFFCURVE",
"208 303 OFFCURVE",
"255 303 CURVE SMOOTH",
"320 303 OFFCURVE",
"369 279 OFFCURVE",
"369 230 CURVE SMOOTH",
"369 187 OFFCURVE",
"332 147 OFFCURVE",
"254 109 CURVE",
"254 106 LINE",
"250 106 LINE"
);
}
);
width = 471;
},
{
background = {
paths = (
{
closed = 1;
nodes = (
"117 0 LINE SMOOTH",
"175 0 OFFCURVE",
"246 18 OFFCURVE",
"302 48 CURVE",
"302 52 LINE",
"306 52 LINE",
"306 48 LINE",
"360 16 OFFCURVE",
"410 0 OFFCURVE",
"466 0 CURVE SMOOTH",
"560 0 LINE SMOOTH",
"566 0 OFFCURVE",
"570 4 OFFCURVE",
"570 10 CURVE SMOOTH",
"570 120 LINE SMOOTH",
"570 126 OFFCURVE",
"566 130 OFFCURVE",
"560 130 CURVE SMOOTH",
"472 130 LINE SMOOTH",
"457 130 OFFCURVE",
"443 131 OFFCURVE",
"430 132 CURVE",
"426 132 LINE",
"426 136 LINE",
"430 136 LINE",
"480 179 OFFCURVE",
"503 224 OFFCURVE",
"503 276 CURVE SMOOTH",
"503 372 OFFCURVE",
"422 438 OFFCURVE",
"305 438 CURVE SMOOTH",
"233 438 OFFCURVE",
"168 413 OFFCURVE",
"123 385 CURVE",
"88 290 LINE",
"201 139 LINE",
"205 139 LINE",
"205 135 LINE",
"201 135 LINE",
"171 132 OFFCURVE",
"133 130 OFFCURVE",
"96 130 CURVE SMOOTH",
"47 130 LINE SMOOTH",
"41 130 OFFCURVE",
"37 126 OFFCURVE",
"37 120 CURVE SMOOTH",
"37 10 LINE SMOOTH",
"37 4 OFFCURVE",
"41 0 OFFCURVE",
"47 0 CURVE SMOOTH"
);
},
{
closed = 1;
nodes = (
"306 183 LINE",
"221 294 LINE",
"219 294 LINE",
"219 298 LINE",
"223 298 LINE",
"242 310 OFFCURVE",
"276 317 OFFCURVE",
"308 317 CURVE SMOOTH",
"352 317 OFFCURVE",
"393 304 OFFCURVE",
"393 272 CURVE SMOOTH",
"393 239 OFFCURVE",
"348 198 OFFCURVE",
"310 182 CURVE",
"310 179 LINE",
"306 179 LINE"
);
}
);
};
layerId = "F3D5F3BC-0862-4A52-BCBD-22F0EED7FFB2";
paths = (
{
closed = 1;
nodes = (
"408 -335 OFFCURVE",
"496 -320 OFFCURVE",
"565 -290 CURVE",
"535 -351 LINE",
"535 -127 LINE",
"561 -166 LINE",
"496 -193 OFFCURVE",
"402 -209 OFFCURVE",
"310 -209 CURVE SMOOTH",
"206 -209 OFFCURVE",
"151 -172 OFFCURVE",
"151 -109 CURVE SMOOTH",
"151 -45 OFFCURVE",
"215 8 OFFCURVE",
"298 55 CURVE",
"298 59 LINE",
"302 59 LINE",
"302 55 LINE",
"356 19 OFFCURVE",
"410 0 OFFCURVE",
"466 0 CURVE SMOOTH",
"560 0 LINE SMOOTH",
"566 0 OFFCURVE",
"570 4 OFFCURVE",
"570 10 CURVE SMOOTH",
"570 120 LINE SMOOTH",
"570 126 OFFCURVE",
"566 130 OFFCURVE",
"560 130 CURVE SMOOTH",
"472 130 LINE SMOOTH",
"457 130 OFFCURVE",
"443 131 OFFCURVE",
"430 132 CURVE SMOOTH",
"426 132 LINE",
"426 136 LINE",
"430 136 LINE",
"480 179 OFFCURVE",
"503 224 OFFCURVE",
"503 276 CURVE SMOOTH",
"503 372 OFFCURVE",
"422 438 OFFCURVE",
"305 438 CURVE SMOOTH",
"233 438 OFFCURVE",
"168 413 OFFCURVE",
"123 385 CURVE",
"88 290 LINE",
"206 133 LINE",
"210 133 LINE",
"210 129 LINE",
"206 129 LINE",
"86 50 OFFCURVE",
"40 -38 OFFCURVE",
"40 -122 CURVE SMOOTH",
"40 -238 OFFCURVE",
"143 -335 OFFCURVE",
"336 -335 CURVE SMOOTH"
);
},
{
closed = 1;
nodes = (
"306 183 LINE",
"221 294 LINE",
"219 294 LINE",
"219 298 LINE",
"223 298 LINE",
"242 310 OFFCURVE",
"276 317 OFFCURVE",
"308 317 CURVE SMOOTH",
"352 317 OFFCURVE",
"393 304 OFFCURVE",
"393 272 CURVE SMOOTH",
"393 239 OFFCURVE",
"348 198 OFFCURVE",
"310 182 CURVE",
"310 179 LINE",
"306 179 LINE"
);
}
);
width = 555;
}
);
rightMetricsKey = "=-15";
unicode = FECA;
},
{
color = 10;
glyphname = "ain-ar.medi";
lastChange = "2020-05-08 08:38:25 +0000";
layers = (
{
background = {
paths = (
{
closed = 1;
nodes = (
"221 110 LINE",
"99 265 LINE",
"95 265 LINE",
"95 269 LINE",
"99 269 LINE",
"138 291 OFFCURVE",
"179 303 OFFCURVE",
"226 303 CURVE SMOOTH",
"291 303 OFFCURVE",
"340 279 OFFCURVE",
"340 230 CURVE SMOOTH",
"340 187 OFFCURVE",
"303 147 OFFCURVE",
"225 109 CURVE",
"225 106 LINE",
"221 106 LINE"
);
},
{
closed = 1;
nodes = (
"60 18 OFFCURVE",
"1 -62 OFFCURVE",
"1 -134 CURVE SMOOTH",
"1 -254 OFFCURVE",
"105 -322 OFFCURVE",
"247 -322 CURVE SMOOTH",
"309 -322 OFFCURVE",
"376 -306 OFFCURVE",
"426 -280 CURVE",
"424 -219 LINE",
"374 -245 OFFCURVE",
"305 -260 OFFCURVE",
"242 -260 CURVE SMOOTH",
"130 -260 OFFCURVE",
"55 -224 OFFCURVE",
"55 -132 CURVE SMOOTH",
"55 -75 OFFCURVE",
"98 -16 OFFCURVE",
"219 50 CURVE",
"219 54 LINE",
"223 54 LINE",
"223 50 LINE",
"276 14 OFFCURVE",
"325 0 OFFCURVE",
"383 0 CURVE SMOOTH",
"457 0 LINE SMOOTH",
"463 0 OFFCURVE",
"467 4 OFFCURVE",
"467 10 CURVE SMOOTH",
"467 52 LINE SMOOTH",
"467 58 OFFCURVE",
"463 62 OFFCURVE",
"457 62 CURVE SMOOTH",
"389 62 LINE SMOOTH",
"345 62 OFFCURVE",
"319 67 OFFCURVE",
"278 80 CURVE",
"274 80 LINE",
"274 84 LINE",
"278 84 LINE",
"354 128 OFFCURVE",
"392 174 OFFCURVE",
"392 232 CURVE SMOOTH",
"392 308 OFFCURVE",
"324 360 OFFCURVE",
"224 360 CURVE SMOOTH",
"167 360 OFFCURVE",
"114 344 OFFCURVE",
"66 317 CURVE",
"42 252 LINE",
"173 86 LINE",
"177 86 LINE",
"177 82 LINE",
"173 82 LINE"
);
}
);
};
guideLines = (
{
angle = 90;
position = "{207, 283}";
},
{
position = "{276, 94}";
}
);
layerId = "4BB9E86A-2C6D-49F0-A7F5-5EF670F2F4E4";
paths = (
{
closed = 1;
nodes = (
"38 0 LINE SMOOTH",
"100 0 OFFCURVE",
"172 17 OFFCURVE",
"219 48 CURVE",
"219 52 LINE",
"223 52 LINE",
"223 48 LINE",
"276 12 OFFCURVE",
"325 0 OFFCURVE",
"383 0 CURVE SMOOTH",
"447 0 LINE SMOOTH",
"453 0 OFFCURVE",
"457 4 OFFCURVE",
"457 10 CURVE SMOOTH",
"457 52 LINE SMOOTH",
"457 58 OFFCURVE",
"453 62 OFFCURVE",
"447 62 CURVE SMOOTH",
"389 62 LINE SMOOTH",
"345 62 OFFCURVE",
"319 67 OFFCURVE",
"278 80 CURVE",
"274 80 LINE",
"274 84 LINE",
"278 84 LINE",
"354 128 OFFCURVE",
"392 174 OFFCURVE",
"392 232 CURVE SMOOTH",
"392 308 OFFCURVE",
"324 360 OFFCURVE",
"224 360 CURVE SMOOTH",
"167 360 OFFCURVE",
"114 344 OFFCURVE",
"66 317 CURVE",
"42 252 LINE",
"173 86 LINE",
"177 86 LINE",
"177 82 LINE",
"173 82 LINE",
"143 72 OFFCURVE",
"84 62 OFFCURVE",
"17 62 CURVE SMOOTH",
"-5 62 LINE SMOOTH",
"-11 62 OFFCURVE",
"-15 58 OFFCURVE",
"-15 52 CURVE SMOOTH",
"-15 10 LINE SMOOTH",
"-15 4 OFFCURVE",
"-11 0 OFFCURVE",
"-5 0 CURVE SMOOTH"
);
},
{
closed = 1;
nodes = (
"221 110 LINE",
"99 265 LINE",
"95 265 LINE",
"95 269 LINE",
"99 269 LINE",
"138 291 OFFCURVE",
"179 303 OFFCURVE",
"226 303 CURVE SMOOTH",
"291 303 OFFCURVE",
"340 279 OFFCURVE",
"340 230 CURVE SMOOTH",
"340 187 OFFCURVE",
"303 147 OFFCURVE",
"225 109 CURVE",
"225 106 LINE",
"221 106 LINE"
);
}
);
width = 442;
},
{
background = {
paths = (
{
closed = 1;
nodes = (
"405 130 OFFCURVE",
"391 131 OFFCURVE",
"378 132 CURVE",
"374 132 LINE",
"374 136 LINE",
"378 136 LINE",
"428 179 OFFCURVE",
"451 222 OFFCURVE",
"451 276 CURVE SMOOTH",
"451 372 OFFCURVE",
"370 438 OFFCURVE",
"253 438 CURVE SMOOTH",
"194 438 OFFCURVE",
"127 418 OFFCURVE",
"71 385 CURVE",
"36 290 LINE",
"146 139 LINE",
"150 139 LINE",
"150 135 LINE",
"146 135 LINE",
"116 132 OFFCURVE",
"81 130 OFFCURVE",
"44 130 CURVE SMOOTH",
"0 130 LINE SMOOTH",
"-6 130 OFFCURVE",
"-10 126 OFFCURVE",
"-10 120 CURVE SMOOTH",
"-10 10 LINE SMOOTH",
"-10 4 OFFCURVE",
"-6 0 OFFCURVE",
"0 0 CURVE SMOOTH",
"65 0 LINE SMOOTH",
"123 0 OFFCURVE",
"194 18 OFFCURVE",
"250 48 CURVE",
"250 52 LINE",
"254 52 LINE",
"254 48 LINE",
"308 16 OFFCURVE",
"358 0 OFFCURVE",
"414 0 CURVE SMOOTH",
"498 0 LINE SMOOTH",
"504 0 OFFCURVE",
"508 4 OFFCURVE",
"508 10 CURVE SMOOTH",
"508 120 LINE SMOOTH",
"508 126 OFFCURVE",
"504 130 OFFCURVE",
"498 130 CURVE SMOOTH",
"420 130 LINE SMOOTH"
);
},
{
closed = 1;
nodes = (
"167 298 LINE",
"171 298 LINE",
"198 310 OFFCURVE",
"222 318 OFFCURVE",
"254 318 CURVE SMOOTH",
"309 318 OFFCURVE",
"341 297 OFFCURVE",
"341 272 CURVE SMOOTH",
"341 249 OFFCURVE",
"316 216 OFFCURVE",
"258 182 CURVE",
"258 179 LINE",
"254 179 LINE",
"254 183 LINE",
"169 294 LINE",
"167 294 LINE"
);
}
);
};
guideLines = (
{
angle = 90;
position = "{236, 283}";
},
{
position = "{305, 94}";
}
);
layerId = "F3D5F3BC-0862-4A52-BCBD-22F0EED7FFB2";
paths = (
{
closed = 1;
nodes = (
"65 0 LINE SMOOTH",
"123 0 OFFCURVE",
"194 18 OFFCURVE",
"250 48 CURVE",
"250 52 LINE",
"254 52 LINE",
"254 48 LINE",
"308 16 OFFCURVE",
"358 0 OFFCURVE",
"414 0 CURVE SMOOTH",
"508 0 LINE SMOOTH",
"514 0 OFFCURVE",
"518 4 OFFCURVE",
"518 10 CURVE SMOOTH",
"518 120 LINE SMOOTH",
"518 126 OFFCURVE",
"514 130 OFFCURVE",
"508 130 CURVE SMOOTH",
"420 130 LINE SMOOTH",
"405 130 OFFCURVE",
"391 131 OFFCURVE",
"378 132 CURVE",
"374 132 LINE",
"374 136 LINE",
"378 136 LINE",
"428 179 OFFCURVE",
"451 224 OFFCURVE",
"451 276 CURVE SMOOTH",
"451 372 OFFCURVE",
"370 438 OFFCURVE",
"253 438 CURVE SMOOTH",
"181 438 OFFCURVE",
"116 413 OFFCURVE",
"71 385 CURVE",
"36 290 LINE",
"149 139 LINE",
"153 139 LINE",
"153 135 LINE",
"149 135 LINE",
"119 132 OFFCURVE",
"81 130 OFFCURVE",
"44 130 CURVE SMOOTH",
"-5 130 LINE SMOOTH",
"-11 130 OFFCURVE",
"-15 126 OFFCURVE",
"-15 120 CURVE SMOOTH",
"-15 10 LINE SMOOTH",
"-15 4 OFFCURVE",
"-11 0 OFFCURVE",
"-5 0 CURVE SMOOTH"
);
},
{
closed = 1;
nodes = (
"254 183 LINE",
"169 294 LINE",
"167 294 LINE",
"167 298 LINE",
"171 298 LINE",
"190 310 OFFCURVE",
"224 317 OFFCURVE",
"256 317 CURVE SMOOTH",
"300 317 OFFCURVE",
"341 304 OFFCURVE",
"341 272 CURVE SMOOTH",
"341 239 OFFCURVE",
"296 198 OFFCURVE",
"258 182 CURVE",
"258 179 LINE",
"254 179 LINE"
);
}
);
width = 503;
}
);
leftMetricsKey = "=-15";
note = "حطي قسمن";
rightMetricsKey = "=-15";
unicode = FECC;
},
{
color = 10;
glyphname = "ain-ar.init";
lastChange = "2020-05-08 08:38:07 +0000";
layers = (
{
background = {
paths = (
{
closed = 1;
nodes = (
"945 0 LINE",
"945 62 LINE",
"896 62 LINE SMOOTH",
"776 62 OFFCURVE",
"686 126 OFFCURVE",
"686 205 CURVE SMOOTH",
"686 258 OFFCURVE",
"727 298 OFFCURVE",
"781 298 CURVE SMOOTH",
"813 298 OFFCURVE",
"843 284 OFFCURVE",
"869 258 CURVE",
"842 252 LINE",
"909 326 LINE",
"905 298 LINE",
"873 334 OFFCURVE",
"827 353 OFFCURVE",
"781 353 CURVE SMOOTH",
"702 353 OFFCURVE",
"633 294 OFFCURVE",
"633 209 CURVE SMOOTH",
"633 151 OFFCURVE",
"665 98 OFFCURVE",
"714 66 CURVE",
"718 66 LINE",
"718 62 LINE",
"714 62 LINE",
"618 62 LINE",
"618 0 LINE"
);
},
{
closed = 1;
nodes = (
"333 410 LINE",
"335 380 LINE",
"297 412 OFFCURVE",
"260 430 OFFCURVE",
"208 430 CURVE SMOOTH",
"118 430 OFFCURVE",
"44 356 OFFCURVE",
"44 262 CURVE SMOOTH",
"44 157 OFFCURVE",
"126 91 OFFCURVE",
"178 66 CURVE",
"182 66 LINE",
"182 62 LINE",
"178 62 LINE",
"-5 62 LINE SMOOTH",
"-11 62 OFFCURVE",
"-15 58 OFFCURVE",
"-15 52 CURVE SMOOTH",
"-15 10 LINE SMOOTH",
"-15 4 OFFCURVE",
"-12 0 OFFCURVE",
"-6 0 CURVE SMOOTH",
"13 0 OFFCURVE",
"72 0 OFFCURVE",
"75 0 CURVE SMOOTH",
"215 0 OFFCURVE",
"309 23 OFFCURVE",
"430 62 CURVE",
"430 125 LINE",
"361 106 OFFCURVE",
"325 101 OFFCURVE",
"287 101 CURVE SMOOTH",
"215 101 OFFCURVE",
"97 165 OFFCURVE",
"97 262 CURVE SMOOTH",
"97 326 OFFCURVE",
"143 375 OFFCURVE",
"209 375 CURVE SMOOTH",
"254 375 OFFCURVE",
"282 360 OFFCURVE",
"309 337 CURVE",
"287 326 LINE"
);
}
);
};
layerId = "4BB9E86A-2C6D-49F0-A7F5-5EF670F2F4E4";
paths = (
{
closed = 1;
nodes = (
"333 408 LINE",
"335 378 LINE",
"297 410 OFFCURVE",
"256 428 OFFCURVE",
"209 428 CURVE SMOOTH",
"114 428 OFFCURVE",
"44 353 OFFCURVE",
"44 258 CURVE SMOOTH",
"44 154 OFFCURVE",
"140 87 OFFCURVE",
"193 66 CURVE",
"197 66 LINE",
"197 62 LINE",
"193 62 LINE",
"-5 62 LINE SMOOTH",
"-11 62 OFFCURVE",
"-15 58 OFFCURVE",
"-15 52 CURVE SMOOTH",
"-15 10 LINE SMOOTH",
"-15 4 OFFCURVE",
"-11 0 OFFCURVE",
"-5 0 CURVE SMOOTH",
"14 0 OFFCURVE",
"81 0 OFFCURVE",
"103 0 CURVE SMOOTH",
"186 0 OFFCURVE",
"333 23 OFFCURVE",
"430 62 CURVE",
"430 125 LINE",
"361 106 OFFCURVE",
"325 100 OFFCURVE",
"276 100 CURVE SMOOTH",
"215 100 OFFCURVE",
"97 161 OFFCURVE",
"97 262 CURVE SMOOTH",
"97 322 OFFCURVE",
"139 373 OFFCURVE",
"211 373 CURVE SMOOTH",
"251 373 OFFCURVE",
"282 358 OFFCURVE",
"309 335 CURVE",
"287 324 LINE"
);
}
);
width = 450;
},
{
background = {
paths = (
{
closed = 1;
nodes = (
"422 476 LINE",
"422 406 LINE",
"383 464 OFFCURVE",
"313 498 OFFCURVE",
"244 498 CURVE SMOOTH",
"131 498 OFFCURVE",
"44 408 OFFCURVE",
"44 296 CURVE SMOOTH",
"44 237 OFFCURVE",
"67 180 OFFCURVE",
"110 134 CURVE",
"114 134 LINE",
"114 130 LINE",
"110 130 LINE",
"-5 130 LINE SMOOTH",
"-11 130 OFFCURVE",
"-15 126 OFFCURVE",
"-15 120 CURVE SMOOTH",
"-15 10 LINE SMOOTH",
"-15 4 OFFCURVE",
"-11 0 OFFCURVE",
"-5 0 CURVE SMOOTH",
"0 0 OFFCURVE",
"28 0 OFFCURVE",
"33 0 CURVE SMOOTH",
"227 0 OFFCURVE",
"373 23 OFFCURVE",
"498 71 CURVE",
"498 204 LINE",
"401 177 OFFCURVE",
"361 168 OFFCURVE",
"321 168 CURVE SMOOTH",
"244 168 OFFCURVE",
"163 233 OFFCURVE",
"163 296 CURVE SMOOTH",
"163 341 OFFCURVE",
"196 373 OFFCURVE",
"243 373 CURVE SMOOTH",
"280 373 OFFCURVE",
"337 363 OFFCURVE",
"376 306 CURVE",
"318 286 LINE"
);
}
);
};
layerId = "F3D5F3BC-0862-4A52-BCBD-22F0EED7FFB2";
paths = (
{
closed = 1;
nodes = (
"422 476 LINE",
"426 407 LINE",
"387 465 OFFCURVE",
"319 498 OFFCURVE",
"247 498 CURVE SMOOTH",
"129 498 OFFCURVE",
"44 408 OFFCURVE",
"44 296 CURVE SMOOTH",
"44 237 OFFCURVE",
"67 180 OFFCURVE",
"110 134 CURVE",
"114 134 LINE",
"114 130 LINE",
"110 130 LINE",
"-5 130 LINE SMOOTH",
"-11 130 OFFCURVE",
"-15 126 OFFCURVE",
"-15 120 CURVE SMOOTH",
"-15 10 LINE SMOOTH",
"-15 4 OFFCURVE",
"-11 0 OFFCURVE",
"-5 0 CURVE SMOOTH",
"0 0 OFFCURVE",
"28 0 OFFCURVE",
"33 0 CURVE SMOOTH",
"227 0 OFFCURVE",
"373 23 OFFCURVE",
"498 71 CURVE",
"498 204 LINE",
"401 176 OFFCURVE",
"359 168 OFFCURVE",
"321 168 CURVE SMOOTH",
"246 168 OFFCURVE",
"163 230 OFFCURVE",
"163 298 CURVE SMOOTH",
"163 339 OFFCURVE",
"193 373 OFFCURVE",
"249 373 CURVE SMOOTH",
"295 373 OFFCURVE",
"347 350 OFFCURVE",
"377 306 CURVE",
"318 286 LINE"
);
}
);
width = 528;
}
);
leftMetricsKey = "=-15";
unicode = FECB;
},
{
glyphname = "ghain-ar.init";
lastChange = "2020-05-08 08:41:21 +0000";
layers = (
{
anchors = (
{
name = bottom;
position = "{199, 0}";
},
{
name = top;
position = "{199, 380}";
}
);
background = {
paths = (
{
closed = 1;
nodes = (
"-20 0 LINE",
"120 0 OFFCURVE",
"201 9 OFFCURVE",
"330 45 CURVE SMOOTH",
"460 81 LINE",
"441 159 LINE",
"361 139 LINE SMOOTH",
"329 131 OFFCURVE",
"298 127 OFFCURVE",
"268 127 CURVE SMOOTH",
"178 127 OFFCURVE",
"110 183 OFFCURVE",
"110 258 CURVE SMOOTH",
"110 327 OFFCURVE",
"151 373 OFFCURVE",
"226 373 CURVE SMOOTH",
"277 373 OFFCURVE",
"315 354 OFFCURVE",
"349 311 CURVE",
"399 369 LINE",
"362 426 OFFCURVE",
"305 459 OFFCURVE",
"230 459 CURVE SMOOTH",
"125 459 OFFCURVE",
"40 377 OFFCURVE",
"40 258 CURVE SMOOTH",
"40 188 OFFCURVE",
"77 123 OFFCURVE",
"126 91 CURVE",
"126 86 LINE",
"0 86 LINE",
"-20 66 LINE"
);
},
{
closed = 1;
nodes = (
"235 579 LINE SMOOTH",
"261 579 OFFCURVE",
"279 594 OFFCURVE",
"279 628 CURVE SMOOTH",
"279 662 OFFCURVE",
"261 677 OFFCURVE",
"235 677 CURVE SMOOTH",
"224 677 LINE SMOOTH",
"197 677 OFFCURVE",
"180 662 OFFCURVE",
"180 628 CURVE SMOOTH",
"180 594 OFFCURVE",
"197 579 OFFCURVE",
"224 579 CURVE SMOOTH"
);
}
);
};
components = (
{
name = "ain-ar.init";
},
{
name = "dotabove-ar";
transform = "{1, 0, 0, 1, -101, 116}";
}
);
layerId = "4BB9E86A-2C6D-49F0-A7F5-5EF670F2F4E4";
width = 450;
},
{
anchors = (
{
name = bottom;
position = "{230, 0}";
},
{
name = top;
position = "{230, 380}";
}
);
background = {
paths = (
{
closed = 1;
nodes = (
"-20 0 LINE",
"120 0 OFFCURVE",
"201 9 OFFCURVE",
"330 45 CURVE SMOOTH",
"460 81 LINE",
"441 159 LINE",
"361 139 LINE SMOOTH",
"329 131 OFFCURVE",
"298 127 OFFCURVE",
"268 127 CURVE SMOOTH",
"178 127 OFFCURVE",
"110 183 OFFCURVE",
"110 258 CURVE SMOOTH",
"110 327 OFFCURVE",
"151 373 OFFCURVE",
"226 373 CURVE SMOOTH",
"277 373 OFFCURVE",
"315 354 OFFCURVE",
"349 311 CURVE",
"399 369 LINE",
"362 426 OFFCURVE",
"305 459 OFFCURVE",
"230 459 CURVE SMOOTH",
"125 459 OFFCURVE",
"40 377 OFFCURVE",
"40 258 CURVE SMOOTH",
"40 188 OFFCURVE",
"77 123 OFFCURVE",
"126 91 CURVE",
"126 86 LINE",
"0 86 LINE",
"-20 66 LINE"
);
},
{
closed = 1;
nodes = (
"235 579 LINE SMOOTH",
"261 579 OFFCURVE",
"279 594 OFFCURVE",
"279 628 CURVE SMOOTH",
"279 662 OFFCURVE",
"261 677 OFFCURVE",
"235 677 CURVE SMOOTH",
"224 677 LINE SMOOTH",
"197 677 OFFCURVE",
"180 662 OFFCURVE",
"180 628 CURVE SMOOTH",
"180 594 OFFCURVE",
"197 579 OFFCURVE",
"224 579 CURVE SMOOTH"
);
}
);
};
components = (
{
name = "ain-ar.init";
},
{
name = "dotabove-ar";
transform = "{1, 0, 0, 1, -70, 247}";
}
);
layerId = "F3D5F3BC-0862-4A52-BCBD-22F0EED7FFB2";
width = 528;
}
);
unicode = FECF;
},
{
glyphname = "feh-ar.fina";
lastChange = "2020-05-11 13:13:29 +0000";
layers = (
{
anchors = (
{
name = bottom;
position = "{679, 0}";
},
{
name = top;
position = "{679, 380}";
}
);
background = {
paths = (
{
closed = 1;
nodes = (
"869 80 LINE SMOOTH",
"817 80 OFFCURVE",
"772 84 OFFCURVE",
"744 90 CURVE",
"740 90 LINE",
"740 94 LINE",
"744 94 LINE",
"800 133 OFFCURVE",
"836 174 OFFCURVE",
"836 230 CURVE SMOOTH",
"836 300 OFFCURVE",
"771 386 OFFCURVE",
"670 386 CURVE SMOOTH",
"570 386 OFFCURVE",
"496 304 OFFCURVE",
"496 230 CURVE SMOOTH",
"496 174 OFFCURVE",
"536 133 OFFCURVE",
"592 94 CURVE",
"596 94 LINE",
"596 90 LINE",
"592 90 LINE",
"539 74 OFFCURVE",
"473 68 OFFCURVE",
"361 68 CURVE SMOOTH",
"184 68 OFFCURVE",
"90 119 OFFCURVE",
"90 219 CURVE SMOOTH",
"90 249 OFFCURVE",
"97 284 OFFCURVE",
"109 323 CURVE",
"62 323 LINE",
"44 272 OFFCURVE",
"30 228 OFFCURVE",
"30 187 CURVE SMOOTH",
"30 58 OFFCURVE",
"142 -12 OFFCURVE",
"361 -12 CURVE SMOOTH",
"511 -12 OFFCURVE",
"594 7 OFFCURVE",
"667 47 CURVE",
"667 51 LINE",
"671 51 LINE",
"671 47 LINE",
"722 18 OFFCURVE",
"795 0 OFFCURVE",
"849 0 CURVE SMOOTH",
"910 0 LINE SMOOTH",
"915 0 OFFCURVE",
"920 5 OFFCURVE",
"920 10 CURVE SMOOTH",
"920 70 LINE SMOOTH",
"920 75 OFFCURVE",
"915 80 OFFCURVE",
"910 80 CURVE SMOOTH"
);
},
{
closed = 1;
nodes = (
"671 122 LINE",
"667 122 LINE",
"667 126 LINE",
"611 157 OFFCURVE",
"576 189 OFFCURVE",
"566 223 CURVE",
"566 254 OFFCURVE",
"596 306 OFFCURVE",
"669 306 CURVE SMOOTH",
"728 306 OFFCURVE",
"766 257 OFFCURVE",
"766 223 CURVE",
"756 189 OFFCURVE",
"731 157 OFFCURVE",
"671 126 CURVE"
);
}
);
};
components = (
{
name = "dotabove-ar";
transform = "{1, 0, 0, 1, 384, 65}";
},
{
name = fina.comp;
}
);
guideLines = (
{
angle = 90;
position = "{669, 122}";
}
);
layerId = "4BB9E86A-2C6D-49F0-A7F5-5EF670F2F4E4";
width = 942;
},
{
anchors = (
{
name = bottom;
position = "{739, 0}";
},
{
name = top;
position = "{739, 380}";
}
);
background = {
paths = (
{
closed = 1;
nodes = (
"879 80 LINE SMOOTH",
"827 80 OFFCURVE",
"782 84 OFFCURVE",
"754 90 CURVE",
"750 90 LINE",
"750 94 LINE",
"754 94 LINE",
"810 133 OFFCURVE",
"846 174 OFFCURVE",
"846 230 CURVE SMOOTH",
"846 300 OFFCURVE",
"781 386 OFFCURVE",
"680 386 CURVE SMOOTH",
"580 386 OFFCURVE",
"506 304 OFFCURVE",
"506 230 CURVE SMOOTH",
"506 174 OFFCURVE",
"546 133 OFFCURVE",
"602 94 CURVE",
"606 94 LINE",
"606 90 LINE",
"602 90 LINE",
"549 74 OFFCURVE",
"483 68 OFFCURVE",
"371 68 CURVE SMOOTH",
"194 68 OFFCURVE",
"100 119 OFFCURVE",
"100 219 CURVE SMOOTH",
"100 249 OFFCURVE",
"107 284 OFFCURVE",
"119 323 CURVE",
"72 323 LINE",
"54 272 OFFCURVE",
"40 228 OFFCURVE",
"40 187 CURVE SMOOTH",
"40 58 OFFCURVE",
"152 -12 OFFCURVE",
"371 -12 CURVE SMOOTH",
"521 -12 OFFCURVE",
"604 7 OFFCURVE",
"677 47 CURVE",
"677 51 LINE",
"681 51 LINE",
"681 47 LINE",
"732 18 OFFCURVE",
"805 0 OFFCURVE",
"859 0 CURVE SMOOTH",
"920 0 LINE SMOOTH",
"925 0 OFFCURVE",
"930 5 OFFCURVE",
"930 10 CURVE SMOOTH",
"930 70 LINE SMOOTH",
"930 75 OFFCURVE",
"925 80 OFFCURVE",
"920 80 CURVE SMOOTH"
);
},
{
closed = 1;
nodes = (
"681 122 LINE",
"677 122 LINE",
"677 126 LINE",
"621 157 OFFCURVE",
"586 189 OFFCURVE",
"576 223 CURVE",
"576 254 OFFCURVE",
"606 306 OFFCURVE",
"679 306 CURVE SMOOTH",
"738 306 OFFCURVE",
"776 257 OFFCURVE",
"776 223 CURVE",
"766 189 OFFCURVE",
"741 157 OFFCURVE",
"681 126 CURVE"
);
}
);
};
components = (
{
name = "dotabove-ar";
transform = "{1, 0, 0, 1, 444, 175}";
},
{
name = fina.comp;
transform = "{1, 0, 0, 1, 10, 0}";
}
);
guideLines = (
{
angle = 90;
position = "{679, 122}";
}
);
layerId = "F3D5F3BC-0862-4A52-BCBD-22F0EED7FFB2";
width = 1027;
}
);
rightMetricsKey = "=-15";
unicode = FED2;
},
{
glyphname = "feh-ar.medi";
lastChange = "2020-05-08 08:44:47 +0000";
layers = (
{
anchors = (
{
name = bottom;
position = "{219, 0}";
},
{
name = top;
position = "{219, 380}";
}
);
background = {
paths = (
{
closed = 1;
nodes = (
"437 80 LINE SMOOTH",
"385 80 OFFCURVE",
"340 84 OFFCURVE",
"312 90 CURVE",
"308 90 LINE",
"308 94 LINE",
"312 94 LINE",
"368 133 OFFCURVE",
"404 184 OFFCURVE",
"404 240 CURVE SMOOTH",
"404 310 OFFCURVE",
"339 391 OFFCURVE",
"238 391 CURVE SMOOTH",
"138 391 OFFCURVE",
"64 314 OFFCURVE",
"64 240 CURVE SMOOTH",
"64 184 OFFCURVE",
"104 133 OFFCURVE",
"160 94 CURVE",
"164 94 LINE",
"164 90 LINE",
"160 90 LINE",
"132 84 OFFCURVE",
"83 80 OFFCURVE",
"31 80 CURVE SMOOTH",
"-10 80 LINE SMOOTH",
"-15 80 OFFCURVE",
"-20 75 OFFCURVE",
"-20 70 CURVE SMOOTH",
"-20 10 LINE SMOOTH",
"-20 5 OFFCURVE",
"-15 0 OFFCURVE",
"-10 0 CURVE SMOOTH",
"51 0 LINE SMOOTH",
"105 0 OFFCURVE",
"188 18 OFFCURVE",
"235 47 CURVE",
"235 51 LINE",
"239 51 LINE",
"239 47 LINE",
"290 18 OFFCURVE",
"363 0 OFFCURVE",
"417 0 CURVE SMOOTH",
"478 0 LINE SMOOTH",
"483 0 OFFCURVE",
"488 5 OFFCURVE",
"488 10 CURVE SMOOTH",
"488 70 LINE SMOOTH",
"488 75 OFFCURVE",
"483 80 OFFCURVE",
"478 80 CURVE SMOOTH"
);
},
{
closed = 1;
nodes = (
"235 126 LINE",
"179 157 OFFCURVE",
"134 192 OFFCURVE",
"134 233 CURVE SMOOTH",
"134 264 OFFCURVE",
"164 311 OFFCURVE",
"237 311 CURVE SMOOTH",
"296 311 OFFCURVE",
"334 267 OFFCURVE",
"334 233 CURVE SMOOTH",
"334 192 OFFCURVE",
"299 157 OFFCURVE",
"239 126 CURVE",
"239 122 LINE",
"235 122 LINE"
);
}
);
};
components = (
{
name = uni06A1medi.comp;
},
{
name = "dotabove-ar";
transform = "{1, 0, 0, 1, -76, 65}";
}
);
layerId = "4BB9E86A-2C6D-49F0-A7F5-5EF670F2F4E4";
width = 484;
},
{
anchors = (
{
name = bottom;
position = "{229, 0}";
},
{
name = top;
position = "{229, 380}";
}
);
background = {
paths = (
{
closed = 1;
nodes = (
"437 80 LINE SMOOTH",
"385 80 OFFCURVE",
"340 84 OFFCURVE",
"312 90 CURVE",
"308 90 LINE",
"308 94 LINE",
"312 94 LINE",
"368 133 OFFCURVE",
"404 184 OFFCURVE",
"404 240 CURVE SMOOTH",
"404 310 OFFCURVE",
"339 391 OFFCURVE",
"238 391 CURVE SMOOTH",
"138 391 OFFCURVE",
"64 314 OFFCURVE",
"64 240 CURVE SMOOTH",
"64 184 OFFCURVE",
"104 133 OFFCURVE",
"160 94 CURVE",
"164 94 LINE",
"164 90 LINE",
"160 90 LINE",
"132 84 OFFCURVE",
"83 80 OFFCURVE",
"31 80 CURVE SMOOTH",
"-10 80 LINE SMOOTH",
"-15 80 OFFCURVE",
"-20 75 OFFCURVE",
"-20 70 CURVE SMOOTH",
"-20 10 LINE SMOOTH",
"-20 5 OFFCURVE",
"-15 0 OFFCURVE",
"-10 0 CURVE SMOOTH",
"51 0 LINE SMOOTH",
"105 0 OFFCURVE",
"188 18 OFFCURVE",
"235 47 CURVE",
"235 51 LINE",
"239 51 LINE",
"239 47 LINE",
"290 18 OFFCURVE",
"363 0 OFFCURVE",
"417 0 CURVE SMOOTH",
"478 0 LINE SMOOTH",
"483 0 OFFCURVE",
"488 5 OFFCURVE",
"488 10 CURVE SMOOTH",
"488 70 LINE SMOOTH",
"488 75 OFFCURVE",
"483 80 OFFCURVE",
"478 80 CURVE SMOOTH"
);
},
{
closed = 1;
nodes = (
"235 126 LINE",
"179 157 OFFCURVE",
"134 192 OFFCURVE",
"134 233 CURVE SMOOTH",
"134 264 OFFCURVE",
"164 311 OFFCURVE",
"237 311 CURVE SMOOTH",
"296 311 OFFCURVE",
"334 267 OFFCURVE",
"334 233 CURVE SMOOTH",
"334 192 OFFCURVE",
"299 157 OFFCURVE",
"239 126 CURVE",
"239 122 LINE",
"235 122 LINE"
);
}
);
};
components = (
{
name = uni06A1medi.comp;
},
{
name = "dotabove-ar";
transform = "{1, 0, 0, 1, -66, 175}";
}
);
layerId = "F3D5F3BC-0862-4A52-BCBD-22F0EED7FFB2";
width = 512;
}
);
rightMetricsKey = "=|";
unicode = FED4;
},
{
glyphname = "feh-ar.init";
lastChange = "2020-05-07 17:31:44 +0000";
layers = (
{
anchors = (
{
name = bottom;
position = "{207, 0}";
},
{
name = top;
position = "{207, 380}";
}
);
background = {
paths = (
{
closed = 1;
nodes = (
"-15 80 OFFCURVE",
"-20 75 OFFCURVE",
"-20 70 CURVE SMOOTH",
"-20 10 LINE SMOOTH",
"-20 5 OFFCURVE",
"-15 0 OFFCURVE",
"-10 0 CURVE SMOOTH",
"21 0 LINE SMOOTH",
"91 0 OFFCURVE",
"212 5 OFFCURVE",
"277 26 CURVE SMOOTH",
"358 52 OFFCURVE",
"386 97 OFFCURVE",
"386 186 CURVE SMOOTH",
"386 429 OFFCURVE",
"308 520 OFFCURVE",
"215 520 CURVE SMOOTH",
"126 520 OFFCURVE",
"47 415 OFFCURVE",
"47 320 CURVE SMOOTH",
"47 213 OFFCURVE",
"93 184 OFFCURVE",
"173 184 CURVE SMOOTH",
"228 184 OFFCURVE",
"301 213 OFFCURVE",
"315 220 CURVE",
"315 222 LINE",
"319 222 LINE",
"319 218 LINE",
"317 218 LINE",
"317 201 OFFCURVE",
"317 150 OFFCURVE",
"312 132 CURVE",
"293 117 OFFCURVE",
"270 109 OFFCURVE",
"242 102 CURVE SMOOTH",
"174 85 OFFCURVE",
"88 80 OFFCURVE",
"21 80 CURVE SMOOTH",
"-10 80 LINE SMOOTH"
);
},
{
closed = 1;
nodes = (
"149 259 OFFCURVE",
"112 267 OFFCURVE",
"112 320 CURVE SMOOTH",
"112 380 OFFCURVE",
"157 445 OFFCURVE",
"212 445 CURVE SMOOTH",
"283 445 OFFCURVE",
"303 365 OFFCURVE",
"317 279 CURVE",
"321 279 LINE",
"321 275 LINE",
"317 275 LINE",
"295 268 OFFCURVE",
"246 259 OFFCURVE",
"190 259 CURVE SMOOTH"
);
}
);
};
components = (
{
name = "dotabove-ar";
transform = "{1, 0, 0, 1, -93, 202}";
},
{
name = "fehDotlessshort-ar.init";
}
);
layerId = "4BB9E86A-2C6D-49F0-A7F5-5EF670F2F4E4";
width = 436;
},
{
anchors = (
{
name = bottom;
position = "{207, 0}";
},
{
name = top;
position = "{207, 380}";
}
);
background = {
paths = (
{
closed = 1;
nodes = (
"-15 80 OFFCURVE",
"-20 75 OFFCURVE",
"-20 70 CURVE SMOOTH",
"-20 10 LINE SMOOTH",
"-20 5 OFFCURVE",
"-15 0 OFFCURVE",
"-10 0 CURVE SMOOTH",
"21 0 LINE SMOOTH",
"91 0 OFFCURVE",
"212 5 OFFCURVE",
"277 26 CURVE SMOOTH",
"358 52 OFFCURVE",
"386 97 OFFCURVE",
"386 186 CURVE SMOOTH",
"386 429 OFFCURVE",
"308 520 OFFCURVE",
"215 520 CURVE SMOOTH",
"126 520 OFFCURVE",
"47 415 OFFCURVE",
"47 320 CURVE SMOOTH",
"47 213 OFFCURVE",
"93 184 OFFCURVE",
"173 184 CURVE SMOOTH",
"228 184 OFFCURVE",
"301 213 OFFCURVE",
"315 220 CURVE",
"315 222 LINE",
"319 222 LINE",
"319 218 LINE",
"317 218 LINE",
"317 201 OFFCURVE",
"317 150 OFFCURVE",
"312 132 CURVE",
"293 117 OFFCURVE",
"270 109 OFFCURVE",
"242 102 CURVE SMOOTH",
"174 85 OFFCURVE",
"88 80 OFFCURVE",
"21 80 CURVE SMOOTH",
"-10 80 LINE SMOOTH"
);
},
{
closed = 1;
nodes = (
"149 259 OFFCURVE",
"112 267 OFFCURVE",
"112 320 CURVE SMOOTH",
"112 380 OFFCURVE",
"157 445 OFFCURVE",
"212 445 CURVE SMOOTH",
"283 445 OFFCURVE",
"303 365 OFFCURVE",
"317 279 CURVE",
"321 279 LINE",
"321 275 LINE",
"317 275 LINE",
"295 268 OFFCURVE",
"246 259 OFFCURVE",
"190 259 CURVE SMOOTH"
);
}
);
};
components = (
{
name = "dotabove-ar";
transform = "{1, 0, 0, 1, -93, 302}";
},
{
name = "fehDotlessshort-ar.init";
}
);
layerId = "F3D5F3BC-0862-4A52-BCBD-22F0EED7FFB2";
width = 436;
}
);
note = "حطي قسمن";
unicode = FED3;
},
{
glyphname = "veh-ar.init";
lastChange = "2020-05-11 13:13:29 +0000";
layers = (
{
anchors = (
{
name = bottom;
position = "{170, 0}";
},
{
name = top;
position = "{170, 380}";
}
);
background = {
paths = (
{
closed = 1;
nodes = (
"-10 80 OFFCURVE",
"-15 75 OFFCURVE",
"-15 70 CURVE SMOOTH",
"-15 10 LINE SMOOTH",
"-15 5 OFFCURVE",
"-10 0 OFFCURVE",
"-5 0 CURVE SMOOTH",
"26 0 LINE SMOOTH",
"96 0 OFFCURVE",
"217 5 OFFCURVE",
"282 26 CURVE SMOOTH",
"363 52 OFFCURVE",
"391 97 OFFCURVE",
"391 186 CURVE SMOOTH",
"391 429 OFFCURVE",
"313 520 OFFCURVE",
"218 520 CURVE SMOOTH",
"131 520 OFFCURVE",
"52 415 OFFCURVE",
"52 320 CURVE SMOOTH",
"52 213 OFFCURVE",
"98 184 OFFCURVE",
"178 184 CURVE SMOOTH",
"233 184 OFFCURVE",
"306 213 OFFCURVE",
"320 220 CURVE",
"320 222 LINE",
"324 222 LINE",
"324 218 LINE",
"322 218 LINE",
"322 201 OFFCURVE",
"322 150 OFFCURVE",
"317 132 CURVE",
"298 117 OFFCURVE",
"275 109 OFFCURVE",
"247 102 CURVE SMOOTH",
"179 85 OFFCURVE",
"93 80 OFFCURVE",
"26 80 CURVE SMOOTH",
"-5 80 LINE SMOOTH"
);
},
{
closed = 1;
nodes = (
"154 259 OFFCURVE",
"117 267 OFFCURVE",
"117 320 CURVE SMOOTH",
"117 380 OFFCURVE",
"162 445 OFFCURVE",
"216 445 CURVE SMOOTH",
"288 445 OFFCURVE",
"309 366 OFFCURVE",
"322 279 CURVE",
"326 279 LINE",
"326 275 LINE",
"322 275 LINE",
"300 268 OFFCURVE",
"251 259 OFFCURVE",
"195 259 CURVE SMOOTH"
);
}
);
};
components = (
{
name = "threedotsupabove-ar";
transform = "{1, 0, 0, 1, -130, -33}";
},
{
name = "fehDotlessshort-ar.init";
transform = "{1, 0, 0, 1, 5, 0}";
}
);
layerId = "4BB9E86A-2C6D-49F0-A7F5-5EF670F2F4E4";
width = 408;
},
{
anchors = (
{
name = bottom;
position = "{185, 0}";
},
{
name = top;
position = "{185, 380}";
}
);
background = {
paths = (
{
closed = 1;
nodes = (
"-15 80 OFFCURVE",
"-20 75 OFFCURVE",
"-20 70 CURVE SMOOTH",
"-20 10 LINE SMOOTH",
"-20 5 OFFCURVE",
"-15 0 OFFCURVE",
"-10 0 CURVE SMOOTH",
"21 0 LINE SMOOTH",
"91 0 OFFCURVE",
"212 5 OFFCURVE",
"277 26 CURVE SMOOTH",
"358 52 OFFCURVE",
"386 97 OFFCURVE",
"386 186 CURVE SMOOTH",
"386 429 OFFCURVE",
"308 520 OFFCURVE",
"213 520 CURVE SMOOTH",
"126 520 OFFCURVE",
"47 415 OFFCURVE",
"47 320 CURVE SMOOTH",
"47 213 OFFCURVE",
"93 184 OFFCURVE",
"173 184 CURVE SMOOTH",
"228 184 OFFCURVE",
"301 213 OFFCURVE",
"315 220 CURVE",
"315 222 LINE",
"319 222 LINE",
"319 218 LINE",
"317 218 LINE",
"317 201 OFFCURVE",
"317 150 OFFCURVE",
"312 132 CURVE",
"293 117 OFFCURVE",
"270 109 OFFCURVE",
"242 102 CURVE SMOOTH",
"174 85 OFFCURVE",
"88 80 OFFCURVE",
"21 80 CURVE SMOOTH",
"-10 80 LINE SMOOTH"
);
},
{
closed = 1;
nodes = (
"149 259 OFFCURVE",
"112 267 OFFCURVE",
"112 320 CURVE SMOOTH",
"112 380 OFFCURVE",
"157 445 OFFCURVE",
"211 445 CURVE SMOOTH",
"283 445 OFFCURVE",
"304 366 OFFCURVE",
"317 279 CURVE",
"321 279 LINE",
"321 275 LINE",
"317 275 LINE",
"295 268 OFFCURVE",
"246 259 OFFCURVE",
"190 259 CURVE SMOOTH"
);
}
);
};
components = (
{
name = "threedotsupabove-ar";
transform = "{1, 0, 0, 1, -115, 67}";
},
{
name = "fehDotlessshort-ar.init";
}
);
layerId = "F3D5F3BC-0862-4A52-BCBD-22F0EED7FFB2";
width = 461;
}
);
note = "حطي قسمن";
rightMetricsKey = "=30";
unicode = FB6C;
},
{
color = 10;
glyphname = "qafDotless-ar";
lastChange = "2020-05-03 12:01:38 +0000";
layers = (
{
background = {
paths = (
{
closed = 1;
nodes = (
"530 -183 OFFCURVE",
"656 -152 OFFCURVE",
"656 20 CURVE SMOOTH",
"656 177 OFFCURVE",
"616 318 OFFCURVE",
"500 318 CURVE SMOOTH",
"409 318 OFFCURVE",
"335 233 OFFCURVE",
"335 119 CURVE SMOOTH",
"335 46 OFFCURVE",
"367 0 OFFCURVE",
"478 0 CURVE SMOOTH",
"532 0 OFFCURVE",
"583 10 OFFCURVE",
"603 20 CURVE",
"603 22 LINE",
"607 22 LINE",
"607 18 LINE",
"605 18 LINE",
"605 -118 OFFCURVE",
"513 -121 OFFCURVE",
"320 -121 CURVE SMOOTH",
"110 -121 OFFCURVE",
"64 -71 OFFCURVE",
"64 47 CURVE SMOOTH",
"64 79 OFFCURVE",
"72 119 OFFCURVE",
"86 169 CURVE",
"103 151 LINE",
"-3 151 LINE",
"54 185 LINE",
"26 115 OFFCURVE",
"11 54 OFFCURVE",
"11 5 CURVE SMOOTH",
"11 -124 OFFCURVE",
"106 -183 OFFCURVE",
"320 -183 CURVE SMOOTH"
);
},
{
closed = 1;
nodes = (
"409 62 OFFCURVE",
"385 79 OFFCURVE",
"385 129 CURVE SMOOTH",
"385 197 OFFCURVE",
"431 258 OFFCURVE",
"497 258 CURVE SMOOTH",
"555 258 OFFCURVE",
"586 213 OFFCURVE",
"602 80 CURVE",
"605 80 LINE",
"605 76 LINE",
"601 76 LINE",
"601 78 LINE",
"577 71 OFFCURVE",
"533 62 OFFCURVE",
"485 62 CURVE SMOOTH"
);
}
);
};
layerId = "4BB9E86A-2C6D-49F0-A7F5-5EF670F2F4E4";
paths = (
{
closed = 1;
nodes = (
"494 -183 OFFCURVE",
"636 -157 OFFCURVE",
"636 42 CURVE SMOOTH",
"636 162 OFFCURVE",
"596 318 OFFCURVE",
"480 318 CURVE SMOOTH",
"389 318 OFFCURVE",
"315 233 OFFCURVE",
"315 119 CURVE SMOOTH",
"315 46 OFFCURVE",
"347 0 OFFCURVE",
"458 0 CURVE SMOOTH",
"512 0 OFFCURVE",
"562 9 OFFCURVE",
"582 19 CURVE",
"582 21 LINE",
"586 21 LINE",
"586 17 LINE",
"584 17 LINE",
"584 -99 OFFCURVE",
"481 -121 OFFCURVE",
"320 -121 CURVE SMOOTH",
"140 -121 OFFCURVE",
"85 -71 OFFCURVE",
"85 45 CURVE SMOOTH",
"85 79 OFFCURVE",
"88 121 OFFCURVE",
"104 169 CURVE",
"123 151 LINE",
"16 151 LINE",
"71 185 LINE",
"43 115 OFFCURVE",
"30 56 OFFCURVE",
"30 5 CURVE SMOOTH",
"30 -124 OFFCURVE",
"136 -183 OFFCURVE",
"320 -183 CURVE SMOOTH"
);
},
{
closed = 1;
nodes = (
"389 62 OFFCURVE",
"365 79 OFFCURVE",
"365 129 CURVE SMOOTH",
"365 197 OFFCURVE",
"411 258 OFFCURVE",
"477 258 CURVE SMOOTH",
"535 258 OFFCURVE",
"566 213 OFFCURVE",
"582 80 CURVE",
"585 80 LINE",
"585 76 LINE",
"581 76 LINE",
"581 78 LINE",
"557 71 OFFCURVE",
"513 62 OFFCURVE",
"465 62 CURVE SMOOTH"
);
}
);
width = 666;
},
{
background = {
paths = (
{
closed = 1;
nodes = (
"588 -222 OFFCURVE",
"716 -157 OFFCURVE",
"716 59 CURVE SMOOTH",
"716 270 OFFCURVE",
"643 386 OFFCURVE",
"525 386 CURVE SMOOTH",
"410 386 OFFCURVE",
"337 281 OFFCURVE",
"337 157 CURVE SMOOTH",
"337 57 OFFCURVE",
"396 0 OFFCURVE",
"511 0 CURVE SMOOTH",
"541 0 OFFCURVE",
"578 0 OFFCURVE",
"604 0 CURVE",
"604 2 LINE",
"608 2 LINE",
"608 -2 LINE",
"606 -2 LINE",
"594 -92 OFFCURVE",
"466 -92 OFFCURVE",
"365 -92 CURVE SMOOTH",
"216 -92 OFFCURVE",
"138 -56 OFFCURVE",
"138 44 CURVE SMOOTH",
"138 86 OFFCURVE",
"152 142 OFFCURVE",
"181 224 CURVE",
"215 168 LINE",
"21 168 LINE",
"85 213 LINE",
"49 136 OFFCURVE",
"30 60 OFFCURVE",
"30 0 CURVE SMOOTH",
"30 -150 OFFCURVE",
"148 -222 OFFCURVE",
"383 -222 CURVE SMOOTH"
);
},
{
closed = 1;
nodes = (
"464 130 OFFCURVE",
"442 141 OFFCURVE",
"442 175 CURVE SMOOTH",
"442 214 OFFCURVE",
"471 261 OFFCURVE",
"526 261 CURVE SMOOTH",
"572 261 OFFCURVE",
"597 228 OFFCURVE",
"606 132 CURVE",
"608 132 LINE",
"608 128 LINE",
"604 128 LINE",
"604 130 LINE",
"576 130 OFFCURVE",
"540 130 OFFCURVE",
"511 130 CURVE SMOOTH"
);
}
);
};
layerId = "F3D5F3BC-0862-4A52-BCBD-22F0EED7FFB2";
paths = (
{
closed = 1;
nodes = (
"588 -222 OFFCURVE",
"716 -157 OFFCURVE",
"716 59 CURVE SMOOTH",
"716 270 OFFCURVE",
"643 386 OFFCURVE",
"525 386 CURVE SMOOTH",
"410 386 OFFCURVE",
"337 281 OFFCURVE",
"337 157 CURVE SMOOTH",
"337 57 OFFCURVE",
"396 0 OFFCURVE",
"511 0 CURVE SMOOTH",
"541 0 OFFCURVE",
"578 4 OFFCURVE",
"604 10 CURVE",
"604 12 LINE",
"608 12 LINE",
"608 8 LINE",
"606 8 LINE",
"606 -92 OFFCURVE",
"466 -92 OFFCURVE",
"365 -92 CURVE SMOOTH",
"216 -92 OFFCURVE",
"138 -56 OFFCURVE",
"138 44 CURVE SMOOTH",
"138 86 OFFCURVE",
"152 142 OFFCURVE",
"181 224 CURVE",
"215 168 LINE",
"21 168 LINE",
"85 213 LINE",
"49 136 OFFCURVE",
"30 60 OFFCURVE",
"30 0 CURVE SMOOTH",
"30 -150 OFFCURVE",
"148 -222 OFFCURVE",
"383 -222 CURVE SMOOTH"
);
},
{
closed = 1;
nodes = (
"464 130 OFFCURVE",
"442 141 OFFCURVE",
"442 175 CURVE SMOOTH",
"442 214 OFFCURVE",
"471 261 OFFCURVE",
"526 261 CURVE SMOOTH",
"572 261 OFFCURVE",
"596 228 OFFCURVE",
"604 142 CURVE",
"606 142 LINE",
"606 138 LINE",
"602 138 LINE",
"602 140 LINE",
"574 134 OFFCURVE",
"540 130 OFFCURVE",
"511 130 CURVE SMOOTH"
);
}
);
width = 746;
}
);
leftMetricsKey = "=30";
rightMetricsKey = "=30";
unicode = 066F;
},
{
color = 10;
glyphname = "qafDotless-ar.fina";
lastChange = "2020-05-08 08:55:22 +0000";
layers = (
{
background = {
paths = (
{
closed = 1;
nodes = (
"494 -183 OFFCURVE",
"636 -157 OFFCURVE",
"636 42 CURVE SMOOTH",
"636 162 OFFCURVE",
"596 318 OFFCURVE",
"480 318 CURVE SMOOTH",
"389 318 OFFCURVE",
"315 233 OFFCURVE",
"315 119 CURVE SMOOTH",
"315 46 OFFCURVE",
"347 0 OFFCURVE",
"458 0 CURVE SMOOTH",
"512 0 OFFCURVE",
"562 9 OFFCURVE",
"582 19 CURVE",
"582 21 LINE",
"586 21 LINE",
"586 17 LINE",
"584 17 LINE",
"584 -99 OFFCURVE",
"481 -121 OFFCURVE",
"320 -121 CURVE SMOOTH",
"140 -121 OFFCURVE",
"85 -71 OFFCURVE",
"85 45 CURVE SMOOTH",
"85 79 OFFCURVE",
"88 121 OFFCURVE",
"104 169 CURVE",
"123 151 LINE",
"16 151 LINE",
"71 185 LINE",
"43 115 OFFCURVE",
"30 56 OFFCURVE",
"30 5 CURVE SMOOTH",
"30 -124 OFFCURVE",
"136 -183 OFFCURVE",
"320 -183 CURVE SMOOTH"
);
},
{
closed = 1;
nodes = (
"389 62 OFFCURVE",
"365 79 OFFCURVE",
"365 129 CURVE SMOOTH",
"365 197 OFFCURVE",
"411 258 OFFCURVE",
"477 258 CURVE SMOOTH",
"535 258 OFFCURVE",
"566 213 OFFCURVE",
"582 80 CURVE",
"585 80 LINE",
"585 76 LINE",
"581 76 LINE",
"581 78 LINE",
"557 71 OFFCURVE",
"513 62 OFFCURVE",
"465 62 CURVE SMOOTH"
);
}
);
};
guideLines = (
{
position = "{465, 62}";
}
);
layerId = "4BB9E86A-2C6D-49F0-A7F5-5EF670F2F4E4";
paths = (
{
closed = 1;
nodes = (
"634 64 LINE",
"636 64 LINE",
"631 181 OFFCURVE",
"589 318 OFFCURVE",
"480 318 CURVE SMOOTH",
"389 318 OFFCURVE",
"315 233 OFFCURVE",
"315 119 CURVE SMOOTH",
"315 46 OFFCURVE",
"357 0 OFFCURVE",
"468 0 CURVE SMOOTH",
"581 0 LINE",
"581 2 LINE",
"585 2 LINE",
"585 -2 LINE",
"583 -2 LINE",
"571 -99 OFFCURVE",
"481 -121 OFFCURVE",
"320 -121 CURVE SMOOTH",
"140 -121 OFFCURVE",
"85 -71 OFFCURVE",
"85 45 CURVE SMOOTH",
"85 79 OFFCURVE",
"88 120 OFFCURVE",
"105 169 CURVE",
"121 151 LINE",
"36 151 LINE",
"64 168 LINE",
"41 106 OFFCURVE",
"30 52 OFFCURVE",
"30 5 CURVE SMOOTH",
"30 -124 OFFCURVE",
"136 -183 OFFCURVE",
"320 -183 CURVE SMOOTH",
"480 -183 OFFCURVE",
"613 -161 OFFCURVE",
"634 -2 CURVE",
"632 -2 LINE",
"632 2 LINE",
"636 2 LINE",
"636 0 LINE",
"685 0 LINE SMOOTH",
"690 0 OFFCURVE",
"695 5 OFFCURVE",
"695 10 CURVE SMOOTH",
"695 52 LINE SMOOTH",
"695 57 OFFCURVE",
"690 62 OFFCURVE",
"685 62 CURVE SMOOTH",
"638 62 LINE",
"638 60 LINE",
"634 60 LINE"
);
},
{
closed = 1;
nodes = (
"582 62 LINE",
"465 62 LINE SMOOTH",
"389 62 OFFCURVE",
"365 79 OFFCURVE",
"365 129 CURVE SMOOTH",
"365 197 OFFCURVE",
"411 258 OFFCURVE",
"477 258 CURVE SMOOTH",
"535 258 OFFCURVE",
"577 200 OFFCURVE",
"584 64 CURVE",
"586 64 LINE",
"586 60 LINE",
"582 60 LINE"
);
}
);
width = 680;
},
{
background = {
paths = (
{
closed = 1;
nodes = (
"588 -222 OFFCURVE",
"716 -157 OFFCURVE",
"716 59 CURVE SMOOTH",
"716 270 OFFCURVE",
"643 386 OFFCURVE",
"525 386 CURVE SMOOTH",
"410 386 OFFCURVE",
"337 281 OFFCURVE",
"337 157 CURVE SMOOTH",
"337 57 OFFCURVE",
"396 0 OFFCURVE",
"511 0 CURVE SMOOTH",
"541 0 OFFCURVE",
"578 4 OFFCURVE",
"604 10 CURVE",
"604 12 LINE",
"608 12 LINE",
"608 8 LINE",
"606 8 LINE",
"606 -92 OFFCURVE",
"466 -92 OFFCURVE",
"365 -92 CURVE SMOOTH",
"216 -92 OFFCURVE",
"138 -56 OFFCURVE",
"138 44 CURVE SMOOTH",
"138 86 OFFCURVE",
"152 142 OFFCURVE",
"181 224 CURVE",
"215 168 LINE",
"21 168 LINE",
"85 213 LINE",
"49 136 OFFCURVE",
"30 60 OFFCURVE",
"30 0 CURVE SMOOTH",
"30 -150 OFFCURVE",
"148 -222 OFFCURVE",
"383 -222 CURVE SMOOTH"
);
},
{
closed = 1;
nodes = (
"464 130 OFFCURVE",
"442 141 OFFCURVE",
"442 175 CURVE SMOOTH",
"442 214 OFFCURVE",
"471 261 OFFCURVE",
"526 261 CURVE SMOOTH",
"572 261 OFFCURVE",
"597 228 OFFCURVE",
"606 132 CURVE",
"608 132 LINE",
"608 128 LINE",
"604 128 LINE",
"604 130 LINE",
"576 130 OFFCURVE",
"540 130 OFFCURVE",
"511 130 CURVE SMOOTH"
);
},
{
closed = 1;
nodes = (
"649 130 LINE",
"649 0 LINE",
"775 0 LINE SMOOTH",
"780 0 OFFCURVE",
"785 5 OFFCURVE",
"785 10 CURVE SMOOTH",
"785 120 LINE SMOOTH",
"785 125 OFFCURVE",
"780 130 OFFCURVE",
"775 130 CURVE SMOOTH"
);
}
);
};
guideLines = (
{
position = "{649, 130}";
}
);
layerId = "F3D5F3BC-0862-4A52-BCBD-22F0EED7FFB2";
paths = (
{
closed = 1;
nodes = (
"711 132 LINE",
"713 132 LINE",
"697 297 OFFCURVE",
"629 386 OFFCURVE",
"525 386 CURVE SMOOTH",
"410 386 OFFCURVE",
"337 281 OFFCURVE",
"337 157 CURVE SMOOTH",
"337 57 OFFCURVE",
"396 0 OFFCURVE",
"511 0 CURVE SMOOTH",
"604 0 LINE",
"604 2 LINE",
"608 2 LINE",
"608 -2 LINE",
"606 -2 LINE",
"594 -92 OFFCURVE",
"466 -92 OFFCURVE",
"365 -92 CURVE SMOOTH",
"216 -92 OFFCURVE",
"138 -56 OFFCURVE",
"138 44 CURVE SMOOTH",
"138 84 OFFCURVE",
"151 136 OFFCURVE",
"176 212 CURVE",
"211 168 LINE",
"17 168 LINE",
"81 203 LINE",
"47 130 OFFCURVE",
"30 57 OFFCURVE",
"30 0 CURVE SMOOTH",
"30 -150 OFFCURVE",
"148 -222 OFFCURVE",
"383 -222 CURVE SMOOTH",
"567 -222 OFFCURVE",
"689 -169 OFFCURVE",
"712 -2 CURVE",
"710 -2 LINE",
"710 2 LINE",
"714 2 LINE",
"714 0 LINE",
"775 0 LINE SMOOTH",
"780 0 OFFCURVE",
"785 5 OFFCURVE",
"785 10 CURVE SMOOTH",
"785 120 LINE SMOOTH",
"785 125 OFFCURVE",
"780 130 OFFCURVE",
"775 130 CURVE SMOOTH",
"715 130 LINE",
"715 128 LINE",
"711 128 LINE"
);
},
{
closed = 1;
nodes = (
"604 130 LINE",
"511 130 LINE SMOOTH",
"464 130 OFFCURVE",
"442 141 OFFCURVE",
"442 175 CURVE SMOOTH",
"442 214 OFFCURVE",
"471 261 OFFCURVE",
"526 261 CURVE SMOOTH",
"572 261 OFFCURVE",
"597 228 OFFCURVE",
"606 132 CURVE",
"608 132 LINE",
"608 128 LINE",
"604 128 LINE"
);
}
);
width = 770;
}
);
leftMetricsKey = "=30";
rightMetricsKey = "=-15";
},
{
glyphname = "qaf-ar.init";
lastChange = "2020-05-07 17:36:34 +0000";
layers = (
{
anchors = (
{
name = bottom;
position = "{179, 0}";
},
{
name = top;
position = "{179, 380}";
}
);
background = {
paths = (
{
closed = 1;
nodes = (
"-15 80 OFFCURVE",
"-20 75 OFFCURVE",
"-20 70 CURVE SMOOTH",
"-20 10 LINE SMOOTH",
"-20 5 OFFCURVE",
"-15 0 OFFCURVE",
"-10 0 CURVE SMOOTH",
"21 0 LINE SMOOTH",
"91 0 OFFCURVE",
"212 5 OFFCURVE",
"277 26 CURVE SMOOTH",
"358 52 OFFCURVE",
"386 97 OFFCURVE",
"386 186 CURVE SMOOTH",
"386 429 OFFCURVE",
"308 520 OFFCURVE",
"215 520 CURVE SMOOTH",
"126 520 OFFCURVE",
"47 415 OFFCURVE",
"47 320 CURVE SMOOTH",
"47 213 OFFCURVE",
"93 184 OFFCURVE",
"173 184 CURVE SMOOTH",
"228 184 OFFCURVE",
"301 213 OFFCURVE",
"315 220 CURVE",
"315 222 LINE",
"319 222 LINE",
"319 218 LINE",
"317 218 LINE",
"317 201 OFFCURVE",
"317 150 OFFCURVE",
"312 132 CURVE",
"293 117 OFFCURVE",
"270 109 OFFCURVE",
"242 102 CURVE SMOOTH",
"174 85 OFFCURVE",
"88 80 OFFCURVE",
"21 80 CURVE SMOOTH",
"-10 80 LINE SMOOTH"
);
},
{
closed = 1;
nodes = (
"149 259 OFFCURVE",
"112 267 OFFCURVE",
"112 320 CURVE SMOOTH",
"112 380 OFFCURVE",
"157 445 OFFCURVE",
"212 445 CURVE SMOOTH",
"283 445 OFFCURVE",
"303 365 OFFCURVE",
"317 279 CURVE",
"321 279 LINE",
"321 275 LINE",
"317 275 LINE",
"295 268 OFFCURVE",
"246 259 OFFCURVE",
"190 259 CURVE SMOOTH"
);
}
);
};
components = (
{
name = "twodotshorizontalabove-ar";
transform = "{1, 0, 0, 1, -121, 118}";
},
{
name = "fehDotlessshort-ar.init";
}
);
layerId = "4BB9E86A-2C6D-49F0-A7F5-5EF670F2F4E4";
width = 436;
},
{
anchors = (
{
name = bottom;
position = "{199, 0}";
},
{
name = top;
position = "{199, 380}";
}
);
background = {
paths = (
{
closed = 1;
nodes = (
"-15 80 OFFCURVE",
"-20 75 OFFCURVE",
"-20 70 CURVE SMOOTH",
"-20 10 LINE SMOOTH",
"-20 5 OFFCURVE",
"-15 0 OFFCURVE",
"-10 0 CURVE SMOOTH",
"21 0 LINE SMOOTH",
"91 0 OFFCURVE",
"212 5 OFFCURVE",
"277 26 CURVE SMOOTH",
"358 52 OFFCURVE",
"386 97 OFFCURVE",
"386 186 CURVE SMOOTH",
"386 429 OFFCURVE",
"308 520 OFFCURVE",
"215 520 CURVE SMOOTH",
"126 520 OFFCURVE",
"47 415 OFFCURVE",
"47 320 CURVE SMOOTH",
"47 213 OFFCURVE",
"93 184 OFFCURVE",
"173 184 CURVE SMOOTH",
"228 184 OFFCURVE",
"301 213 OFFCURVE",
"315 220 CURVE",
"315 222 LINE",
"319 222 LINE",
"319 218 LINE",
"317 218 LINE",
"317 201 OFFCURVE",
"317 150 OFFCURVE",
"312 132 CURVE",
"293 117 OFFCURVE",
"270 109 OFFCURVE",
"242 102 CURVE SMOOTH",
"174 85 OFFCURVE",
"88 80 OFFCURVE",
"21 80 CURVE SMOOTH",
"-10 80 LINE SMOOTH"
);
},
{
closed = 1;
nodes = (
"149 259 OFFCURVE",
"112 267 OFFCURVE",
"112 320 CURVE SMOOTH",
"112 380 OFFCURVE",
"157 445 OFFCURVE",
"212 445 CURVE SMOOTH",
"283 445 OFFCURVE",
"303 365 OFFCURVE",
"317 279 CURVE",
"321 279 LINE",
"321 275 LINE",
"317 275 LINE",
"295 268 OFFCURVE",
"246 259 OFFCURVE",
"190 259 CURVE SMOOTH"
);
}
);
};
components = (
{
name = "twodotshorizontalabove-ar";
transform = "{1, 0, 0, 1, -101, 218}";
},
{
name = "fehDotlessshort-ar.init";
}
);
layerId = "F3D5F3BC-0862-4A52-BCBD-22F0EED7FFB2";
width = 436;
}
);
note = "حطي قسمن";
unicode = FED7;
},
{
color = 10;
glyphname = "kaf-ar";
lastChange = "2020-05-08 08:45:29 +0000";
layers = (
{
background = {
paths = (
{
closed = 1;
nodes = (
"615 172 LINE SMOOTH",
"615 160 OFFCURVE",
"608 144 OFFCURVE",
"602 135 CURVE",
"575 102 OFFCURVE",
"469 84 OFFCURVE",
"342 84 CURVE SMOOTH",
"178 84 OFFCURVE",
"85 136 OFFCURVE",
"85 245 CURVE SMOOTH",
"85 286 OFFCURVE",
"98 336 OFFCURVE",
"117 393 CURVE",
"154 356 LINE",
"7 356 LINE",
"68 393 LINE",
"39 324 OFFCURVE",
"21 264 OFFCURVE",
"21 211 CURVE SMOOTH",
"21 72 OFFCURVE",
"133 -2 OFFCURVE",
"342 -2 CURVE SMOOTH",
"577 -2 OFFCURVE",
"695 71 OFFCURVE",
"695 229 CURVE SMOOTH",
"695 713 LINE",
"615 702 LINE"
);
}
);
};
layerId = "4BB9E86A-2C6D-49F0-A7F5-5EF670F2F4E4";
paths = (
{
closed = 1;
nodes = (
"600 0 OFFCURVE",
"682 69 OFFCURVE",
"682 209 CURVE SMOOTH",
"682 704 LINE",
"627 700 LINE",
"627 187 LINE SMOOTH",
"627 165 OFFCURVE",
"624 144 OFFCURVE",
"621 131 CURVE",
"588 79 OFFCURVE",
"514 62 OFFCURVE",
"339 62 CURVE SMOOTH",
"129 62 OFFCURVE",
"83 112 OFFCURVE",
"83 230 CURVE SMOOTH",
"83 270 OFFCURVE",
"90 306 OFFCURVE",
"105 352 CURVE",
"122 334 LINE",
"16 334 LINE",
"73 368 LINE",
"45 298 OFFCURVE",
"30 239 OFFCURVE",
"30 188 CURVE SMOOTH",
"30 59 OFFCURVE",
"125 0 OFFCURVE",
"339 0 CURVE SMOOTH"
);
},
{
closed = 1;
nodes = (
"283 272 LINE",
"385 298 OFFCURVE",
"444 332 OFFCURVE",
"444 378 CURVE SMOOTH",
"444 398 OFFCURVE",
"433 414 OFFCURVE",
"406 423 CURVE SMOOTH",
"331 447 LINE",
"327 447 LINE",
"327 451 LINE",
"331 451 LINE",
"348 477 OFFCURVE",
"381 495 OFFCURVE",
"430 506 CURVE",
"418 480 LINE",
"393 556 LINE",
"421 540 LINE",
"340 522 OFFCURVE",
"298 489 OFFCURVE",
"298 444 CURVE SMOOTH",
"298 419 OFFCURVE",
"311 403 OFFCURVE",
"346 392 CURVE SMOOTH",
"408 372 LINE",
"412 372 LINE",
"412 368 LINE",
"408 368 LINE",
"377 342 OFFCURVE",
"337 327 OFFCURVE",
"276 312 CURVE",
"290 336 LINE",
"312 256 LINE"
);
}
);
width = 762;
},
{
background = {
paths = (
{
closed = 1;
nodes = (
"653 172 LINE SMOOTH",
"653 160 OFFCURVE",
"646 144 OFFCURVE",
"640 135 CURVE",
"613 102 OFFCURVE",
"507 84 OFFCURVE",
"380 84 CURVE SMOOTH",
"216 84 OFFCURVE",
"123 136 OFFCURVE",
"123 245 CURVE SMOOTH",
"123 286 OFFCURVE",
"136 336 OFFCURVE",
"155 393 CURVE",
"192 356 LINE",
"45 356 LINE",
"106 393 LINE",
"77 324 OFFCURVE",
"59 264 OFFCURVE",
"59 211 CURVE SMOOTH",
"59 72 OFFCURVE",
"171 -2 OFFCURVE",
"380 -2 CURVE SMOOTH",
"615 -2 OFFCURVE",
"733 71 OFFCURVE",
"733 229 CURVE SMOOTH",
"733 713 LINE",
"653 702 LINE"
);
}
);
};
layerId = "F3D5F3BC-0862-4A52-BCBD-22F0EED7FFB2";
paths = (
{
closed = 1;
nodes = (
"658 0 OFFCURVE",
"745 63 OFFCURVE",
"745 241 CURVE SMOOTH",
"745 708 LINE",
"635 700 LINE",
"635 222 LINE SMOOTH",
"635 209 OFFCURVE",
"633 195 OFFCURVE",
"629 178 CURVE",
"602 142 OFFCURVE",
"543 130 OFFCURVE",
"381 130 CURVE SMOOTH",
"211 130 OFFCURVE",
"148 167 OFFCURVE",
"148 264 CURVE SMOOTH",
"148 309 OFFCURVE",
"162 365 OFFCURVE",
"191 446 CURVE",
"225 390 LINE",
"31 390 LINE",
"95 435 LINE",
"59 358 OFFCURVE",
"40 282 OFFCURVE",
"40 222 CURVE SMOOTH",
"40 72 OFFCURVE",
"151 0 OFFCURVE",
"381 0 CURVE SMOOTH"
);
},
{
closed = 1;
nodes = (
"302 260 LINE",
"380 277 OFFCURVE",
"491 313 OFFCURVE",
"491 378 CURVE SMOOTH",
"491 404 OFFCURVE",
"474 420 OFFCURVE",
"447 428 CURVE SMOOTH",
"381 448 LINE",
"377 448 LINE",
"377 453 LINE",
"381 453 LINE",
"398 476 OFFCURVE",
"444 500 OFFCURVE",
"524 508 CURVE",
"470 458 LINE",
"431 588 LINE",
"507 554 LINE",
"415 543 OFFCURVE",
"329 510 OFFCURVE",
"329 444 CURVE SMOOTH",
"329 411 OFFCURVE",
"351 394 OFFCURVE",
"383 385 CURVE SMOOTH",
"435 370 LINE",
"439 370 LINE",
"439 366 LINE",
"435 366 LINE",
"406 343 OFFCURVE",
"362 327 OFFCURVE",
"288 313 CURVE",
"313 366 LINE",
"347 239 LINE"
);
}
);
width = 835;
}
);
unicode = 0643;
},
